<svg width="1375" height="402" xmlns="http://www.w3.org/2000/svg" xmlns:xlink="http://www.w3.org/1999/xlink"><svg height="61" width="61" viewBox="-1 -1 249.48 249.48" x="132" y="335.51" xmlns="http://www.w3.org/2000/svg"><path d="M246.478 123.272A123.239 123.239 0 1 1 123.205 0a123.274 123.274 0 0 1 123.273 123.272z" fill="#b3b2b1"/><path d="M242.975 123.272a119.736 119.736 0 1 1-119.77-119.77 119.752 119.752 0 0 1 119.77 119.77z" fill="#003da6"/><path d="M225.259 123.272a102.12 102.12 0 1 1-102.121-102.12 102.144 102.144 0 0 1 102.12 102.12z" fill="#dd0031"/><path d="M123.205 219.533a96.271 96.271 0 0 1-89.658-61.367c17.11 23.375 50.858 39.407 89.658 39.407 38.868 0 72.55-15.965 89.727-39.407a96.598 96.598 0 0 1-89.727 61.367zm0-192.453a96.362 96.362 0 0 1 89.727 61.366c-17.178-23.374-50.859-39.406-89.727-39.406-38.8 0-72.549 15.897-89.658 39.406a96.203 96.203 0 0 1 89.658-61.366zm-96.193 99.156h18.794v-5.995H27.012c.068-2.223.202-4.513.405-6.736 6.736-33.614 47.018-59.413 95.788-59.413 48.703 0 89.12 25.934 95.79 59.413.269 2.223.336 4.513.403 6.736h-18.861v5.995h18.794c-.067 2.29-.135 4.514-.404 6.804-6.669 33.479-47.086 59.346-95.789 59.346s-89.12-25.867-95.789-59.346c-.134-2.29-.27-4.513-.337-6.804zm96.193-105.084a102.12 102.12 0 1 0 102.121 102.12 102.273 102.273 0 0 0-102.12-102.12z" fill="#fff"/><path fill="#fff" d="M80.026 125.9h7.208v32.401h-7.208zm27.686 0h-.27c-2.02 0-9.43-.068-10.845 0h-.336c-2.156 0-3.57 1.01-3.907 2.964a1.52 1.52 0 0 0-.135.471c0 .067-.472 6.197.135 7.881.943 2.762 3.233 3.84 5.254 4.379.067 0 .135.135.202.135a1.249 1.249 0 0 1 .471.134 1.416 1.416 0 0 1 .472.337v11.721h-5.928v4.311h7.881c2.695-.067 4.581-1.347 5.255-3.3.134-1.617.202-12.462.067-14.753a2.762 2.762 0 0 0-1.28-2.155 8.453 8.453 0 0 0-1.145-.741c-.404-.27-.943-.404-1.347-.674-1.684-.808-3.57-1.751-3.57-3.907v-1.819h5.658a3.029 3.029 0 0 0 2.694-1.684 7.403 7.403 0 0 0 .54-1.684 4.46 4.46 0 0 0 0-1.347zm30.65 7.342a7.54 7.54 0 0 1 .202-1.953l.202-.135a5.098 5.098 0 0 1 1.01-.068h.135c2.425 0 2.493.741 2.493 5.187v14.685a5.236 5.236 0 0 1-.135 1.078l-.202.202a7.322 7.322 0 0 1-1.213.068 2.361 2.361 0 0 1-1.953-.607c-.54-.539-.54-1.55-.54-2.694zm2.425-7.342a20.72 20.72 0 0 0-4.715.471c-3.503.808-5.255 3.166-5.255 7.208v19.333c0 4.917 3.503 5.928 8.825 5.928 6.466 0 10.104-2.29 10.104-6.265v-20.141c0-6.534-4.176-6.534-8.96-6.534zm25.665 13.809c-3.368-12.53-9.027-13.877-11.25-13.877a8.034 8.034 0 0 0-1.01.068l-.135.134v32.401h7.343v-13.068l5.052 13.068h7.477v-32.4h-7.477zm-98.079.673h-4.11v-9.43s2.156-.068 2.493 0c.876.067 1.55.404 1.55 1.414.067.27.067 8.016.067 8.016zm2.896-14.482H52.812v.27a4.882 4.882 0 0 0 4.11 4.782v27.483h7.544v-13.809h6.264c3.301 0 5.255-2.155 5.255-5.995v-1.212c-.135-9.162-.472-10.98-4.716-11.52zm57.325.134h-16.908v5.052h4.85v27.417h7.41v-27.417h.27a4.334 4.334 0 0 0 3.166-1.145 5.585 5.585 0 0 0 1.28-3.705zm65.005-.134h-.27c-1.953 0-9.43-.068-10.845 0h-.337c-2.155 0-3.57 1.01-3.907 2.964a2.82 2.82 0 0 0-.067.471c0 .067-.54 6.197.067 7.881a7.035 7.035 0 0 0 5.254 4.379c.068 0 .202.135.27.135a.958.958 0 0 1 .404.134c.27.068.404.27.539.337v11.721h-5.928v4.311h7.814c2.762-.067 4.58-1.347 5.254-3.3.202-1.617.27-12.462.068-14.753a2.869 2.869 0 0 0-1.213-2.155 6.355 6.355 0 0 0-1.212-.741c-.405-.27-.876-.404-1.28-.674-1.684-.808-3.638-1.751-3.638-3.907v-1.819h5.726a2.86 2.86 0 0 0 2.627-1.684 10.716 10.716 0 0 0 .606-1.684 8.877 8.877 0 0 0 0-1.347zm-66.285-33.21h1.415c1.954 0 2.56 0 2.492 3.368 0 2.627 0 2.83-.067 4.042v.27a1.53 1.53 0 0 1-.404 1.077.731.731 0 0 1-.606.27h-2.897V92.69zm0 13.203h1.28c1.145 0 3.234.404 3.234 2.56 0 1.01.067 4.311.134 5.524v.538c0 .135.135 1.752.203 2.089.471 1.886 2.02 2.964 4.243 3.233h2.089v-11.519a5.524 5.524 0 0 0-1.348-3.368l-.134-.135a6.328 6.328 0 0 0 1.549-4.58v-1.213c0-8.892-.337-10.778-4.513-11.182h-14.012v31.66h7.208v-13.607zm37.723-18.188h7.006v31.593h-7.006zm-60.491 31.728h7.208V92.69h.27a4.17 4.17 0 0 0 3.098-1.145 5.357 5.357 0 0 0 1.28-3.638v-.202H99.83v4.985h4.715zm75.984 0h7.208V92.69h.27a4.17 4.17 0 0 0 3.098-1.145 5.357 5.357 0 0 0 1.28-3.638v-.202h-16.57v4.985h4.714zm-84.539-5.12h-7.612v-7.746h5.187v-6.871h-5.187v-7.073h7.612v-4.918H81.373l-.067 31.593h14.685v-4.985zm-26.271 0h-4.042V92.69c2.493-.067 3.032.068 3.099.202.943.27.943 2.021.943 2.156.135 2.425 0 17.244 0 19.265zm2.492-26.608H54.16v.135a4.264 4.264 0 0 0 .943 3.233 4.66 4.66 0 0 0 3.301 1.55v26.608h13.473c3.098 0 5.119-2.56 5.119-6.467V98.012c0-8.016 0-10.172-4.783-10.307zm77.668 7.141a7.54 7.54 0 0 1 .203-1.954l.202-.134a5.099 5.099 0 0 1 1.01-.068h.135c2.425 0 2.492.741 2.492 5.12v14.415a5.234 5.234 0 0 1-.134 1.078l-.202.067a3.73 3.73 0 0 1-1.213.135 2.715 2.715 0 0 1-1.953-.606 4.134 4.134 0 0 1-.54-2.695V94.846zm2.291-7.14a20.957 20.957 0 0 0-4.648.404c-3.503.808-5.187 3.166-5.187 7.073v18.86c0 4.851 3.503 5.861 8.757 5.861 6.332 0 10.037-2.223 10.037-6.062V94.105c.068-6.4-4.109-6.4-8.959-6.4z"/></svg><svg width="32.13" height="66.99" viewBox="-1 -9.61 32.13 66.99" x="67.68" y="268" xmlns="http://www.w3.org/2000/svg"><path fill="#fff" d="M29.649 9.761a40.753 40.753 0 0 0-.24-13.886l-.407-2.134a2.466 2.466 0 0 0-2.423-2.005H3.552a2.468 2.468 0 0 0-2.424 2.005L.722-4.125a40.728 40.728 0 0 0-.24 13.886L5.76 43.846a8.61 8.61 0 0 1-3.672 8.032 2.467 2.467 0 0 0 1.402 4.497h23.15a2.466 2.466 0 0 0 1.401-4.497 8.61 8.61 0 0 1-3.672-8.032l5.28-34.085zm-8.52 41.679H9.002a13.548 13.548 0 0 0 1.642-8.298L6.25 14.763h17.631l-4.394 28.38-.014.098a13.532 13.532 0 0 0 1.656 8.199zM5.854 9.828c-.124 0-.245.012-.364.029l-.132-.851a35.797 35.797 0 0 1 .211-12.207l.025-.129h18.943l.024.129c.77 4.038.84 8.145.211 12.206l-.127.823H5.854z"/></svg><svg data-name="Layer 1" width="23.23" height="44.01" viewBox="-1 -1 23.23 44.01" x="193" y="335.51" xmlns="http://www.w3.org/2000/svg"><path d="M21.23.31V7H17.4a3.55 3.55 0 0 0-2.85.91 4.26 4.26 0 0 0-.74 2.72v4.77H21l-1 7.47h-6.19V42H6.27V22.85H0v-7.47h6.27V9.85q0-4.69 2.55-7.28A9 9 0 0 1 15.63 0a39.57 39.57 0 0 1 5.6.31z" fill="#fff"/></svg><svg width="67.68" height="67.51" viewBox="-1 -0.31 67.68 67.51" y="268" xmlns="http://www.w3.org/2000/svg"><path fill="#fff" stroke="#FFF" stroke-miterlimit="10" d="M15.318 1.565c-4.752.988-8.057 4.196-8.428 8.18-.205 2.22.798 4.79 2.506 6.385l.78.715H6.723c-4.01 0-4.603.122-5.03.973-.427.822-.408 14.642 0 15.372.352.592.853.821 1.949.866l.835.047.093 15.203c.112 17.044 0 15.857 1.43 16.177.983.228 54.076.228 55.06 0 1.429-.32 1.317.867 1.429-16.177l.093-15.204.835-.046c1.096-.047 1.597-.274 1.95-.867.407-.73.426-14.55 0-15.372-.428-.85-1.022-.973-5.032-.973h-3.452l.78-.714c1.708-1.597 2.71-4.166 2.505-6.386-.334-3.709-3.303-6.826-7.555-7.967-1.913-.516-5.068-.516-6.813 0-2.673.807-4.195 1.871-6.275 4.425-1.615 1.992-4.177 6.081-5.55 8.848-.186.411-.39.73-.445.73-.056 0-.26-.318-.445-.73-1.374-2.767-3.937-6.856-5.55-8.848-2.08-2.554-3.64-3.65-6.276-4.41-1.504-.44-4.4-.547-5.94-.227zm3.992 3.193c1.04.137 2.376.73 3.193 1.399 1.169.973 2.803 3.177 4.622 6.203a186.457 186.457 0 0 1 2.023 3.452l.28.577h-4.215c-4.621 0-7.926-.259-9.95-.761-1.522-.395-3.026-1.505-3.787-2.843-.445-.775-.501-1.064-.501-2.402s.055-1.628.5-2.387c.985-1.734 3.082-3.057 5.254-3.314.928-.12 1.207-.107 2.581.076zm32.115.167c1.802.456 3.304 1.55 4.178 3.087.426.744.482 1.05.482 2.371 0 1.338-.056 1.627-.5 2.402-.67 1.156-2.191 2.372-3.436 2.738-1.967.578-3.731.73-9.207.82l-5.328.092.298-.593c.798-1.611 3.88-6.537 4.863-7.74 1.336-1.672 2.19-2.402 3.378-2.889 1.615-.669 3.36-.76 5.272-.288zM24.248 25.51v5.321H5.498V20.19h18.75v5.32zm14.665 0v5.321H28.146V20.19h10.767v5.32zm22.648 0v5.321h-18.75V20.19h18.75v5.32zm-37.35 22.7l.037 14.094H8.468V48.271c0-7.723.056-14.094.13-14.14.075-.06 3.602-.09 7.835-.075l7.722.046.056 14.109zm14.665-.015l.036 14.11H28.146V48.27c0-7.723.055-14.094.13-14.14.074-.06 2.468-.09 5.328-.075l5.215.046.056 14.094zm19.677.015l.037 14.094H42.811V48.271c0-7.723.057-14.094.13-14.14.075-.06 3.602-.09 7.835-.075l7.722.046.055 14.109z" stroke-width=".1"/></svg><svg width="44" height="43.25" viewBox="-1 93.88 614 604.25" x="216.23" y="335.51" xmlns="http://www.w3.org/2000/svg"><path fill="#FFF" d="M306 149.133c80.404 0 89.927.307 121.683 1.756 29.359 1.34 45.303 6.245 55.914 10.368a93.279 93.279 0 0 1 34.624 22.526 93.293 93.293 0 0 1 22.525 34.623c4.124 10.611 9.029 26.555 10.368 55.915 1.449 31.753 1.756 41.276 1.756 121.683 0 80.406-.307 89.927-1.756 121.683-1.34 29.359-6.245 45.302-10.368 55.914a99.719 99.719 0 0 1-57.149 57.149c-10.61 4.124-26.555 9.029-55.914 10.368-31.747 1.448-41.271 1.756-121.683 1.756s-89.932-.308-121.683-1.756c-29.359-1.34-45.303-6.246-55.915-10.368a93.305 93.305 0 0 1-34.624-22.525 93.305 93.305 0 0 1-22.525-34.624c-4.124-10.61-9.03-26.555-10.368-55.914-1.449-31.753-1.756-41.276-1.756-121.683 0-80.407.307-89.927 1.756-121.683 1.34-29.359 6.244-45.302 10.368-55.915a93.308 93.308 0 0 1 22.528-34.625 93.288 93.288 0 0 1 34.624-22.525c10.611-4.124 26.555-9.03 55.914-10.368 31.754-1.449 41.277-1.756 121.683-1.756m0-54.257c-81.78 0-92.039.347-124.152 1.812-32.052 1.463-53.941 6.553-73.095 13.998a147.608 147.608 0 0 0-53.334 34.732 147.607 147.607 0 0 0-34.742 53.335c-7.438 19.155-12.528 41.043-13.985 73.096C5.222 303.961 4.875 314.219 4.875 396s.347 92.039 1.818 124.152c1.463 32.053 6.553 53.94 13.997 73.095a147.603 147.603 0 0 0 34.732 53.335 147.596 147.596 0 0 0 53.335 34.731c19.155 7.444 41.043 12.534 73.095 13.997 32.118 1.466 42.373 1.813 124.152 1.813s92.039-.347 124.152-1.813c32.052-1.463 53.94-6.553 73.095-13.997a153.977 153.977 0 0 0 88.066-88.066c7.444-19.155 12.534-41.044 13.997-73.095 1.466-32.118 1.813-42.373 1.813-124.152 0-81.78-.347-92.039-1.813-124.152-1.463-32.052-6.553-53.941-13.997-73.095a147.61 147.61 0 0 0-34.731-53.334 147.617 147.617 0 0 0-53.339-34.74c-19.155-7.438-41.043-12.528-73.096-13.985-32.113-1.472-42.371-1.818-124.152-1.818h.003z"/><path fill="#FFF" d="M306 241.368c-85.401 0-154.632 69.231-154.632 154.632 0 85.4 69.231 154.632 154.632 154.632 85.4 0 154.632-69.231 154.632-154.632 0-85.401-69.232-154.632-154.632-154.632zm0 255.006c-55.435-.001-100.374-44.94-100.373-100.375 0-55.435 44.94-100.374 100.375-100.373S406.375 340.565 406.375 396c0 55.436-44.939 100.374-100.375 100.374z"/><circle fill="#FFF" cx="466.741" cy="235.259" r="36.134"/></svg><svg width="1375" height="268" viewBox="-1 -1 1375 268" xmlns="http://www.w3.org/2000/svg"><path fill="#fff" d="M69.469 134.899c-3.141-.994-2.647-1.158 2.48-.662 8.1.994 9.753-.164 10.416-7.271.166-3.143 1.819-8.928 3.638-13.063 3.472-7.77 4.298-16.037 1.818-17.523-1.984-1.324-10.085 5.287-10.085 8.267 0 1.322-.994 2.313-2.315 2.313s-2.811 1.322-3.472 2.977c-1.653 4.794-12.4 11.903-18.353 11.903-7.109 0-12.729-4.793-13.227-11.406-.166-2.812.331-5.621 1.157-6.117.826-.496 1.488 1.653 1.488 4.63 0 7.108 2.479 9.588 9.919 9.588s14.218-4.791 23.146-16.035c4.793-6.282 7.771-8.764 10.747-8.764 5.952 0 6.283 4.629 1.819 19.18-2.313 7.109-3.966 13.228-3.637 13.557 1.488 1.486 11.244-5.126 12.566-8.432 1.157-2.812 1.486-2.977 1.486-.662.167 2.812-3.472 7.111-9.093 10.58-3.139 1.819-3.139 1.819.167 4.465 2.646 1.984 2.811 2.479.827 2.646-1.488 0-3.473-.825-4.629-1.983-1.488-1.485-2.151-1.154-2.978.828-1.154 2.968-6.941 3.463-13.885.984zm71.257-2.316c-4.629-4.133-9.752-14.879-7.771-16.862.498-.496 1.325.497 1.984 2.151 3.141 9.752 4.794 12.398 9.424 14.711 2.645 1.324 6.778 2.479 8.928 2.479 4.629 0 13.722-5.785 13.722-8.762 0-.992 1.653-3.474 3.472-5.621 2.976-2.978 3.306-4.133 1.488-6.283-2.811-3.472-6.117-3.139-8.597.827-3.141 4.96-7.274 4.134-9.424-1.818-1.984-5.953-2.48-42.158-.496-43.315.662-.496 1.157 9.093 1.157 21.161 0 25.131 1.323 28.768 8.1 22.486 2.978-2.811 5.291-3.638 8.101-2.811 3.472.826 3.968.496 3.307-2.314-.496-1.818 0-3.307.992-3.307 1.157 0 1.82 3.143 1.82 8.102 0 21.492 23.477 29.76 33.066 11.572 1.818-3.638 3.307-7.605 3.307-8.928 0-4.133-3.474-4.629-6.78-.991-1.819 1.983-4.629 3.472-6.283 3.472-4.793 0-9.258-13.227-5.125-15.705.992-.66 1.653 1.155 1.653 4.463 0 2.977.827 6.613 1.653 7.937 1.322 1.983 2.149 1.819 5.456-1.323 2.149-1.982 5.621-3.637 7.771-3.637 3.637 0 3.637.496 2.811 8.266l-.99 8.432 4.794-3.473c6.446-4.629 6.944-5.455 6.944-14.053.166-3.967.827-6.943 1.653-6.447 1.982 1.156 1.653 10.25-.498 14.383-.992 1.984-3.803 5.621-5.952 8.103-3.803 3.968-4.133 9.259-.496 7.108.827-.495 1.818-.166 2.48.826.66.994-.827 1.652-3.307 1.652-2.976 0-4.794-.99-5.291-3.306-1.157-4.134-1.488-4.134-7.44.825-9.424 8.103-22.981 4.631-28.933-7.107l-3.637-7.275-3.307 6.78c-6.114 11.902-20.168 15.54-29.756 7.602zm132.098 1.49l-4.134-2.479 4.96 1.155c15.54 3.638 24.965.828 32.735-9.59 3.968-5.455 2.811-13.393-1.818-11.737-2.313.825-2.479.659-.661-1.323 2.479-2.646 7.439-.331 8.268 4.134.991 4.629-7.44 15.539-14.55 19.179-7.605 3.966-19.014 4.298-24.8.661zm100.355.99c-11.903-3.637-23.807-18.186-29.263-36.041-3.639-11.904-3.969-14.219-1.82-12.73.826.496 2.479 5.127 3.474 10.416 1.983 9.754 10.579 24.472 18.187 31.248 5.62 4.959 16.697 7.771 25.129 6.447 4.96-.662 6.448-.498 4.631.659-2.98 1.986-13.89 1.986-20.338.001zm57.204-.99c-9.92-4.961-13.723-22.486-7.109-33.396 3.803-6.282 16.203-14.551 25.296-17.029 3.473-.826 7.605-1.982 9.093-2.479 2.313-.827 2.149-.496-.329 1.652-1.819 1.486-4.631 2.646-6.283 2.646-5.29 0-19.343 8.434-24.47 14.549-3.968 4.794-4.96 7.605-4.96 13.557 0 10.746 4.3 16.863 13.724 19.674 15.045 4.3 26.618-3.967 12.729-9.26-10.417-3.967-10.087-19.672.827-27.938 3.139-2.314 6.941-3.968 8.595-3.638 3.308.662 5.787 9.754 3.639 13.228-.992 1.321-1.486 0-1.486-3.97 0-4.959-.661-6.28-2.978-6.28-4.63 0-10.416 4.959-12.896 11.076-3.307 7.604-.331 13.393 7.606 16.036 7.604 2.48 8.432 7.439 1.817 11.406-5.951 3.471-15.871 3.637-22.815.166zm73.572-.662c-7.275-3.967-12.567-10.912-15.541-20.832-1.158-3.968-1.819-7.273-1.486-7.273.329 0 2.479 4.134 4.793 9.424 4.133 8.764 9.754 15.376 16.863 19.84 4.96 3.14 2.149 2.313-4.629-1.159zm14.879 1.652c3.14-.658 6.282-1.982 7.272-2.975.993-.992 2.646-1.323 3.638-.992 2.148.826 9.261-6.285 12.566-12.566 1.322-2.646 1.485-4.134.165-5.457-1.321-1.322-3.803-.33-9.094 3.474-9.754 6.942-14.879 6.778-21.823-.66-4.133-4.3-5.619-7.274-5.456-11.077l.166-5.29 1.82 5.455c2.148 7.11 9.753 15.211 14.218 15.211 1.984 0 6.283-2.646 9.92-5.787 7.607-6.776 11.242-7.272 12.73-1.651 2.313 9.588-13.723 24.139-26.122 23.807l-5.456-.166 5.456-1.326zm60.015.166c9.424-1.82 16.698-7.111 21.493-15.377 4.299-7.273 4.464-8.1 2.313-12.4-1.323-2.645-2.479-5.619-2.479-6.777 0-.991-2.812-4.629-6.117-7.936-3.638-3.475-4.795-5.291-2.811-4.135 5.125 2.48 12.233 11.406 12.233 15.211 0 4.793 2.148 3.803 6.446-3.474 4.3-6.778 17.688-15.21 27.94-17.36 2.976-.658 5.95-2.148 6.445-3.471.826-2.314 3.805-1.654 3.805.826 0 1.652-6.78 4.464-14.054 6.117-7.439 1.652-20.501 10.416-23.146 15.705-3.638 6.942-3.142 19.014.992 24.801 1.817 2.645 3.968 4.462 4.629 3.966.827-.331 2.811.331 4.464 1.653 3.803 2.811 8.432 3.142 15.376.662 6.613-2.315 6.282-6.944-.659-8.103-5.622-.992-9.094-6.446-9.094-14.384 0-3.967 1.652-7.109 6.283-12.069 6.281-6.446 10.25-8.432 10.25-4.96 0 .994-.994 1.653-2.314 1.653-3.473 0-12.565 11.077-12.565 15.376 0 4.96 4.463 11.076 7.937 11.076 1.653 0 4.63 1.158 6.779 2.812l3.968 2.646-.827-16.697c-.496-9.26-.167-16.368.66-15.872.661.496 1.323 8.596 1.323 17.854 0 15.873.329 17.36 3.804 19.674 2.976 2.149 3.14 2.646.826 2.646-1.488.166-3.804-.993-5.29-2.313-2.149-2.313-2.978-2.148-7.938.826-2.976 1.819-7.936 3.307-10.913 3.307-7.769 0-18.352-5.786-20.336-11.242-.826-2.479-1.982-5.621-2.479-6.943-.659-1.652-1.818-.66-4.135 3.637-4.463 8.599-13.722 14.55-22.151 14.386l-6.613-.168 5.955-1.153zm185.831 0c14.549-3.307 21.325-9.92 24.138-23.313l1.157-5.787.165 5.621c.331 12.729-12.232 25.295-24.964 24.799l-5.456-.33 4.96-.99zM4.991 131.923c-2.314-4.465-.661-7.439 5.952-11.077 3.141-1.653 6.117-4.464 6.613-6.117s1.323-2.646 1.82-2.313c1.819 1.982-1.82 7.938-6.284 10.25-4.96 2.646-6.282 6.943-2.809 10.416 1.486 1.488 1.323 1.982-.826 1.982-1.49-.001-3.475-1.487-4.466-3.141zm15.871 1.322c.496-.826 4.794-1.486 9.424-1.321 9.754.166 8.928.825-2.48 1.981-4.298.332-7.44.168-6.944-.66zm74.399-.166c.496-.658 5.787-1.321 11.904-1.154 13.061.165 11.903.992-2.48 1.818-5.622.33-9.92.164-9.424-.664zm32.569-.99c3.141-3.307 2.149-5.291-2.314-5.291-2.976 0-8.1-4.133-8.1-6.613 0-1.984 12.069 4.629 13.722 7.607 1.488 2.645-1.157 7.271-4.298 7.271-.828 0-.497-1.322.99-2.974zm97.875 1.322c1.157-1.983 13.557-2.313 14.713-.33.331.66-2.976 1.487-7.44 1.652-5.29.166-7.935-.33-7.273-1.322zm28.603-.166c2.976-3.141 2.479-6.117-1.158-7.272-6.444-1.983-8.432-12.07-8.432-42.986 0-18.352.66-29.098 1.819-29.76 1.156-.826 1.486 8.929 1.321 31.58l-.329 32.735 6.282 5.125c6.613 5.621 7.44 11.076 1.653 12.068-2.645.494-2.976.164-1.156-1.49z"/><path fill="#fff" d="M401.121 133.577c7.771-1.983 8.928-3.143 8.928-9.094 0-2.811.659-5.953 1.485-6.779.826-.992 2.646-4.793 3.969-8.764 2.313-6.447 2.313-7.109-.496-8.598-4.464-2.313-6.613-1.983-7.938 1.322-3.636 8.268-9.422 15.211-16.035 18.685l-7.438 3.968-3.637-3.803-3.804-3.803 4.464 1.983c7.272 3.14 12.232.66 19.179-9.754 8.1-12.399 9.259-13.557 14.219-13.557 6.282 0 6.447 4.3.496 22.317l-5.289 16.533-6.613.331c-6.288.335-6.288.169-1.49-.987zm60.84-.332c-.826-1.321.167-1.651 3.307-1.155 2.48.495 6.943.329 9.92-.331 2.812-.66 6.943-.496 8.928.167 5.786 2.147 6.778-2.979 1.486-7.275-2.313-1.983-4.793-5.786-5.289-8.597-.826-4.796-.826-4.796.826-.828.992 2.314 4.134 6.117 6.942 8.434 4.464 3.637 4.795 4.629 3.142 7.77-1.818 3.307-3.307 3.637-15.045 3.637-7.936-.004-13.557-.664-14.217-1.822zm88.451-.992c-1.982-2.646-1.982-2.81.168-.991 1.322.991 4.299 2.149 6.612 2.646l4.134.661-4.301.331c-2.479-.001-5.456-1.159-6.613-2.647zm136.892.662c.497-.826 6.613-1.157 13.557-.992 6.944.328 13.559 0 14.549-.661 2.48-1.488.994-6.117-2.148-6.117-4.793 0-7.272-6.944-6.943-19.84l.33-12.399.827 13.228.993 13.227 6.283 3.308c4.96 2.646 6.116 4.133 5.786 7.438-.496 4.134-.661 4.134-17.194 4.134-9.26-.004-16.534-.664-16.04-1.326zm49.269.33c-1.819-2.646-.331-2.811 4.135-.33 3.966 1.984 3.966 2.148.494 2.148-1.983 0-4.133-.826-4.629-1.818zm-687.274-.992c1.984-.328 5.291-.328 7.439 0 1.984.33.331.662-3.802.662s-5.787-.332-3.637-.662zm213.109-5.291c-4.3-5.127-8.764-16.203-7.273-17.689.496-.496 1.653 1.984 2.811 5.456 1.158 3.472 3.968 8.267 6.282 10.747 2.316 2.479 3.803 4.959 3.307 5.455-.496.496-2.812-1.323-5.127-3.969zm409.19-1.321c-4.63-1.653-6.942-10.249-6.942-26.453 0-20.005-2.314-34.719-6.284-40.008-1.485-2.151-5.951-5.127-9.753-6.613-9.261-3.638-10.416-5.29-2.313-3.142 7.273 1.818 14.384 7.936 17.193 14.549.991 2.314 2.148 14.88 2.812 28.105.659 13.559 1.981 25.627 3.14 27.775 2.314 4.301 9.261 4.96 14.714.993 3.968-2.646 4.794-1.322 1.486 2.646-1.983 2.479-9.754 3.635-14.053 2.148zm-383.399-3.804c-7.604-1.818-15.375-11.242-15.375-18.516.165-2.646.826-1.982 2.479 2.811 2.646 7.273 9.259 14.053 13.887 14.053 1.653 0 4.96-1.486 7.439-3.473 2.313-1.819 4.3-2.812 4.3-1.983-.167 1.488-5.953 8.929-6.943 8.597-.165-.165-2.81-.661-5.787-1.489zm278.746-2.645c-3.307-2.314-7.438-6.779-9.094-9.92-3.637-6.779-6.445-7.109-8.762-.993l-1.653 4.464.331-4.959c.165-3.639 1.322-5.127 3.966-5.457 2.812-.496 5.127 1.488 9.591 7.605 7.109 9.92 14.55 13.393 19.343 9.26 1.652-1.652 2.978-3.637 2.978-4.795 0-2.811-6.284-8.1-16.368-13.391-4.959-2.647-10.746-7.109-13.061-10.088-4.629-5.786-6.942-5.619-6.942.33 0 4.465-2.978 5.955-12.07 5.457l-6.941-.166 8.267-.991c7.272-.827 8.268-1.488 8.764-5.128.33-2.313 1.321-4.959 2.147-6.116.992-.992.992-2.313.166-2.646-.66-.496-2.313-4.795-3.636-9.425-1.653-6.282-3.474-9.093-6.117-10.085-2.148-.826-3.803-2.811-3.803-4.629 0-1.984-1.82-3.805-4.96-4.96-2.646-.826-4.96-1.983-4.96-2.479 0-.498 2.148 0 4.96.826 5.619 1.982 12.896 10.086 15.209 16.698 1.82 5.125 4.631 6.282 4.631 1.984 0-5.621 7.109-14.386 14.382-17.527 4.134-1.817 7.771-2.81 8.268-2.313.66.496-1.818 2.148-5.456 3.638-8.433 3.473-12.896 8.927-15.376 19.014-1.983 7.272-1.818 8.597.495 11.242 1.488 1.653 2.647 3.472 2.647 4.133 0 1.984 7.604 7.604 18.846 14.22 12.399 7.273 15.541 13.393 9.425 18.354-5.132 4.134-8.109 3.968-15.217-1.157zm187.484.993c-2.977-1.652-7.274-6.117-9.589-9.92-4.795-7.439-5.127-7.605-9.424-3.803-3.308 2.977-4.134.662-.994-2.479 3.805-3.803 7.606-1.983 13.558 6.282 3.307 4.629 7.937 9.094 10.25 9.92 8.598 3.307 14.054-4.96 7.771-11.904-1.487-1.652-1.82-2.976-.826-2.976 3.307 0 7.271 9.589 5.456 13.062-3.143 5.785-8.597 6.446-16.202 1.818zM115.762 98.196c0-11.574.66-19.51 1.653-20.171 1.322-.827 1.486 4.96.66 18.517-.66 10.748-1.323 19.841-1.653 20.171-.33.329-.66-7.937-.66-18.517zm254.11 11.242c-1.487-3.141-3.142-8.927-3.638-12.896l-.827-6.942 1.653 6.613c.992 3.637 3.14 9.424 5.126 12.896 1.82 3.307 2.646 6.117 1.82 6.117-.661-.001-2.646-2.647-4.134-5.788zm318.425-4.96c0-6.281.331-8.762.66-5.29.33 3.308.33 8.597 0 11.573-.329 2.81-.66.166-.66-6.283zm-555.507.827c0-4.96.331-7.108.661-4.464.329 2.48.329 6.447 0 9.094-.33 2.478-.661.33-.661-4.63z"/><path fill="#fff" d="M756.412 102.659c-10.25-5.455-17.193-10.912-18.685-15.209-3.307-8.268-4.133-12.399-2.313-11.242.825.496 2.148 3.472 2.646 6.613.993 5.618 10.746 15.87 15.046 15.87.827 0 3.474 1.488 5.787 3.308 4.96 3.967 4.133 4.133-2.481.66zm28.934-3.306c-3.638-5.621-15.047-14.053-25.131-18.518-2.646-.99-4.629-2.646-4.629-3.471 0-1.654 15.539 6.612 25.296 13.392 4.464 3.142 10.415 12.399 8.926 13.888-.495.496-2.48-1.819-4.462-5.291zM39.875 74.388c0-15.539.496-28.766 1.157-29.262 1.157-.66.827 46.621-.331 54.393-.33 1.818-.661-9.424-.826-25.131zM253.48 92.905c0-5.455.331-7.438.661-4.464.329 2.978.329 7.439 0 9.919-.329 2.481-.661 0-.661-5.455zm233.115 1.654c0-4.464.331-6.282.66-3.638.331 2.479.331 6.117 0 8.267-.329 1.984-.66 0-.66-4.629zM279.106 97.37c-7.108-1.488-3.472-8.268 6.117-11.408 2.811-.826 5.787-3.307 6.778-5.288 1.487-2.647 2.313-3.142 3.142-1.654 1.653 2.479-6.282 9.754-10.581 9.754-3.803 0-5.125 1.487-3.967 4.3.66 1.982 3.967 2.313 15.707 1.982 13.227-.496 15.045-.827 16.366-3.803 1.156-3.141 1.321-3.141 1.321.33.167 1.983-.496 3.968-1.321 4.463-1.652 1.158-29.594 2.314-33.562 1.324zm229.642-2.811c-1.323-3.14 1.651-4.793 3.307-1.819.661 1.323 4.631 2.646 8.764 3.142 7.109.497 6.942.661-1.819.825-6.945.331-9.59-.331-10.252-2.148zm-333.468-12.4c0-4.793.496-8.268 1.157-7.604 1.156 1.157.827 14.384-.498 15.706-.328.33-.659-3.307-.659-8.102zm189.137 4.297c-.496-1.323-.66-4.133-.329-6.283.496-2.809.826-2.148 1.485 2.479.827 6.286.331 7.773-1.156 3.804zm154.748-.164c3.14-1.486 6.281-3.473 6.941-4.629.661-1.158 1.324-1.158 1.324-.332 0 3.475-2.812 5.787-8.267 6.613l-5.786.993 5.788-2.645zm-14.551-6.613c0-7.109.661-9.094 5.127-13.557 2.812-2.978 6.446-5.457 7.937-5.457 3.142 0 8.598 6.781 10.416 12.896 1.984 6.117-.496 4.133-3.307-2.809-2.646-6.78-5.619-8.928-9.754-7.275-3.307 1.158-7.438 8.928-7.605 14.055 0 2.148-.66 5.289-1.323 7.108-.828 2.148-1.324.66-1.491-4.961zm203.192 3.967c-.165-2.479 1.157-5.456 2.646-6.612 2.151-1.819 2.48-1.819 1.488-.168-.827 1.324-1.984 4.301-2.646 6.613l-1.324 4.464-.164-4.297zm-229.644-5.621c-.495-11.903-4.793-19.013-15.045-24.138-4.63-2.314-8.929-4.795-9.424-5.291-2.313-2.314 12.068 2.811 16.202 5.621 5.786 4.133 9.919 15.376 9.093 24.8l-.659 7.274-.167-8.266zm97.05 3.306c-4.3-2.148-8.101-5.289-8.433-6.943-1.983-7.77 6.117-15.208 13.723-12.398 1.817.826 5.456 4.959 7.771 9.424 5.291 9.754 7.771 10.746 10.085 4.629l1.653-4.629-.33 4.959c-.329 4.134-.992 4.961-4.463 4.961-2.979 0-4.96-1.653-7.606-6.613-5.125-9.094-6.777-10.746-11.406-10.746-5.289 0-8.434 5.621-5.952 10.913.991 2.147 2.479 3.967 3.472 3.967.827 0 3.966 1.487 6.942 3.308 7.604 4.625 3.802 3.963-5.456-.832zm-262.543-.164c-.331-7.109-5.291-18.188-9.591-21.66-2.479-1.982-3.968-4.299-3.141-4.961 3.475-3.471 15.21 18.686 13.725 26.125-.663 3.637-.663 3.637-.993.496zm28.436-5.621c0-4.961.33-7.109.661-4.465.329 2.479.329 6.447 0 9.094-.33 2.48-.661.33-.661-4.629zm-146.316 5.621c-1.819-1.653-1.653-12.566.331-15.541.827-1.322 1.653-1.984 1.984-1.653 1.157 1.653-1.158 18.352-2.315 17.194zm60.676-6.448c2.313-8.267 4.133-11.077 10.746-17.192 7.936-7.439 19.344-10.25 27.278-6.613 2.646 1.156 1.984 1.322-3.307 1.156-11.573-.33-13.394.166-20.666 5.953-6.448 5.125-13.062 15.21-13.227 20.336 0 .991-.661 2.314-1.653 2.977-.824.493-.494-2.483.829-6.617zm172.934 5.126c-1.488-1.654-1.488-5.787-.331-15.047.827-6.944 1.984-13.061 2.48-13.723.661-.496 4.794-1.322 9.26-1.984 9.589-1.156 9.422.168-.498 2.48-7.604 1.983-8.926 4.463-9.258 19.344-.166 5.785.496 8.266 2.811 9.424 2.479 1.486 2.479 1.652.165 1.818-1.488.002-3.638-.99-4.629-2.312zm60.179-4.795c1.322-4.299 4.3-10.416 6.613-13.557 5.125-6.613 16.202-12.4 23.313-12.233 4.299.165 4.299.329-1.653 1.653-11.573 2.809-25.792 15.705-25.792 23.475 0 1.158-1.157 3.638-2.479 5.458-1.985 2.809-1.985 2.147-.002-4.796zm125.817 4.299c-.992-2.313-.826-2.48.827-.992 2.646 2.645 8.101-.166 8.101-4.465 0-1.652 1.982-5.455 4.3-8.266 3.472-3.967 5.456-4.961 9.424-4.629 6.117.66 12.231 7.936 10.085 12.398-1.157 2.479-1.322 2.314-1.983-1.652-.66-5.621-7.272-10.416-11.243-8.103-1.484.827-4.629 5.127-7.107 9.591-4.634 8.762-10.42 11.573-12.404 6.118zm158.385-5.787c-3.307-5.951-6.116-8.926-8.597-9.258-4.793-.662-8.596 2.314-8.596 6.777 0 2.646-.498 2.979-1.82 1.653-2.811-2.81 2.314-10.086 7.606-11.405 5.289-1.322 8.763 1.485 12.729 10.578 1.652 3.805 3.804 6.944 4.631 6.944.991 0 1.653.826 1.653 1.651 0 3.806-2.978 1.161-7.606-6.94zm10.251 4.959c.33-2.149.165-8.763-.331-14.88l-1.156-11.242h-5.456c-2.977 0-5.786-.496-6.282-1.322-.331-.662 2.149-.992 5.786-.662 3.472.332 6.943 1.324 7.439 2.314 1.652 2.646 3.969 24.305 2.977 26.949-1.489 3.803-3.805 2.977-2.977-1.157zM97.575 75.876c0-5.455-2.647-8.267-9.424-10.086-8.101-2.15-5.952-6.943 4.464-10.086 4.96-1.486 10.747-3.638 12.896-4.793 5.787-3.142 4.298-.826-2.149 2.977-3.141 1.818-8.267 3.803-11.573 4.463-7.109 1.323-7.606 4.961-.994 6.447 2.647.496 5.622 1.982 6.613 2.976 2.647 3.308 3.968 10.581 1.984 11.74-1.155.826-1.817-.661-1.817-3.638zm36.703-.33c0-3.141.329-4.465.827-2.812.329 1.487.329 4.134 0 5.786-.497 1.489-.827.167-.827-2.974z"/><path fill="#fff" d="M437.327 75.38c.659-2.148 2.646-6.447 4.463-9.26 3.805-6.446 8.764-7.109 15.211-1.982 3.306 2.646 4.3 4.793 4.133 9.422l-.165 6.117-1.82-7.439c-1.818-6.613-2.479-7.438-7.108-7.936-4.135-.331-6.117.496-8.764 3.968-1.817 2.479-3.472 5.456-3.472 6.613 0 1.155-.827 2.646-1.82 3.306-1.319.664-1.485-.164-.658-2.809zm-164.503-3.471c0-4.793 6.613-11.242 11.573-11.242 3.472 0 7.439 4.464 9.093 9.92.992 3.637.66 3.474-2.148-.992-1.82-2.977-4.3-5.621-5.621-6.117-3.472-1.157-8.103 1.982-10.416 7.604-2.316 5.29-2.316 5.29-2.481.827zm413.489 1.653c-.166-1.486-1.819-3.967-3.803-5.289-2.977-2.15-3.143-2.646-.994-2.646 3.142 0 6.944 5.787 5.621 8.763-.328 1.156-.824.825-.824-.828zm-569.89-1.489c-.496-.992-.166-2.646.827-3.637 1.324-1.322 1.82-.826 1.82 1.818-.003 3.969-.828 4.63-2.647 1.819zm596.839-.66c.167-.826 3.638-1.486 7.438-1.157 8.929.661 11.74-1.653 11.74-10.248.166-7.275 2.149-5.787 3.967 3.139.993 4.465.496 5.291-4.299 7.275-6.116 2.809-19.838 3.47-18.846.991zM175.28 69.098c0-1.983.827-3.474 1.653-3.474.992 0 1.653.994 1.653 2.313 0 1.321-.662 2.978-1.653 3.474-.827.498-1.653-.494-1.653-2.313zm422.745.331c-.659-.496-1.154-3.307-.992-6.115l.166-5.127 1.487 5.621c1.656 5.455 1.325 7.769-.661 5.621zm-464.408-2.315c-.496-1.488-3.968-2.646-9.093-2.977-4.794-.33-2.149-7.938 3.968-11.904 4.133-2.646 7.769-7.273 10.912-13.557 4.464-8.928 5.125-9.59 9.919-9.094 2.811.332 5.291 1.487 5.787 2.646.496 1.488-.331 1.653-3.307.498-5.621-2.15-9.258.495-10.581 7.271-.66 3.638-2.976 7.274-6.282 9.92-2.811 2.313-6.117 4.961-7.109 5.953-2.314 1.818-2.976 6.613-.827 6.115 2.646-.658 8.597 2.315 8.597 4.631 0 2.647-1.158 3.143-1.984.498zm231.13-8.927c.33-5.457 2.313-12.896 4.134-16.533 4.133-7.936 12.067-15.707 16.202-15.707 5.29 0 10.415 7.44 11.406 16.864.992 7.108 1.819 8.929 4.464 9.259 2.646.33 3.968-1.486 7.44-10.746 7.272-20.006 7.272-23.313-.827-22.32-2.978.33-3.141.33-.33-1.321 1.486-.992 4.298-1.323 6.117-.827 3.966 1.323 4.629 9.92.991 14.88-1.157 1.82-3.472 7.109-4.959 11.903-3.143 9.424-5.952 12.564-10.416 11.738-2.314-.495-3.143-2.646-3.968-11.075-.66-7.606-1.984-11.244-4.135-12.897-9.424-6.943-20.17 4.135-24.634 25.297l-2.313 11.405.828-9.92zm250.144 3.802c.661-4.63.994-4.793 1.488-1.486.33 2.148 0 4.464-.827 5.291-.993.99-1.157-.5-.661-3.805zm-413.159 2.975c0-.33 2.976-2.15 6.613-4.133 6.778-3.475 8.597-2.479 3.966 2.148-2.147 2.315-10.579 3.805-10.579 1.985zm139.87-4.299c2.479-12.729 13.557-34.885 15.21-30.09.331.993-.992 3.308-2.811 5.127-1.984 1.983-3.473 4.961-3.473 6.612 0 1.819-.662 3.638-1.487 4.134-.66.496-2.313 4.465-3.473 8.764-2.644 9.588-5.455 13.555-3.966 5.453zm330.493 2.812c-.826-1.983-.497-3.968.992-5.456 2.811-2.646 14.88-5.456 12.233-2.646-.827.994-3.474 1.983-5.786 2.314-2.646.33-4.301 1.818-5.127 4.629-.99 3.638-1.157 3.804-2.312 1.159zm31.247-4.63l-1.157-6.779-7.604.826c-6.944.826-7.275.662-3.474-1.486 7.605-4.133 11.242-2.976 13.393 4.133l1.983 6.447 6.117-6.447c6.115-6.446 11.406-8.101 16.533-4.793 1.817 1.156 1.155 1.652-3.308 1.819-3.142.165-6.779.496-7.771.496-1.157.165-3.968 2.976-6.283 6.446-2.313 3.307-4.959 6.117-5.786 6.117s-2.149-3.142-2.643-6.779zM737.4 62.98c0-2.647 8.596-10.251 13.723-12.069 2.646-.992 7.108-1.819 9.92-1.651 4.299.164 3.638.495-3.475 2.313-5.786 1.321-10.746 3.967-14.549 7.605-3.139 2.975-5.619 4.63-5.619 3.802zM114.438 52.069c-1.984-1.982-6.613-4.793-10.417-6.283-8.596-3.14-11.242-8.432-6.446-13.227 1.819-1.818 4.96-3.307 7.109-3.139 3.307.164 3.307.164-.827 1.652-8.928 3.307-7.44 12.068 2.314 13.393 12.729 1.982 19.509-9.26 8.267-13.393-2.48-.826-3.307-1.652-1.984-1.652 3.966-.168 9.919 4.629 9.919 7.936s-4.959 8.432-7.936 8.432c-2.978 0-2.314 1.653 1.818 4.961 1.984 1.652 3.307 3.474 2.646 3.968-.494.493-2.478-.664-4.463-2.648zm481.605 2.149c-.497-.992-3.969-1.818-7.439-1.818-3.474 0-6.944-.66-7.439-1.652-.661-.992 1.818-1.323 6.941-.659 7.938 1.155 11.904 2.976 10.087 4.793-.497.658-1.488.328-2.15-.664zm19.014.166c0-2.811 3.966-4.961 11.075-5.621 8.267-.66 7.771 1.486-.827 2.977-3.307.66-7.109 1.819-8.1 2.811-1.487.989-2.148.989-2.148-.167zM20.366 48.267c0-3.639.331-4.961.662-2.811.329 1.982.329 4.959 0 6.612-.496 1.489-.827-.165-.662-3.801zm155.409-.166c1.984-2.314 4.794-7.273 6.282-11.076 2.48-6.283 3.307-6.943 8.267-6.943h5.621l.827 11.242c.496 6.116.331 11.076-.331 11.076-1.819 0-3.472-7.771-2.48-11.406.992-4.133-1.653-8.434-5.291-8.434-2.811 0-6.778 5.954-6.778 10.416-.167 2.646-5.954 9.424-8.102 9.424-.99-.001-.164-1.985 1.985-4.299zM19.043 37.52c-.662-1.817-3.968-5.29-7.607-7.771-4.462-2.977-6.446-5.455-6.446-8.103 0-2.147.827-3.967 1.653-4.133.992 0 11.904-.167 24.303-.167 19.673 0 22.979.331 24.469 2.813 1.322 2.147.496 3.801-4.3 7.936-3.307 2.977-6.779 6.779-7.769 8.597-1.82 3.142-1.82 3.142-1.984-.331 0-2.479 2.149-5.125 6.446-8.1 11.077-7.273 7.938-8.928-16.203-8.928-21.989 0-27.112 1.158-23.477 5.457.994 1.324 3.637 2.977 5.787 3.473 3.637.827 8.928 10.251 6.944 12.068-.327.496-1.154-.828-1.816-2.811zm204.348-.496c-1.157-1.488-4.133-2.813-6.446-3.142-3.141-.329-4.631-1.653-4.96-4.134-.332-2.148.329-3.803 1.321-3.803s1.486.661.826 1.487c-.993 1.817 1.984 4.133 6.283 4.299 3.803.33 6.613 3.308 5.787 5.786-.497 1.491-1.324 1.326-2.811-.493zm2.48-14.384c4.629-1.652 10.086-3.803 12.069-4.793 4.464-2.479 10.087.33 10.087 4.961 0 3.473 0 3.473-2.976-.168l-2.979-3.803-9.92 3.638c-5.456 1.819-11.075 3.472-12.399 3.308-1.322-.001 1.489-1.489 6.118-3.143zm136.231.827c2.149-2.646 10.747-6.778 17.36-8.433 7.438-1.652 3.472 1.486-5.456 4.299-4.301 1.488-7.607 3.307-7.44 4.301.166.826-1.157 1.818-2.978 1.818-2.644.33-2.974-.166-1.486-1.985zm32.074-6.613c-2.977-2.149-2.977-2.313.661-1.323 1.983.496 4.134 1.488 4.63 2.315 1.322 2.315-1.654 1.817-5.291-.992z"/><path fill="#fff" d="M507.095 133.411c-7.109-4.465-10.912-9.094-15.54-19.344-12.234-26.617 2.811-61.172 27.61-63.32 6.612-.66 14.88 3.142 14.88 6.779 0 1.818 1.652 3.803 3.803 4.629 2.479.992 4.298 3.967 5.951 9.424 1.322 4.463 2.977 8.927 3.803 10.086.827 1.158.827 2.314-.329 2.977-.826.495-1.653 2.811-1.653 4.96 0 2.147-.66 4.463-1.652 4.959-3.308 1.983-30.257.994-31.579-1.155-2.313-3.638-.827-4.962 5.786-5.457 6.281-.33 9.92-3.307 8.434-6.943-.331-1.155 0-2.479.992-3.141 3.637-2.148-4.96-17.193-9.92-17.193-1.488 0-5.125 2.479-8.102 5.455-4.961 5.127-5.288 5.955-4.299 14.385.661 4.96.992 13.723.826 19.344-.165 9.424.331 10.746 5.456 16.037 6.944 7.439 12.069 7.605 21.823.659 5.291-3.804 7.771-4.793 9.094-3.472 1.322 1.319 1.157 2.811-.166 5.455-2.978 5.621-10.25 13.227-12.234 12.896-.991-.166-3.307.498-5.125 1.323-6.287 3.468-13.063 3.633-17.859.657zm64.149 1.652c-.497-.658-4.464-1.322-9.094-1.322-11.077 0-13.724-2.313-12.729-11.406.331-3.967.166-7.605-.661-7.938-1.818-1.322 1.653-10.746 4.134-10.746.993 0 3.307 2.646 4.959 5.787 1.654 3.141 5.954 7.605 9.59 10.086 5.29 3.637 7.274 4.299 10.746 2.977 11.244-3.969 8.599-12.565-6.446-21.161-11.076-6.448-17.854-11.408-17.854-13.558 0-.662-1.157-2.479-2.646-4.134-2.313-2.647-2.479-3.968-.495-11.243 2.479-10.086 6.612-15.046 16.531-19.674 8.103-3.968 12.234-4.464 13.89-1.982.495.992 3.802 1.652 7.271 1.652 7.937 0 9.92 2.148 8.928 9.92-.495 3.473-.167 6.613.826 7.273 2.313 1.486-.993 11.242-3.637 10.416-.992-.33-3.803-4.133-6.282-8.598-2.314-4.463-5.954-8.597-7.771-9.424-7.604-2.81-15.706 4.631-13.723 12.399.659 2.647 14.55 11.077 18.353 11.077 2.313 0 15.047 13.062 15.047 15.376 0 1.157 1.155 3.968 2.479 6.612 2.149 4.301 1.982 5.127-2.313 12.399-2.48 4.134-6.943 9.093-9.92 10.913-6.122 3.473-18.028 6.119-19.183 4.299zm185.168 0c-.497-.658-4.134-1.322-8.267-1.156-9.92.498-12.07-2.148-12.896-15.707-.659-8.596-.165-11.738 1.652-13.227 2.646-2.148 2.979-1.818 10.913 9.424 6.446 8.928 18.846 11.408 22.65 4.135 2.313-4.135-.827-10.912-6.448-13.724-18.682-9.754-24.303-14.384-25.956-21.657-.496-2.812-1.818-6.117-2.646-7.111-2.314-2.809 1.817-11.405 8.432-17.688 5.456-5.126 22.815-10.417 25.626-7.604.994.992 4.134 1.651 7.109 1.651 5.29 0 5.458.331 5.785 7.109.827 15.707.827 20.17.168 21.327-.993 1.983-6.282-3.969-8.598-9.754-4.464-11.075-13.557-13.393-19.179-4.961-2.314 3.475-2.314 4.465 0 9.095 1.486 2.811 4.299 5.62 6.283 6.282 7.604 2.313 20.666 12.069 24.469 18.188 6.778 11.075 1.983 25.955-10.416 31.741-8.595 3.97-17.358 5.788-18.681 3.637zm-745.965-1.818c-3.472-3.473-2.48-7.936 2.645-10.416 2.646-1.486 5.125-3.471 5.621-4.629.331-1.154.827-14.382.992-29.428.167-15.045.661-32.24.994-38.357.825-13.557-1.324-20.83-6.78-22.153-2.149-.496-4.793-2.147-5.787-3.474-3.635-4.299 1.488-5.455 23.477-5.455 24.303 0 27.279 1.652 16.037 9.093-6.117 3.969-6.448 4.795-5.622 9.92.662 3.307.331 5.953-.66 6.612-1.322.826-1.653 12.234-1.488 35.216.331 33.065.496 34.224 4.133 37.86 5.291 5.291 13.393 4.959 20.997-.662 3.307-2.645 6.448-5.95 6.944-7.438.66-1.653 2.149-2.978 3.472-2.978s2.314-.991 2.314-2.313c0-2.979 8.1-9.591 10.085-8.268 2.48 1.486 1.653 9.921-1.984 17.855-1.818 4.299-3.472 10.416-3.635 13.559-.331 6.613-1.984 7.271-13.557 6.115-12.403-1.156-47.453-1.156-52.082.166-2.48.829-4.959.333-6.116-.825z"/><path fill="#fff" d="M90.135 132.253c-3.306-2.479-3.306-2.479-.167-4.299 8.102-4.959 8.434-5.951 8.102-25.957-.166-10.91.331-20.498 1.488-22.483 2.48-5.291-1.488-12.567-8.101-14.55-7.274-1.983-6.944-5.29.496-6.779 3.307-.496 8.928-2.977 12.566-5.125l6.613-4.301 4.133 3.968c3.307 3.142 3.966 4.795 3.14 9.589-.66 3.143-1.486 16.037-1.984 28.438-1.156 27.113.331 34.059 7.771 35.546 6.282 1.157 7.109 2.646 3.307 6.116-2.313 2.15-3.966 2.313-7.44.992-5.62-2.147-22.979-2.147-24.965-.164-.991.993-2.974.663-4.959-.991zm53.567.166c-3.966-2.149-5.456-4.629-8.926-14.715-1.322-3.967-1.488-29.429-.167-43.316.827-9.422.662-10.248-2.809-11.405-1.984-.827-4.133-1.157-4.795-.993-2.149.497-1.488-4.299.827-6.115.992-.993 4.299-3.639 7.109-5.955 3.307-2.645 5.621-6.281 6.283-9.92 1.324-6.444 5.126-9.258 10.086-7.438 2.646.827 3.472 3.142 4.133 9.92l.827 8.763 9.92.168c7.936.164 10.416-.496 12.73-3.143 1.653-1.818 2.809-4.133 2.976-5.29 0-4.463 3.966-10.416 6.779-10.416 3.637 0 6.282 4.302 5.291 8.435-.496 1.652-.496 4.793.165 7.108.827 3.472 1.653 3.804 7.938 3.14 5.62-.66 7.769-.164 10.085 2.479 1.653 1.819 2.479 3.638 1.653 4.133-8.928 5.291-14.219 7.607-15.707 6.781-.992-.662-2.314-.168-2.976.826-1.488 2.479-.827 46.292.827 50.258 1.653 3.805 6.613 3.638 10.58-.659 3.307-3.638 6.78-3.142 6.78.992 0 5.127-6.944 15.376-11.74 17.525-7.44 2.978-16.202.33-20.666-6.283-4.133-6.282-6.283-27.444-4.299-42.159.827-5.619.827-10.085-.165-11.075-.827-.826-.662-1.82.329-2.479.993-.662 1.82-2.314 1.82-3.639 0-3.803-21.162-3.307-24.14.659-2.809 3.476-3.14 37.199-.496 44.808 2.149 5.951 6.283 6.777 9.424 1.817 2.48-3.967 5.787-4.299 8.597-.825 1.819 2.147 1.486 3.307-1.488 6.281-1.819 2.151-3.472 4.631-3.472 5.621 0 3.143-9.424 8.764-14.383 8.598-2.483-.173-6.615-1.165-8.93-2.487zm78.696.992c-.661-.992-1.653-1.321-2.48-.826-3.637 2.148-3.307-3.141.496-7.108 2.149-2.479 4.96-6.117 5.952-8.103 2.314-4.629 2.314-13.227 0-14.549-1.156-.826-1.653-12.399-1.323-35.051.331-30.75 0-34.057-2.48-35.545-1.653-.827-3.307-1.156-3.803-.66-.661.496-1.984.166-3.307-.826-2.811-2.313.166-6.779 3.637-5.455 1.323.496 6.944-.662 12.565-2.647l10.416-3.804 2.979 3.804c2.645 3.142 2.809 5.621 2.147 17.194-.661 7.272-1.321 26.453-1.819 42.324-.826 31.248.993 41.662 7.771 43.813 3.638 1.155 4.134 4.629.994 7.108-1.488 1.324-5.291 1.324-13.227-.166-8.597-1.487-11.904-1.321-14.383.166-1.985 1.157-3.473 1.323-4.135.331z"/><path fill="#fff" d="M277.784 133.577c-1.322-.994-3.803-1.82-5.456-1.82-3.968 0-11.243-8.764-14.88-18.02-3.141-7.771-4.3-27.611-1.819-34.061 5.621-15.375 13.394-24.303 23.477-27.111 6.779-1.82 20.171-.331 20.171 2.479 0 1.156 1.486 2.977 3.473 3.967 5.952 3.307 12.729 24.635 9.92 31.744-1.323 3.471-2.48 3.802-16.366 4.298-11.74.331-15.047 0-15.706-1.981-1.157-2.812.165-4.299 3.968-4.299 4.629 0 12.234-7.273 10.416-10.086-.827-1.322-1.486-4.464-1.653-6.943-.328-5.455-4.96-11.076-8.927-11.076-1.652 0-4.794 1.486-7.107 3.474-4.465 3.308-4.465 3.635-4.465 20.499.165 26.783 3.473 34.389 16.036 37.199 4.96 1.156 6.446.826 8.928-2.149 1.652-1.983 2.976-4.464 3.141-5.456 0-1.156 1.486-2.313 3.307-2.811 2.48-.661 3.639.165 4.3 3.307 1.156 4.464-2.479 10.581-9.59 15.872-4.966 3.634-17.531 5.453-21.168 2.974zm94.899-.662c-2.809-1.157-6.778-3.474-9.093-5.291-6.446-5.291-16.035-20.996-17.359-28.105-.66-3.638-1.817-8.432-2.646-10.746-1.653-4.299-2.314-21.658-.992-24.304.496-.66 1.819-4.793 2.977-9.259 1.157-4.299 2.812-8.268 3.473-8.764.825-.494 1.487-2.313 1.487-4.133 0-1.652 1.486-4.63 3.308-6.447 1.817-1.818 3.306-4.465 3.306-5.787 0-2.646 6.446-5.951 8.763-4.629.661.33.992-.166.827-1.322-.331-1.322 2.646-3.307 7.274-4.795 4.299-1.322 8.267-2.977 8.926-3.637 1.818-1.982 8.102-1.486 10.251.66.991.992 5.455 1.984 9.919 2.149 13.06.329 13.228 1.157 5.291 22.815-3.474 9.26-4.795 11.076-7.438 10.746-2.647-.33-3.475-2.15-4.466-9.259-.993-9.424-6.116-16.864-11.406-16.864-4.134 0-12.069 7.938-16.533 16.368-2.977 5.952-3.636 10.25-4.133 25.626-.165 10.085 0 19.014.497 19.672.495.827.991 4.465 1.322 8.268.496 7.273 5.29 19.345 7.771 19.345.826 0 3.307 1.983 5.456 4.629l3.966 4.463 7.438-3.966c6.78-3.475 12.567-10.25 16.202-18.684 1.325-3.308 3.475-3.637 7.938-1.323 2.81 1.487 2.81 2.149.496 8.598-1.322 3.968-3.142 7.771-3.969 8.599-.825.99-1.485 4.133-1.485 7.107 0 3.473-.993 5.952-3.142 6.944-4.963 2.814-28.439 3.64-34.226 1.326zm60.51-.332c-12.233-4.463-15.706-21.492-6.612-32.568 5.126-6.283 19.179-14.549 24.8-14.549 9.589 0 13.556-15.045 5.619-21.326-6.446-5.127-11.405-4.464-15.21 1.982-1.818 2.811-3.967 7.438-4.462 9.92-.827 3.141-2.151 4.463-3.969 4.133-3.142-.66-4.299-10.416-2.148-20.336 1.321-6.445 1.485-6.613 11.242-8.926 9.589-2.15 10.25-2.15 19.178 2.148 5.127 2.479 10.581 6.282 12.07 8.764 2.977 4.629 5.125 19.508 6.446 44.309.661 13.722.993 15.046 5.127 18.353 5.619 4.462 4.792 9.753-1.157 7.44-1.983-.662-5.953-.827-8.763-.168-2.811.662-7.439.826-10.251.496l-5.127-.826.662-13.393c.826-18.352.661-22.814-.331-24.469-3.142-5.127-16.202 3.967-18.848 13.061-2.479 7.938 0 14.551 6.114 17.193 8.103 3.637 8.93 6.612 2.979 9.258-5.124 2.481-9.753 2.317-17.359-.496zm187.815 0c-1.653-1.321-3.637-1.982-4.464-1.652-.659.496-2.812-1.322-4.629-3.967-4.135-5.785-4.631-17.856-.992-24.799 2.646-5.291 15.706-14.054 23.146-15.707 12.068-2.646 13.556-3.967 13.227-11.739-.33-13.886-11.407-18.847-19.674-8.927-2.316 2.81-4.3 6.447-4.3 8.1 0 4.134-5.457 7.109-7.938 4.63-2.479-2.479-2.646-10.747-.165-12.069.992-.658 1.488-3.472 1.157-6.117-.496-5.618 0-6.114 12.896-10.084 8.763-2.812 10.747-2.479 25.461 5.289 6.116 3.142 8.764 13.062 9.589 37.199.827 23.146 2.812 32.24 7.44 32.57 10.415.992 12.729.496 14.712-3.307 3.142-5.621 2.315-49.271-.991-54.56-.661-.993-3.307-1.653-5.621-1.487-3.803.496-4.463-.166-4.463-3.638 0-2.811.992-4.299 3.307-4.629 1.819-.331 5.62-1.653 8.597-2.978 2.811-1.321 7.273-2.313 10.087-2.313 4.464 0 4.96.661 5.951 6.613.496 3.637 1.819 6.612 2.646 6.612s3.473-2.811 5.786-6.282c3.636-5.621 4.793-6.117 12.896-6.613l8.762-.496-.661 7.109c-.992 10.086-2.809 11.737-11.406 10.582-6.447-.827-7.273-.498-8.762 2.976-.827 2.149-2.315 4.465-3.307 5.125-.994.496-1.653 3.803-1.653 7.109-.167 3.307-.498 11.902-.994 19.013-.992 13.394 1.488 20.997 6.613 20.997 3.142 0 4.629 4.464 2.148 6.117-1.155.66-7.108.99-13.227.66-6.282-.166-13.393.33-16.202 1.486-3.637 1.653-5.291 1.653-7.109.168-1.321-1.158-2.811-1.324-3.141-.662-1.323 2.148-19.673 1.488-23.807-.826-3.638-1.983-3.803-3.143-3.803-19.344 0-15.539-.331-17.358-3.307-19.014-4.301-2.313-8.434-.165-14.054 7.275-7.11 9.258-4.301 22.484 4.96 24.138 6.941 1.157 7.272 5.786.66 8.101-6.941 2.484-11.568 2.154-15.371-.659zM105.511 44.628c-9.259-1.485-10.25-10.416-1.323-13.555 8.597-2.979 18.019 2.313 15.54 8.762-.827 2.149-1.982 2.812-8.1 4.793-.826.332-3.637.332-6.117 0z"/><path fill="#020202" d="M1028.38 263.029c-31.247-1.819-96.886-9.424-98.869-11.407-.659-.659 2.812-1.157 38.522-4.961 34.223-3.637 68.612-9.752 68.612-12.067 0-.66-10.581-2.479-23.644-4.134-59.354-7.272-121.188-24.469-151.772-42.159l-8.267-4.793 33.562-1.156c41.167-1.323 78.531-3.638 111.269-6.78 153.26-15.046 277.755-51.748 296.105-86.964 9.258-18.021-9.424-35.05-49.27-45.135-34.554-8.763-74.895-12.563-136.893-12.563-72.912 0-116.558 5.455-152.104 19.18-19.345 7.438-31.412 18.515-31.412 29.098 0 19.344 37.198 43.15 85.971 54.725 9.59 2.314 20.336 4.959 23.973 5.785 5.787 1.488 4.63 1.654-9.093 1.82-62.66.66-121.685-14.383-147.312-37.529-9.919-8.928-13.06-14.549-13.06-23.477 0-9.26 3.473-15.376 13.556-23.313 21.991-17.193 56.874-29.1 114.575-38.687 23.313-3.967 52.408-6.117 94.403-6.944 50.921-.992 82.83.497 127.138 6.117 92.418 11.74 149.126 38.854 141.356 67.62-3.638 13.558-28.768 34.39-59.021 48.938-7.607 3.637-13.723 7.108-13.723 7.936s1.321.994 2.976.498c1.486-.498 6.283-1.654 10.416-2.48 21.989-4.795 50.591-16.037 63.817-24.967 3.968-2.811 7.605-4.959 8.101-4.959 1.323 0 .662 20.5-.991 34.223-3.307 25.793-11.74 52.08-22.649 70.267l-5.621 9.424-16.037 4.959c-44.97 13.885-97.214 23.97-155.74 30.087-29.428 3.137-111.76 5.287-138.874 3.798zm-587.417-6.282c-3.472-1.323-7.771-3.639-9.423-5.127-4.465-3.966-7.11-13.226-6.117-20.83 1.983-15.211 13.06-21.328 38.686-21.328h15.378v-4.959c0-7.771-4.301-16.366-9.094-18.188-2.479-.992-8.764-1.652-14.053-1.652-8.103 0-10.581.66-14.88 4.301l-5.127 4.463-4.134-3.967-3.967-3.805 3.473-3.804c6.117-6.284 16.532-9.26 29.43-8.435 12.565.994 20.17 4.302 25.626 11.74 3.141 4.299 3.474 7.109 3.968 38.521l.496 33.893-6.283-.498c-3.968-.328-6.117-1.321-5.786-2.479.496-2.977-2.313-2.646-7.108.498-5.623 3.639-23.148 4.632-31.085 1.656zm32.074-13.888c4.63-4.134 5.29-5.787 5.456-13.723l.167-8.929-15.541-.496c-11.903-.33-16.367.168-19.509 2.149-8.434 5.621-8.928 18.683-.827 23.146 2.48 1.321 9.095 2.313 14.713 2.479 9.093.003 11.078-.658 15.541-4.626zm110.936 12.069c-6.446-3.308-9.753-6.446-13.227-12.068-4.134-7.272-4.463-9.093-4.463-26.948 0-18.353.165-19.344 4.961-27.115 6.612-10.745 14.879-14.879 28.933-14.879 19.672 0 31.082 11.904 32.735 34.06l.825 11.406h-57.206l1.157 7.11c.662 3.803 2.315 8.597 3.638 10.746 6.944 10.745 24.801 13.724 36.042 6.116 5.786-3.967 6.282-3.967 10.25-1.486 5.291 3.636 4.465 5.455-4.794 11.242-11.572 7.107-26.946 7.768-38.851 1.816zm36.043-51.581c-2.314-12.896-8.928-18.848-20.666-19.014-11.573-.33-19.344 6.613-21.492 19.014l-1.158 6.115h44.474l-1.158-6.115zm121.517 54.557c-10.912-2.646-18.517-15.045-16.862-27.278 1.982-14.879 10.085-19.674 35.876-20.996l17.358-.993-.33-5.787c-.167-3.14-.826-7.438-1.322-9.422-2.646-11.076-32.073-12.07-39.184-1.488-.661 1.158-2.811.166-5.456-2.313l-4.3-4.133 4.96-4.463c6.613-5.953 16.863-8.434 29.428-7.439 11.408.826 19.015 4.463 24.305 11.572 3.142 4.299 3.474 7.109 3.968 38.522l.498 33.724h-6.613c-5.291 0-6.447-.495-5.786-2.479 1.322-3.14.826-3.14-7.771.827-6.947 3.138-20.502 4.13-28.769 2.146zm30.586-14.88c4.3-3.967 5.125-5.952 5.456-13.723l.33-9.094-14.879-.496c-16.7-.33-21.991 1.324-25.461 8.598-2.811 6.117-.661 14.384 4.794 17.029 2.313 1.157 8.764 2.148 14.383 2.148 8.929.002 11.078-.659 15.377-4.462zm-261.221-26.949v-41.332h5.787c5.125 0 5.786.498 5.786 4.465 0 3.968.165 4.134 2.976 1.652 7.937-7.271 22.319-9.752 32.404-5.455 7.771 3.307 8.763 5.621 3.803 10.416-3.966 3.967-4.298 4.133-7.936 1.486-6.117-4.133-16.863-3.473-22.815 1.654-7.108 5.951-8.432 12.729-8.432 42.488v25.957h-11.573v-41.331zm134.082 0l-.165-41.332h6.613c5.456 0 6.613.498 6.613 3.308 0 4.133.658 4.133 6.445-.166 2.977-2.147 8.102-3.638 14.383-4.298 12.73-.993 22.981 3.803 28.271 13.556 3.474 6.283 3.805 8.597 3.805 38.522v31.743h-11.242l-.659-30.089c-.33-25.625-.993-30.916-3.475-34.554-7.769-11.573-28.602-10.581-35.048 1.819-1.983 3.804-2.479 11.076-2.479 33.893v28.931H644.98v-41.333z"/></svg><svg data-name="Layer 1" width="66" height="50" viewBox="-1 -1 66 50" x="166.24" y="268" xmlns="http://www.w3.org/2000/svg"><path d="M0 0v8l32 16L64 8V0H0zm0 16v32h64V16L32 32z" fill="#fff"/></svg><svg width="66" height="66" viewBox="-1 -1 130 130" x="66" y="335.51" xmlns="http://www.w3.org/2000/svg"><path fill="#fff" d="M23.521 11.512h44.93c13.359 0 23.601 2.977 30.727 8.93 7.171 5.906 10.757 14.344 10.758 25.313-.001 11.016-3.587 19.5-10.758 25.453-7.126 5.906-17.367 8.859-30.727 8.859h-17.86v36.422h-27.07V11.512m27.07 19.617v29.32h14.977c5.25 0 9.305-1.266 12.164-3.797 2.859-2.578 4.289-6.211 4.289-10.898s-1.43-8.297-4.289-10.828-6.914-3.797-12.164-3.797H50.591"/></svg><svg data-name="Layer 1" width="66" height="66" viewBox="-1 -1 66 66" y="335.51" xmlns="http://www.w3.org/2000/svg"><path d="M32 0l-8 24H0l20 16-8 24 20-16 20 16-8-24 20-16H40z" fill="#0067b1"/></svg><svg width="66.43" height="66" viewBox="-1 1.06 66.43 66" x="99.81" y="268" xmlns="http://www.w3.org/2000/svg"><g fill="#fff"><path d="M52.728 30.893L29.249 54.365c-.457.457-1.025.686-1.711.686-.686 0-1.254-.229-1.711-.686L12.086 40.61c-.477-.483-.726-1.051-.726-1.71s.242-1.229.726-1.712l23.472-23.465c.457-.458 1.025-.687 1.711-.687.686 0 1.253.229 1.711.687l13.754 13.748c.477.477.719 1.051.719 1.71a2.362 2.362 0 0 1-.725 1.712m10.293-7.602l-4.787-4.748c-1.417 1.417-3.142 2.122-5.166 2.122s-3.749-.711-5.166-2.122c-1.417-1.417-2.129-3.142-2.129-5.166 0-2.025.712-3.749 2.129-5.166l-4.748-4.749c-.934-.94-2.083-1.404-3.436-1.404s-2.501.463-3.435 1.404L1.833 37.875c-.941.94-1.411 2.083-1.411 3.442 0 1.352.47 2.501 1.411 3.435l4.748 4.788c1.417-1.417 3.141-2.129 5.166-2.129 2.024 0 3.749.712 5.166 2.129 1.418 1.417 2.123 3.141 2.123 5.166 0 2.025-.705 3.75-2.123 5.166L21.7 64.66c.935.933 2.084 1.403 3.436 1.403 1.352 0 2.501-.47 3.435-1.403l34.45-34.491c.941-.933 1.404-2.083 1.404-3.435 0-1.36-.464-2.503-1.404-3.443"/><path d="M37.27 17.177l12.003 12.004-21.728 21.722-12.004-11.997L37.27 17.177z"/></g></svg><svg data-name="Layer 1" width="53.78" height="44.06" viewBox="-1 -1 53.78 44.06" x="232.24" y="268" xmlns="http://www.w3.org/2000/svg"><path d="M51.78 5a22.23 22.23 0 0 1-5.32 5.52v1.38a30.15 30.15 0 0 1-1.25 8.53 30.81 30.81 0 0 1-3.76 8.13 32.1 32.1 0 0 1-6.06 6.92 27 27 0 0 1-8.48 4.8 31 31 0 0 1-10.62 1.8A29.47 29.47 0 0 1 0 37.29a22.71 22.71 0 0 0 2.56.13 20.78 20.78 0 0 0 13.17-4.53 10.63 10.63 0 0 1-9.92-7.36 13.45 13.45 0 0 0 2 .16 11 11 0 0 0 2.79-.36 10.44 10.44 0 0 1-6.09-3.67 10.25 10.25 0 0 1-2.41-6.75v-.13a10.52 10.52 0 0 0 4.8 1.34 10.6 10.6 0 0 1-3.45-3.78 10.34 10.34 0 0 1-1.28-5.07 10.4 10.4 0 0 1 1.45-5.33 30.08 30.08 0 0 0 9.71 7.83A29.57 29.57 0 0 0 25.53 13a11.79 11.79 0 0 1-.26-2.43 10.23 10.23 0 0 1 3-7.48 10.64 10.64 0 0 1 15 0l.21.22A20.81 20.81 0 0 0 50.33.8a10.3 10.3 0 0 1-4.67 5.85A21.14 21.14 0 0 0 51.78 5z" fill="#fff"/></svg><svg width="45.68" height="32.6" viewBox="-1 89 875.59 614" x="286.02" y="268" xmlns="http://www.w3.org/2000/svg"><path fill="#fff" d="M856.08 185.76c-10.08-37.44-39.6-66.96-77.04-77.04C710.64 90 437.04 90 437.04 90s-273.6 0-342 18C58.32 118.08 28.08 148.32 18 185.76 0 254.16 0 396 0 396s0 142.56 18 210.24c10.08 37.439 39.6 66.96 77.04 77.04 69.12 18.72 342 18.72 342 18.72s273.6 0 342-18c37.439-10.08 66.96-39.6 77.04-77.04 18-68.4 18-210.24 18-210.24s.72-142.56-18-210.96z"/><path fill="red" d="M349.92 527.04L577.439 396 349.92 264.96z"/></svg></svg>