<?xml version="1.0" encoding="UTF-8" standalone="no"?><!DOCTYPE svg PUBLIC "-//W3C//DTD SVG 1.1//EN" "http://www.w3.org/Graphics/SVG/1.1/DTD/svg11.dtd"><svg width="265" height="199" viewBox="0 0 265 199" xmlns="http://www.w3.org/2000/svg" xmlns:xlink="http://www.w3.org/1999/xlink"><svg height="59" width="59" viewBox="0 0 247.47789 247.47764" id="detroit-pistons" y="139.512" xmlns="http://www.w3.org/2000/svg"><path d="M246.478 123.272A123.239 123.239 0 1 1 123.205 0a123.274 123.274 0 0 1 123.273 123.272z" fill="#b3b2b1"/><path d="M242.975 123.272a119.736 119.736 0 1 1-119.77-119.77 119.752 119.752 0 0 1 119.77 119.77z" fill="#003da6"/><path d="M225.259 123.272a102.12 102.12 0 1 1-102.121-102.12 102.144 102.144 0 0 1 102.12 102.12z" fill="#dd0031"/><path d="M123.205 219.533a96.271 96.271 0 0 1-89.658-61.367c17.11 23.375 50.858 39.407 89.658 39.407 38.868 0 72.55-15.965 89.727-39.407a96.598 96.598 0 0 1-89.727 61.367zm0-192.453a96.362 96.362 0 0 1 89.727 61.366c-17.178-23.374-50.859-39.406-89.727-39.406-38.8 0-72.549 15.897-89.658 39.406a96.203 96.203 0 0 1 89.658-61.366zm-96.193 99.156h18.794v-5.995H27.012c.068-2.223.202-4.513.405-6.736 6.736-33.614 47.018-59.413 95.788-59.413 48.703 0 89.12 25.934 95.79 59.413.269 2.223.336 4.513.403 6.736h-18.861v5.995h18.794c-.067 2.29-.135 4.514-.404 6.804-6.669 33.479-47.086 59.346-95.789 59.346s-89.12-25.867-95.789-59.346c-.134-2.29-.27-4.513-.337-6.804zm96.193-105.084a102.12 102.12 0 1 0 102.121 102.12 102.273 102.273 0 0 0-102.12-102.12z" fill="#fff"/><path fill="#fff" d="M80.026 125.9h7.208v32.401h-7.208zM107.712 125.9h-.27c-2.02 0-9.43-.068-10.845 0h-.336c-2.156 0-3.57 1.01-3.907 2.964a1.52 1.52 0 0 0-.135.471c0 .067-.472 6.197.135 7.881.943 2.762 3.233 3.84 5.254 4.379.067 0 .135.135.202.135a1.249 1.249 0 0 1 .471.134 1.416 1.416 0 0 1 .472.337v11.721h-5.928v4.311h7.881c2.695-.067 4.581-1.347 5.255-3.3.134-1.617.202-12.462.067-14.753a2.762 2.762 0 0 0-1.28-2.155 8.453 8.453 0 0 0-1.145-.741c-.404-.27-.943-.404-1.347-.674-1.684-.808-3.57-1.751-3.57-3.907v-1.819h5.658a3.029 3.029 0 0 0 2.694-1.684 7.403 7.403 0 0 0 .54-1.684 4.46 4.46 0 0 0 0-1.347zM138.362 133.242a7.54 7.54 0 0 1 .202-1.953l.202-.135a5.098 5.098 0 0 1 1.01-.068h.135c2.425 0 2.493.741 2.493 5.187v14.685a5.236 5.236 0 0 1-.135 1.078l-.202.202a7.322 7.322 0 0 1-1.213.068 2.361 2.361 0 0 1-1.953-.607c-.54-.539-.54-1.55-.54-2.694zm2.425-7.342a20.72 20.72 0 0 0-4.715.471c-3.503.808-5.255 3.166-5.255 7.208v19.333c0 4.917 3.503 5.928 8.825 5.928 6.466 0 10.104-2.29 10.104-6.265v-20.141c0-6.534-4.176-6.534-8.96-6.534zM166.452 139.709c-3.368-12.53-9.027-13.877-11.25-13.877a8.034 8.034 0 0 0-1.01.068l-.135.134v32.401h7.343v-13.068l5.052 13.068h7.477v-32.4h-7.477zM68.373 140.382h-4.11v-9.43s2.156-.068 2.493 0c.876.067 1.55.404 1.55 1.414.067.27.067 8.016.067 8.016zm2.896-14.482H52.812v.27a4.882 4.882 0 0 0 4.11 4.782v27.483h7.544v-13.809h6.264c3.301 0 5.255-2.155 5.255-5.995v-1.212c-.135-9.162-.472-10.98-4.716-11.52zM128.594 126.034h-16.908v5.052h4.85v27.417h7.41v-27.417h.27a4.334 4.334 0 0 0 3.166-1.145 5.585 5.585 0 0 0 1.28-3.705zM193.599 125.9h-.27c-1.953 0-9.43-.068-10.845 0h-.337c-2.155 0-3.57 1.01-3.907 2.964a2.82 2.82 0 0 0-.067.471c0 .067-.54 6.197.067 7.881a7.035 7.035 0 0 0 5.254 4.379c.068 0 .202.135.27.135a.958.958 0 0 1 .404.134c.27.068.404.27.539.337v11.721h-5.928v4.311h7.814c2.762-.067 4.58-1.347 5.254-3.3.202-1.617.27-12.462.068-14.753a2.869 2.869 0 0 0-1.213-2.155 6.355 6.355 0 0 0-1.212-.741c-.405-.27-.876-.404-1.28-.674-1.684-.808-3.638-1.751-3.638-3.907v-1.819h5.726a2.86 2.86 0 0 0 2.627-1.684 10.716 10.716 0 0 0 .606-1.684 8.877 8.877 0 0 0 0-1.347zM127.314 92.69h1.415c1.954 0 2.56 0 2.492 3.368 0 2.627 0 2.83-.067 4.042v.27a1.53 1.53 0 0 1-.404 1.077.731.731 0 0 1-.606.27h-2.897V92.69zm0 13.203h1.28c1.145 0 3.234.404 3.234 2.56 0 1.01.067 4.311.134 5.524v.538c0 .135.135 1.752.203 2.089.471 1.886 2.02 2.964 4.243 3.233h2.089v-11.519a5.524 5.524 0 0 0-1.348-3.368l-.134-.135a6.328 6.328 0 0 0 1.549-4.58v-1.213c0-8.892-.337-10.778-4.513-11.182h-14.012v31.66h7.208v-13.607zM165.037 87.705h7.006v31.593h-7.006zM104.546 119.433h7.208V92.69h.27a4.17 4.17 0 0 0 3.098-1.145 5.357 5.357 0 0 0 1.28-3.638v-.202H99.83v4.985h4.715zM180.53 119.433h7.208V92.69h.27a4.17 4.17 0 0 0 3.098-1.145 5.357 5.357 0 0 0 1.28-3.638v-.202h-16.57v4.985h4.714zM95.991 114.313h-7.612v-7.746h5.187v-6.871h-5.187v-7.073h7.612v-4.918H81.373l-.067 31.593h14.685v-4.985zM69.72 114.313h-4.042V92.69c2.493-.067 3.032.068 3.099.202.943.27.943 2.021.943 2.156.135 2.425 0 17.244 0 19.265zm2.492-26.608H54.16v.135a4.264 4.264 0 0 0 .943 3.233 4.66 4.66 0 0 0 3.301 1.55v26.608h13.473c3.098 0 5.119-2.56 5.119-6.467V98.012c0-8.016 0-10.172-4.783-10.307zM149.88 94.846a7.54 7.54 0 0 1 .203-1.954l.202-.134a5.099 5.099 0 0 1 1.01-.068h.135c2.425 0 2.492.741 2.492 5.12v14.415a5.234 5.234 0 0 1-.134 1.078l-.202.067a3.73 3.73 0 0 1-1.213.135 2.715 2.715 0 0 1-1.953-.606 4.134 4.134 0 0 1-.54-2.695V94.846zm2.291-7.14a20.957 20.957 0 0 0-4.648.404c-3.503.808-5.187 3.166-5.187 7.073v18.86c0 4.851 3.503 5.861 8.757 5.861 6.332 0 10.037-2.223 10.037-6.062V94.105c.068-6.4-4.109-6.4-8.959-6.4z"/></svg><svg width="30.131" height="64.985" viewBox="0 -8.61 30.131 64.985" id="drink" x="65.68" y="26" xmlns="http://www.w3.org/2000/svg"><path fill="#fff" d="M29.649 9.761a40.753 40.753 0 0 0-.24-13.886l-.407-2.134a2.466 2.466 0 0 0-2.423-2.005H3.552a2.468 2.468 0 0 0-2.424 2.005L.722-4.125a40.728 40.728 0 0 0-.24 13.886L5.76 43.846a8.61 8.61 0 0 1-3.672 8.032 2.467 2.467 0 0 0 1.402 4.497h23.15a2.466 2.466 0 0 0 1.401-4.497 8.61 8.61 0 0 1-3.672-8.032l5.28-34.085zm-8.52 41.679H9.002a13.548 13.548 0 0 0 1.642-8.298L6.25 14.763h17.631l-4.394 28.38-.014.098a13.532 13.532 0 0 0 1.656 8.199zM5.854 9.828c-.124 0-.245.012-.364.029l-.132-.851a35.797 35.797 0 0 1 .211-12.207l.025-.129h18.943l.024.129c.77 4.038.84 8.145.211 12.206l-.127.823H5.854z"/></svg><svg id="facebook" data-name="Layer 1" width="21.23" height="42.01" viewBox="0 0 21.23 42.01" x="95.811" y="26" xmlns="http://www.w3.org/2000/svg"><defs><style>.ccls-1{fill:#fff}</style></defs><title>facebook</title><path class="ccls-1" d="M21.23.31V7H17.4a3.55 3.55 0 0 0-2.85.91 4.26 4.26 0 0 0-.74 2.72v4.77H21l-1 7.47h-6.19V42H6.27V22.85H0v-7.47h6.27V9.85q0-4.69 2.55-7.28A9 9 0 0 1 15.63 0a39.57 39.57 0 0 1 5.6.31z"/></svg><svg width="65.68" height="65.512" viewBox="0 0.685 65.68 65.512" id="gift" y="26" xmlns="http://www.w3.org/2000/svg"><path fill="#fff" stroke="#FFF" stroke-miterlimit="10" d="M15.318 1.565c-4.752.988-8.057 4.196-8.428 8.18-.205 2.22.798 4.79 2.506 6.385l.78.715H6.723c-4.01 0-4.603.122-5.03.973-.427.822-.408 14.642 0 15.372.352.592.853.821 1.949.866l.835.047.093 15.203c.112 17.044 0 15.857 1.43 16.177.983.228 54.076.228 55.06 0 1.429-.32 1.317.867 1.429-16.177l.093-15.204.835-.046c1.096-.047 1.597-.274 1.95-.867.407-.73.426-14.55 0-15.372-.428-.85-1.022-.973-5.032-.973h-3.452l.78-.714c1.708-1.597 2.71-4.166 2.505-6.386-.334-3.709-3.303-6.826-7.555-7.967-1.913-.516-5.068-.516-6.813 0-2.673.807-4.195 1.871-6.275 4.425-1.615 1.992-4.177 6.081-5.55 8.848-.186.411-.39.73-.445.73-.056 0-.26-.318-.445-.73-1.374-2.767-3.937-6.856-5.55-8.848-2.08-2.554-3.64-3.65-6.276-4.41-1.504-.44-4.4-.547-5.94-.227zm3.992 3.193c1.04.137 2.376.73 3.193 1.399 1.169.973 2.803 3.177 4.622 6.203a186.457 186.457 0 0 1 2.023 3.452l.28.577h-4.215c-4.621 0-7.926-.259-9.95-.761-1.522-.395-3.026-1.505-3.787-2.843-.445-.775-.501-1.064-.501-2.402s.055-1.628.5-2.387c.985-1.734 3.082-3.057 5.254-3.314.928-.12 1.207-.107 2.581.076zm32.115.167c1.802.456 3.304 1.55 4.178 3.087.426.744.482 1.05.482 2.371 0 1.338-.056 1.627-.5 2.402-.67 1.156-2.191 2.372-3.436 2.738-1.967.578-3.731.73-9.207.82l-5.328.092.298-.593c.798-1.611 3.88-6.537 4.863-7.74 1.336-1.672 2.19-2.402 3.378-2.889 1.615-.669 3.36-.76 5.272-.288zM24.248 25.51v5.321H5.498V20.19h18.75v5.32zm14.665 0v5.321H28.146V20.19h10.767v5.32zm22.648 0v5.321h-18.75V20.19h18.75v5.32zm-37.35 22.7l.037 14.094H8.468V48.271c0-7.723.056-14.094.13-14.14.075-.06 3.602-.09 7.835-.075l7.722.046.056 14.109zm14.665-.015l.036 14.11H28.146V48.27c0-7.723.055-14.094.13-14.14.074-.06 2.468-.09 5.328-.075l5.215.046.056 14.094zm19.677.015l.037 14.094H42.811V48.271c0-7.723.057-14.094.13-14.14.075-.06 3.602-.09 7.835-.075l7.722.046.055 14.109z" stroke-width=".1"/></svg><svg width="42" height="41.248" viewBox="0 94.875 612 602.248" id="instagram" x="59" y="139.512" xmlns="http://www.w3.org/2000/svg"><path fill="#FFF" d="M306 149.133c80.404 0 89.927.307 121.683 1.756 29.359 1.34 45.303 6.245 55.914 10.368a93.279 93.279 0 0 1 34.624 22.526 93.293 93.293 0 0 1 22.525 34.623c4.124 10.611 9.029 26.555 10.368 55.915 1.449 31.753 1.756 41.276 1.756 121.683 0 80.406-.307 89.927-1.756 121.683-1.34 29.359-6.245 45.302-10.368 55.914a99.719 99.719 0 0 1-57.149 57.149c-10.61 4.124-26.555 9.029-55.914 10.368-31.747 1.448-41.271 1.756-121.683 1.756s-89.932-.308-121.683-1.756c-29.359-1.34-45.303-6.246-55.915-10.368a93.305 93.305 0 0 1-34.624-22.525 93.305 93.305 0 0 1-22.525-34.624c-4.124-10.61-9.03-26.555-10.368-55.914-1.449-31.753-1.756-41.276-1.756-121.683 0-80.407.307-89.927 1.756-121.683 1.34-29.359 6.244-45.302 10.368-55.915a93.308 93.308 0 0 1 22.528-34.625 93.288 93.288 0 0 1 34.624-22.525c10.611-4.124 26.555-9.03 55.914-10.368 31.754-1.449 41.277-1.756 121.683-1.756m0-54.257c-81.78 0-92.039.347-124.152 1.812-32.052 1.463-53.941 6.553-73.095 13.998a147.608 147.608 0 0 0-53.334 34.732 147.607 147.607 0 0 0-34.742 53.335c-7.438 19.155-12.528 41.043-13.985 73.096C5.222 303.961 4.875 314.219 4.875 396s.347 92.039 1.818 124.152c1.463 32.053 6.553 53.94 13.997 73.095a147.603 147.603 0 0 0 34.732 53.335 147.596 147.596 0 0 0 53.335 34.731c19.155 7.444 41.043 12.534 73.095 13.997 32.118 1.466 42.373 1.813 124.152 1.813s92.039-.347 124.152-1.813c32.052-1.463 53.94-6.553 73.095-13.997a153.977 153.977 0 0 0 88.066-88.066c7.444-19.155 12.534-41.044 13.997-73.095 1.466-32.118 1.813-42.373 1.813-124.152 0-81.78-.347-92.039-1.813-124.152-1.463-32.052-6.553-53.941-13.997-73.095a147.61 147.61 0 0 0-34.731-53.334 147.617 147.617 0 0 0-53.339-34.74c-19.155-7.438-41.043-12.528-73.096-13.985-32.113-1.472-42.371-1.818-124.152-1.818h.003z"/><path fill="#FFF" d="M306 241.368c-85.401 0-154.632 69.231-154.632 154.632 0 85.4 69.231 154.632 154.632 154.632 85.4 0 154.632-69.231 154.632-154.632 0-85.401-69.232-154.632-154.632-154.632zm0 255.006c-55.435-.001-100.374-44.94-100.373-100.375 0-55.435 44.94-100.374 100.375-100.373S406.375 340.565 406.375 396c0 55.436-44.939 100.374-100.375 100.374z"/><circle fill="#FFF" cx="466.741" cy="235.259" r="36.134"/></svg><svg width="136.5" height="26" viewBox="68.402 167.127 825.624 152.564" id="little-caesars-arena" xmlns="http://www.w3.org/2000/svg"><path fill="#DC774A" d="M108 241.9c-1.9-.601-1.601-.7 1.5-.4 4.899.601 5.899-.1 6.3-4.399.1-1.9 1.1-5.4 2.2-7.9 2.1-4.7 2.6-9.7 1.1-10.6-1.2-.801-6.1 3.199-6.1 5 0 .8-.601 1.399-1.4 1.399s-1.7.8-2.1 1.8c-1 2.9-7.5 7.2-11.101 7.2-4.3 0-7.699-2.899-8-6.899-.1-1.7.2-3.4.7-3.7s.9 1 .9 2.8c0 4.3 1.5 5.8 6 5.8s8.6-2.899 14-9.7c2.899-3.8 4.7-5.3 6.5-5.3 3.6 0 3.8 2.8 1.1 11.601-1.399 4.3-2.399 8-2.2 8.199.9.9 6.801-3.1 7.601-5.1.7-1.7.899-1.8.899-.4.101 1.7-2.1 4.301-5.5 6.4-1.899 1.1-1.899 1.1.101 2.7 1.6 1.2 1.7 1.5.5 1.6-.9 0-2.101-.5-2.8-1.2-.9-.899-1.301-.699-1.801.5-.699 1.799-4.199 2.099-8.399.599zm43.1-1.4c-2.8-2.5-5.899-9-4.7-10.2.301-.3.801.301 1.2 1.301 1.9 5.899 2.9 7.5 5.7 8.899 1.6.8 4.1 1.5 5.4 1.5 2.8 0 8.3-3.5 8.3-5.3 0-.6 1-2.1 2.1-3.4 1.8-1.8 2-2.5.9-3.8-1.7-2.1-3.7-1.899-5.2.5-1.9 3-4.4 2.5-5.7-1.1-1.2-3.601-1.5-25.5-.3-26.2.4-.3.7 5.5.7 12.8 0 15.2.8 17.4 4.899 13.601 1.801-1.7 3.2-2.2 4.9-1.7 2.1.5 2.4.3 2-1.4-.3-1.1 0-2 .6-2 .7 0 1.101 1.9 1.101 4.9 0 13 14.2 18 20 7 1.1-2.2 2-4.601 2-5.4 0-2.5-2.101-2.8-4.101-.6-1.1 1.2-2.8 2.1-3.8 2.1-2.899 0-5.6-8-3.1-9.5.6-.399 1 .7 1 2.7 0 1.8.5 4 1 4.8.8 1.2 1.3 1.101 3.3-.8 1.3-1.2 3.4-2.2 4.7-2.2 2.2 0 2.2.3 1.7 5l-.599 5.099 2.9-2.1c3.899-2.8 4.2-3.3 4.2-8.5.1-2.399.5-4.2 1-3.899 1.199.699 1 6.199-.301 8.699-.6 1.2-2.3 3.4-3.6 4.9-2.3 2.4-2.5 5.6-.3 4.3.5-.3 1.1-.1 1.5.5.399.601-.5 1-2 1-1.8 0-2.9-.6-3.2-2-.7-2.5-.9-2.5-4.5.5-5.7 4.9-13.9 2.8-17.5-4.3l-2.2-4.4-2 4.101C165.4 243.1 156.9 245.3 151.1 240.5zm79.9.9l-2.5-1.5 3 .7c9.399 2.199 15.1.5 19.8-5.801 2.4-3.3 1.7-8.1-1.1-7.1-1.4.5-1.5.4-.4-.8 1.5-1.601 4.5-.2 5 2.5.6 2.8-4.5 9.399-8.8 11.6-4.6 2.401-11.5 2.601-15 .401zm60.7.6c-7.2-2.2-14.4-11-17.7-21.8-2.2-7.2-2.4-8.6-1.101-7.7.5.3 1.5 3.101 2.101 6.3 1.2 5.9 6.399 14.801 11 18.9 3.399 3 10.1 4.7 15.199 3.9 3-.4 3.9-.301 2.801.399-1.801 1.201-8.4 1.201-12.3.001zm34.6-.6c-6-3-8.3-13.601-4.3-20.2 2.3-3.8 9.8-8.8 15.3-10.3 2.1-.5 4.6-1.2 5.5-1.5 1.399-.5 1.3-.3-.2 1-1.1.899-2.8 1.6-3.8 1.6-3.2 0-11.7 5.101-14.8 8.8-2.4 2.9-3 4.601-3 8.2 0 6.5 2.6 10.2 8.3 11.9 9.1 2.6 16.1-2.4 7.7-5.601-6.301-2.399-6.101-11.899.5-16.899 1.899-1.4 4.199-2.4 5.199-2.2 2 .4 3.5 5.9 2.2 8-.6.8-.899 0-.899-2.4 0-3-.4-3.8-1.801-3.8-2.8 0-6.3 3-7.8 6.7-2 4.6-.2 8.1 4.601 9.7 4.6 1.5 5.1 4.5 1.1 6.899-3.6 2.101-9.6 2.201-13.8.101zm44.5-.4c-4.4-2.399-7.601-6.6-9.4-12.6-.7-2.4-1.1-4.4-.899-4.4.199 0 1.5 2.5 2.899 5.7 2.5 5.3 5.9 9.3 10.2 12 3 1.9 1.3 1.4-2.8-.7zm9 1c1.899-.399 3.8-1.2 4.399-1.8.601-.6 1.601-.8 2.2-.6 1.3.5 5.601-3.801 7.601-7.601.8-1.6.899-2.5.1-3.3s-2.3-.2-5.5 2.1c-5.9 4.2-9 4.101-13.2-.399-2.5-2.601-3.399-4.4-3.3-6.7l.1-3.2 1.101 3.3c1.3 4.301 5.899 9.2 8.6 9.2 1.2 0 3.8-1.6 6-3.5 4.601-4.1 6.8-4.399 7.7-1 1.4 5.8-8.3 14.601-15.8 14.4l-3.3-.101L379.8 242zm36.3.1c5.7-1.101 10.1-4.301 13-9.301 2.6-4.399 2.7-4.899 1.4-7.5-.801-1.6-1.5-3.399-1.5-4.1 0-.6-1.7-2.8-3.7-4.8-2.2-2.101-2.9-3.2-1.7-2.5 3.1 1.5 7.4 6.899 7.4 9.2 0 2.899 1.3 2.3 3.899-2.101 2.601-4.1 10.7-9.2 16.9-10.5 1.8-.399 3.6-1.3 3.899-2.1.5-1.4 2.301-1 2.301.5 0 1-4.101 2.7-8.5 3.7-4.5 1-12.4 6.3-14 9.5-2.2 4.199-1.9 11.5.6 15 1.1 1.6 2.4 2.699 2.8 2.399.5-.2 1.7.2 2.7 1 2.3 1.7 5.1 1.9 9.3.4 4-1.4 3.8-4.2-.399-4.9-3.4-.6-5.5-3.899-5.5-8.7 0-2.399 1-4.3 3.8-7.3 3.8-3.899 6.2-5.1 6.2-3 0 .601-.601 1-1.4 1-2.1 0-7.6 6.7-7.6 9.3 0 3 2.699 6.7 4.8 6.7 1 0 2.8.7 4.1 1.7l2.4 1.6-.5-10.1c-.3-5.6-.101-9.9.399-9.6.4.3.801 5.199.801 10.8 0 9.6.199 10.5 2.3 11.899 1.8 1.301 1.899 1.601.5 1.601-.9.1-2.3-.601-3.2-1.4-1.3-1.399-1.8-1.3-4.8.5-1.8 1.101-4.8 2-6.601 2-4.699 0-11.1-3.5-12.3-6.8-.5-1.5-1.2-3.4-1.5-4.2-.399-1-1.1-.399-2.5 2.2-2.7 5.2-8.3 8.8-13.399 8.7l-4-.101 3.6-.696zm112.4 0c8.8-2 12.899-6 14.6-14.101l.7-3.5.1 3.4c.2 7.7-7.399 15.3-15.1 15l-3.3-.2 3-.599zm-459.5-2c-1.4-2.7-.4-4.5 3.6-6.7 1.9-1 3.7-2.7 4-3.7s.8-1.6 1.101-1.4c1.1 1.2-1.101 4.801-3.801 6.2-3 1.601-3.8 4.2-1.699 6.3.899.9.8 1.2-.5 1.2-.901 0-2.101-.9-2.701-1.9zm9.6.8c.3-.5 2.9-.9 5.7-.8 5.9.1 5.4.5-1.5 1.199-2.6.201-4.5.101-4.2-.399zm45-.1c.3-.399 3.5-.8 7.2-.699 7.9.1 7.2.6-1.5 1.1-3.4.199-6 .099-5.7-.401zm19.7-.6c1.9-2 1.3-3.2-1.4-3.2-1.8 0-4.899-2.5-4.899-4 0-1.2 7.3 2.8 8.3 4.601.9 1.6-.7 4.399-2.6 4.399-.501 0-.301-.8.599-1.8zm59.2.8c.7-1.2 8.2-1.399 8.899-.2.2.4-1.8.9-4.5 1-3.199.1-4.799-.2-4.399-.8zm17.3-.1c1.8-1.9 1.5-3.7-.7-4.4-3.899-1.2-5.1-7.3-5.1-26 0-11.1.399-17.6 1.1-18 .7-.5.9 5.4.8 19.101l-.199 19.8 3.8 3.1c4 3.4 4.5 6.7 1 7.3-1.601.299-1.801.099-.701-.901z"/><path fill="#DC774A" d="M308.6 241.1c4.7-1.2 5.4-1.9 5.4-5.5 0-1.7.399-3.601.899-4.101.5-.6 1.601-2.899 2.4-5.3 1.399-3.9 1.399-4.3-.3-5.2-2.7-1.399-4-1.2-4.801.8-2.199 5-5.699 9.2-9.699 11.301L298 235.5l-2.2-2.3-2.3-2.3 2.7 1.2c4.399 1.899 7.399.399 11.6-5.9 4.899-7.5 5.6-8.2 8.6-8.2 3.8 0 3.9 2.601.3 13.5l-3.199 10-4 .2c-3.802.2-3.802.1-.901-.6zm36.8-.2c-.5-.8.101-1 2-.7 1.5.3 4.2.2 6-.2 1.7-.399 4.2-.3 5.4.101 3.5 1.3 4.1-1.801.899-4.4-1.399-1.2-2.899-3.5-3.199-5.2-.5-2.901-.5-2.901.5-.501.6 1.4 2.5 3.7 4.199 5.101 2.7 2.199 2.9 2.8 1.9 4.699-1.1 2-2 2.2-9.1 2.2-4.8 0-8.199-.4-8.599-1.1zm53.5-.6c-1.2-1.6-1.2-1.699.101-.6.8.6 2.6 1.3 4 1.6l2.5.4-2.601.2c-1.5 0-3.3-.7-4-1.6zm82.799.4c.301-.5 4-.7 8.2-.6 4.2.199 8.2 0 8.8-.4 1.5-.9.601-3.7-1.3-3.7-2.899 0-4.399-4.2-4.2-12l.2-7.5.5 8 .601 8 3.8 2c3 1.601 3.7 2.5 3.5 4.5-.3 2.5-.4 2.5-10.4 2.5-5.6 0-10-.4-9.701-.8zm29.801.2c-1.101-1.601-.2-1.7 2.5-.2 2.399 1.2 2.399 1.3.3 1.3-1.2 0-2.5-.5-2.8-1.1zm-415.7-.6c1.2-.199 3.2-.199 4.5 0 1.2.2.2.4-2.3.4s-3.5-.2-2.2-.4zm128.9-3.2c-2.601-3.101-5.301-9.801-4.4-10.7.3-.3 1 1.2 1.7 3.3s2.399 5 3.8 6.5 2.3 3 2 3.3-1.7-.8-3.1-2.4zm247.499-.8c-2.8-1-4.199-6.199-4.199-16 0-12.1-1.4-21-3.801-24.199-.899-1.301-3.6-3.101-5.899-4-5.601-2.2-6.3-3.2-1.4-1.9 4.4 1.1 8.7 4.8 10.4 8.8.6 1.4 1.3 9 1.7 17 .399 8.2 1.199 15.5 1.899 16.8 1.4 2.601 5.601 3 8.9.601 2.399-1.601 2.899-.8.899 1.6-1.198 1.498-5.898 2.198-8.499 1.298zM240.3 234c-4.6-1.1-9.3-6.8-9.3-11.2.1-1.6.5-1.199 1.5 1.7 1.6 4.4 5.6 8.5 8.399 8.5 1 0 3-.899 4.5-2.1 1.4-1.101 2.601-1.7 2.601-1.2-.101.9-3.601 5.4-4.2 5.2-.1-.1-1.7-.4-3.5-.9zm168.6-1.6c-2-1.4-4.5-4.101-5.5-6-2.2-4.101-3.899-4.3-5.3-.601l-1 2.7.2-3c.1-2.2.8-3.1 2.399-3.3 1.7-.3 3.101.9 5.801 4.6 4.3 6 8.8 8.101 11.699 5.601 1-1 1.801-2.2 1.801-2.9 0-1.7-3.801-4.899-9.9-8.1-3-1.601-6.5-4.3-7.9-6.101-2.8-3.5-4.199-3.399-4.199.2 0 2.7-1.801 3.601-7.301 3.3l-4.199-.1 5-.6c4.399-.5 5-.9 5.3-3.101.2-1.399.8-3 1.3-3.7.6-.6.6-1.399.1-1.6-.399-.3-1.399-2.9-2.199-5.7-1-3.8-2.101-5.5-3.7-6.1-1.3-.5-2.3-1.7-2.3-2.8 0-1.2-1.101-2.301-3-3-1.601-.5-3-1.2-3-1.5 0-.301 1.3 0 3 .5 3.399 1.199 7.8 6.1 9.199 10.1 1.101 3.1 2.801 3.8 2.801 1.2 0-3.4 4.3-8.7 8.699-10.601 2.5-1.1 4.7-1.699 5-1.399.4.3-1.1 1.3-3.3 2.2-5.1 2.1-7.8 5.399-9.3 11.5-1.2 4.399-1.1 5.199.3 6.8.9 1 1.601 2.1 1.601 2.5 0 1.2 4.6 4.6 11.399 8.6 7.5 4.4 9.4 8.101 5.7 11.101-3.101 2.501-4.902 2.401-9.201-.699zm113.4.6c-1.8-1-4.4-3.7-5.8-6-2.9-4.5-3.101-4.6-5.7-2.3-2 1.8-2.5.4-.601-1.5 2.301-2.3 4.601-1.2 8.2 3.8 2 2.8 4.8 5.5 6.2 6 5.2 2 8.5-3 4.7-7.2-.9-1-1.101-1.8-.5-1.8 2 0 4.399 5.8 3.3 7.9-1.9 3.5-5.199 3.9-9.799 1.1zM136 219.7c0-7 .399-11.8 1-12.2.8-.5.899 3 .399 11.2-.399 6.5-.8 12-1 12.2-.199.2-.399-4.8-.399-11.2zm153.7 6.8c-.9-1.899-1.9-5.399-2.2-7.8l-.5-4.2 1 4c.6 2.2 1.899 5.7 3.1 7.8 1.101 2 1.601 3.7 1.101 3.7-.401 0-1.601-1.6-2.501-3.5zm192.6-3c0-3.8.2-5.3.399-3.2.2 2 .2 5.2 0 7-.199 1.7-.399.1-.399-3.8zm-336 .5c0-3 .2-4.3.4-2.7.199 1.5.199 3.9 0 5.5-.2 1.5-.4.2-.4-2.8z"/><path fill="#DC774A" d="M523.5 222.4c-6.2-3.3-10.4-6.601-11.301-9.2-2-5-2.5-7.5-1.399-6.8.5.3 1.3 2.1 1.6 4 .601 3.399 6.5 9.6 9.101 9.6.5 0 2.1.9 3.5 2 2.999 2.4 2.499 2.5-1.501.4zm17.5-2c-2.2-3.4-9.101-8.5-15.2-11.2-1.601-.6-2.8-1.6-2.8-2.1 0-1 9.399 4 15.3 8.1 2.7 1.9 6.3 7.5 5.399 8.4-.299.3-1.5-1.1-2.699-3.2zM90.1 205.3c0-9.399.3-17.399.7-17.699.7-.4.5 28.199-.2 32.899-.2 1.1-.4-5.7-.5-15.2zm129.2 11.2c0-3.3.2-4.5.4-2.7.199 1.801.199 4.5 0 6-.2 1.5-.4 0-.4-3.3zm141 1c0-2.7.2-3.8.399-2.2.2 1.5.2 3.7 0 5-.199 1.2-.399 0-.399-2.8zm-125.5 1.7c-4.3-.9-2.1-5 3.7-6.9 1.7-.5 3.5-2 4.1-3.199.9-1.601 1.4-1.9 1.9-1 1 1.5-3.8 5.899-6.4 5.899-2.3 0-3.1.9-2.399 2.601.399 1.199 2.399 1.399 9.5 1.199 8-.3 9.1-.5 9.899-2.3.7-1.899.8-1.899.8.2.101 1.2-.3 2.4-.8 2.7-1 .7-17.9 1.4-20.3.8zm138.899-1.7c-.8-1.899 1-2.899 2-1.1.4.8 2.801 1.6 5.301 1.899 4.3.301 4.199.4-1.101.5-4.2.201-5.799-.199-6.2-1.299zM172 210c0-2.899.3-5 .7-4.6.699.7.5 8.7-.301 9.5-.199.2-.399-2-.399-4.9zm114.4 2.6c-.3-.801-.399-2.5-.199-3.801.3-1.699.5-1.3.899 1.5.5 3.801.2 4.701-.7 2.301zm93.6-.1c1.899-.899 3.8-2.1 4.199-2.8.4-.7.801-.7.801-.2 0 2.101-1.7 3.5-5 4l-3.5.601 3.5-1.601zm-8.801-4c0-4.3.4-5.5 3.101-8.2 1.7-1.8 3.899-3.3 4.8-3.3 1.9 0 5.2 4.101 6.3 7.8 1.2 3.7-.3 2.5-2-1.699-1.6-4.101-3.399-5.4-5.899-4.4-2 .7-4.5 5.4-4.601 8.5 0 1.3-.399 3.2-.8 4.3-.5 1.299-.8.399-.901-3.001zm122.901 2.4c-.1-1.5.7-3.3 1.6-4 1.301-1.101 1.5-1.101.9-.101-.5.801-1.2 2.601-1.6 4l-.801 2.7-.099-2.599zm-138.901-3.4c-.3-7.2-2.899-11.5-9.1-14.6-2.8-1.4-5.4-2.9-5.7-3.2-1.399-1.4 7.3 1.7 9.8 3.4 3.5 2.5 6 9.3 5.5 15l-.399 4.4-.101-5zm58.701 2c-2.6-1.3-4.899-3.2-5.1-4.2-1.2-4.699 3.7-9.199 8.3-7.5 1.1.5 3.3 3 4.7 5.7 3.2 5.9 4.7 6.5 6.1 2.8l1-2.8-.2 3c-.199 2.5-.6 3-2.699 3-1.801 0-3-1-4.601-4-3.1-5.5-4.1-6.5-6.899-6.5-3.2 0-5.101 3.4-3.601 6.601.6 1.299 1.5 2.399 2.1 2.399.5 0 2.399.9 4.199 2 4.601 2.8 2.301 2.4-3.299-.5zm-158.8-.1c-.2-4.3-3.2-11-5.8-13.101-1.5-1.199-2.4-2.6-1.9-3 2.101-2.1 9.2 11.301 8.301 15.801-.401 2.2-.401 2.2-.601.3zm17.2-3.4c0-3 .2-4.3.4-2.7.199 1.5.199 3.9 0 5.5-.2 1.5-.4.2-.4-2.8zm-88.5 3.4c-1.1-1-1-7.601.2-9.4.5-.8 1-1.2 1.2-1 .7 1-.7 11.1-1.4 10.4zm36.7-3.9c1.399-5 2.5-6.7 6.5-10.399 4.8-4.5 11.7-6.2 16.5-4 1.6.699 1.2.8-2 .699-7-.199-8.101.101-12.5 3.601-3.9 3.1-7.9 9.2-8 12.3 0 .6-.4 1.4-1 1.8-.5.299-.3-1.501.5-4.001zm104.6 3.1c-.9-1-.9-3.5-.2-9.101.5-4.2 1.2-7.899 1.5-8.3.4-.3 2.9-.8 5.601-1.2 5.8-.7 5.699.101-.301 1.5-4.6 1.2-5.399 2.7-5.6 11.7-.1 3.5.3 5 1.7 5.7 1.5.899 1.5 1 .1 1.1-.9.001-2.201-.599-2.8-1.399zm36.4-2.9c.8-2.6 2.6-6.3 4-8.2 3.1-4 9.8-7.5 14.1-7.399 2.6.1 2.6.199-1 1-7 1.699-15.6 9.5-15.6 14.199 0 .7-.7 2.2-1.5 3.301-1.2 1.699-1.2 1.299 0-2.901zm76.1 2.6c-.6-1.399-.5-1.5.5-.6 1.6 1.6 4.9-.1 4.9-2.7 0-1 1.199-3.3 2.6-5 2.1-2.399 3.3-3 5.7-2.8 3.7.4 7.399 4.8 6.1 7.5-.7 1.5-.8 1.4-1.2-1-.399-3.4-4.399-6.3-6.8-4.9-.899.5-2.8 3.101-4.3 5.801-2.8 5.299-6.3 6.999-7.5 3.699zm95.8-3.5c-2-3.6-3.7-5.399-5.2-5.6-2.899-.4-5.199 1.4-5.199 4.1 0 1.601-.301 1.801-1.101 1-1.7-1.699 1.4-6.1 4.601-6.899 3.199-.8 5.3.899 7.699 6.399 1 2.301 2.301 4.2 2.801 4.2.6 0 1 .5 1 1-.001 2.3-1.802.7-4.601-4.2zm6.2 3c.2-1.3.1-5.3-.2-9l-.7-6.8h-3.3c-1.8 0-3.5-.3-3.8-.8-.2-.4 1.3-.6 3.5-.4 2.1.2 4.2.801 4.5 1.4 1 1.6 2.4 14.7 1.8 16.3-.9 2.3-2.3 1.8-1.8-.7zM125 206.2c0-3.3-1.601-5-5.7-6.1-4.9-1.301-3.6-4.2 2.7-6.101 3-.899 6.5-2.2 7.8-2.899 3.5-1.9 2.6-.5-1.3 1.8-1.9 1.1-5 2.3-7 2.7-4.3.8-4.601 3-.601 3.899 1.601.3 3.4 1.2 4 1.8 1.601 2 2.4 6.4 1.2 7.101-.699.5-1.099-.4-1.099-2.2zm22.2-.2c0-1.899.199-2.7.5-1.7.199.9.199 2.5 0 3.5-.3.9-.5.1-.5-1.8z"/><path fill="#DC774A" d="M330.5 205.9c.399-1.3 1.6-3.9 2.699-5.601 2.301-3.899 5.301-4.3 9.2-1.199 2 1.6 2.601 2.899 2.5 5.699l-.1 3.7-1.101-4.5c-1.1-4-1.5-4.5-4.3-4.8-2.5-.2-3.7.3-5.3 2.4-1.1 1.5-2.1 3.3-2.1 4 0 .699-.5 1.6-1.101 2-.797.401-.897-.099-.397-1.699zm-99.5-2.1c0-2.899 4-6.8 7-6.8 2.1 0 4.5 2.7 5.5 6 .6 2.2.399 2.101-1.3-.6-1.101-1.8-2.601-3.4-3.4-3.7-2.1-.7-4.9 1.2-6.3 4.6-1.4 3.2-1.4 3.2-1.5.5zm250.1 1c-.1-.899-1.1-2.399-2.3-3.199-1.8-1.301-1.9-1.601-.601-1.601 1.9 0 4.2 3.5 3.4 5.3-.199.7-.499.5-.499-.5zm-344.7-.9c-.3-.601-.1-1.601.5-2.2.801-.8 1.101-.5 1.101 1.1-.001 2.4-.501 2.8-1.601 1.1zm361-.4c.101-.5 2.2-.899 4.5-.7 5.4.4 7.101-1 7.101-6.199.1-4.4 1.3-3.5 2.399 1.899.601 2.7.3 3.2-2.6 4.4-3.7 1.7-12 2.1-11.4.6zM172 202.1c0-1.2.5-2.101 1-2.101.6 0 1 .601 1 1.4s-.4 1.8-1 2.1c-.5.301-1-.299-1-1.399zm255.699.2c-.399-.3-.699-2-.6-3.699l.1-3.101.9 3.4c1.001 3.3.801 4.7-.4 3.4zM146.8 200.9c-.3-.9-2.4-1.601-5.5-1.8-2.9-.2-1.3-4.801 2.4-7.2 2.5-1.601 4.699-4.4 6.6-8.2 2.7-5.4 3.1-5.8 6-5.5 1.7.2 3.2.9 3.5 1.6.3.9-.2 1-2 .301-3.4-1.301-5.6.3-6.4 4.399-.399 2.2-1.8 4.4-3.8 6-1.7 1.4-3.7 3-4.3 3.601-1.4 1.1-1.8 4-.5 3.699 1.6-.399 5.2 1.4 5.2 2.801 0 1.599-.7 1.899-1.2.299zm139.8-5.4c.2-3.3 1.4-7.8 2.5-10 2.5-4.8 7.3-9.5 9.8-9.5 3.2 0 6.3 4.5 6.9 10.2.6 4.3 1.1 5.4 2.7 5.6 1.6.2 2.399-.899 4.5-6.5 4.399-12.1 4.399-14.1-.5-13.5-1.801.2-1.9.2-.2-.8.899-.6 2.6-.8 3.7-.5 2.399.8 2.8 6 .6 9-.7 1.101-2.1 4.3-3 7.2-1.9 5.7-3.6 7.6-6.3 7.1-1.4-.3-1.9-1.6-2.4-6.699-.399-4.601-1.2-6.801-2.5-7.801-5.7-4.2-12.2 2.5-14.9 15.3l-1.4 6.899.5-5.999zm151.3 2.3c.4-2.8.601-2.899.9-.899.2 1.3 0 2.7-.5 3.2-.601.599-.7-.301-.4-2.301zM188 199.6c0-.2 1.8-1.301 4-2.5 4.1-2.101 5.2-1.5 2.399 1.3-1.299 1.4-6.399 2.3-6.399 1.2zm84.6-2.6c1.5-7.7 8.2-21.1 9.2-18.2.2.601-.6 2-1.7 3.101-1.2 1.2-2.1 3-2.1 4 0 1.1-.4 2.2-.9 2.5-.399.3-1.399 2.7-2.1 5.3-1.6 5.799-3.3 8.199-2.4 3.299zm199.9 1.7c-.5-1.2-.301-2.4.6-3.3 1.7-1.601 9-3.3 7.4-1.601-.5.601-2.101 1.2-3.5 1.4-1.601.2-2.601 1.1-3.101 2.8-.599 2.201-.7 2.301-1.399.701zm18.9-2.8l-.7-4.101-4.6.5c-4.2.5-4.4.4-2.1-.899 4.6-2.5 6.8-1.8 8.1 2.5l1.2 3.899 3.7-3.899c3.699-3.9 6.899-4.9 10-2.9 1.1.7.699 1-2 1.101-1.9.1-4.101.3-4.7.3-.7.1-2.4 1.8-3.8 3.899-1.4 2-3 3.7-3.5 3.7s-1.301-1.9-1.6-4.1zm20.6 2.5c0-1.601 5.199-6.2 8.3-7.3 1.6-.601 4.3-1.101 6-1 2.6.1 2.2.3-2.101 1.399-3.5.8-6.5 2.4-8.8 4.601-1.899 1.8-3.399 2.8-3.399 2.3zm-376.8-6.6c-1.2-1.199-4-2.899-6.301-3.8-5.199-1.899-6.8-5.1-3.899-8 1.1-1.1 3-2 4.3-1.899 2 .1 2 .1-.5 1-5.4 2-4.5 7.3 1.4 8.1 7.699 1.2 11.8-5.6 5-8.1-1.5-.5-2-1-1.2-1 2.399-.101 6 2.8 6 4.8s-3 5.1-4.8 5.1c-1.801 0-1.4 1 1.1 3 1.2 1 2 2.101 1.6 2.4-.3.299-1.5-.401-2.7-1.601zm291.3 1.3c-.301-.6-2.4-1.1-4.5-1.1-2.101 0-4.2-.399-4.5-1-.4-.6 1.1-.8 4.199-.399 4.801.699 7.2 1.8 6.101 2.899-.3.4-.9.2-1.3-.4zm11.5.1c0-1.7 2.399-3 6.699-3.4 5-.399 4.7.9-.5 1.801-2 .399-4.3 1.1-4.899 1.699-.9.6-1.3.6-1.3-.1zm-359.7-3.7c0-2.2.2-3 .4-1.7.199 1.2.199 3 0 4-.3.9-.5-.1-.4-2.3zm94-.1c1.2-1.4 2.9-4.4 3.8-6.7 1.5-3.8 2-4.2 5-4.2h3.4l.5 6.8c.3 3.7.2 6.7-.2 6.7-1.1 0-2.1-4.7-1.5-6.899.6-2.5-1-5.101-3.2-5.101-1.7 0-4.1 3.601-4.1 6.3-.101 1.601-3.601 5.7-4.9 5.7-.6 0-.1-1.2 1.2-2.6zM77.5 183c-.4-1.1-2.4-3.2-4.601-4.7C70.2 176.5 69 175 69 173.4c0-1.3.5-2.4 1-2.5.6 0 7.2-.101 14.7-.101 11.899 0 13.899.2 14.8 1.7.8 1.3.3 2.3-2.601 4.8-2 1.801-4.1 4.101-4.699 5.2-1.101 1.9-1.101 1.9-1.2-.2 0-1.5 1.3-3.1 3.899-4.899 6.7-4.4 4.801-5.4-9.8-5.4-13.3 0-16.399.7-14.2 3.3.601.801 2.2 1.801 3.5 2.101 2.2.5 5.4 6.2 4.2 7.3C78.4 185 77.9 184.2 77.5 183zm123.6-.3c-.7-.9-2.5-1.7-3.899-1.9-1.9-.199-2.801-1-3-2.5-.201-1.3.199-2.3.799-2.3.6 0 .899.4.5.9-.601 1.1 1.2 2.5 3.8 2.6 2.3.2 4 2 3.5 3.5-.3.9-.8.8-1.7-.3zm1.5-8.7c2.8-1 6.101-2.3 7.3-2.899 2.7-1.5 6.101.199 6.101 3 0 2.1 0 2.1-1.8-.101l-1.801-2.3-6 2.2c-3.3 1.1-6.699 2.1-7.5 2-.8 0 .9-.9 3.7-1.9zm82.4.5c1.3-1.6 6.5-4.1 10.5-5.1 4.5-1 2.1.899-3.3 2.6-2.601.9-4.601 2-4.5 2.601.1.5-.7 1.1-1.801 1.1-1.599.199-1.799-.101-.899-1.201zm19.4-4c-1.8-1.3-1.8-1.399.4-.8 1.2.3 2.5.9 2.8 1.4.8 1.4-1 1.1-3.2-.6z"/><path fill="#F5681E" d="M372.699 241c-4.3-2.7-6.6-5.5-9.399-11.7-7.4-16.1 1.7-37 16.7-38.3 4-.399 9 1.9 9 4.101 0 1.1 1 2.3 2.3 2.8 1.5.6 2.6 2.399 3.6 5.7.8 2.699 1.8 5.399 2.3 6.1s.5 1.4-.199 1.8c-.5.3-1 1.7-1 3s-.4 2.7-1 3c-2 1.2-18.301.601-19.101-.7-1.399-2.199-.5-3 3.5-3.3 3.8-.2 6-2 5.101-4.2-.2-.699 0-1.5.6-1.899 2.2-1.3-3-10.4-6-10.4-.9 0-3.1 1.5-4.9 3.3-3 3.101-3.199 3.601-2.6 8.7.4 3 .6 8.3.5 11.7-.1 5.7.2 6.5 3.3 9.7 4.2 4.5 7.3 4.6 13.2.399 3.2-2.3 4.7-2.899 5.5-2.1s.7 1.7-.1 3.3c-1.801 3.4-6.2 8-7.4 7.8-.6-.1-2 .301-3.1.801-3.802 2.098-7.901 2.198-10.802.398zm38.801 1c-.301-.399-2.7-.8-5.5-.8-6.7 0-8.301-1.4-7.7-6.9.2-2.399.1-4.6-.4-4.8-1.1-.8 1-6.5 2.5-6.5.601 0 2 1.601 3 3.5 1 1.9 3.601 4.601 5.8 6.101 3.2 2.199 4.4 2.6 6.5 1.8 6.801-2.4 5.2-7.601-3.899-12.8-6.7-3.9-10.8-6.9-10.8-8.2 0-.4-.7-1.5-1.601-2.5-1.399-1.601-1.5-2.4-.3-6.8 1.5-6.101 4-9.101 10-11.9 4.9-2.4 7.4-2.7 8.4-1.2.3.601 2.3 1 4.399 1 4.8 0 6 1.3 5.4 6-.3 2.101-.101 4 .5 4.4 1.399.899-.601 6.8-2.2 6.3-.6-.2-2.3-2.5-3.8-5.2-1.4-2.7-3.601-5.2-4.7-5.7-4.6-1.699-9.5 2.801-8.3 7.5.399 1.601 8.8 6.7 11.1 6.7 1.4 0 9.101 7.9 9.101 9.3 0 .7.699 2.4 1.5 4 1.3 2.601 1.199 3.101-1.4 7.5-1.5 2.5-4.2 5.5-6 6.601-3.7 2.098-10.901 3.698-11.6 2.598zm112 0c-.301-.399-2.5-.8-5-.7-6 .301-7.301-1.3-7.801-9.5-.399-5.199-.1-7.1 1-8 1.601-1.3 1.801-1.1 6.601 5.7 3.899 5.4 11.399 6.9 13.7 2.5 1.399-2.5-.5-6.6-3.9-8.3-11.3-5.9-14.7-8.7-15.7-13.1-.3-1.7-1.1-3.7-1.6-4.301-1.4-1.699 1.1-6.899 5.1-10.699 3.3-3.101 13.8-6.301 15.5-4.601.601.601 2.5 1 4.3 1 3.2 0 3.301.2 3.5 4.3.5 9.5.5 12.2.101 12.9-.601 1.2-3.8-2.4-5.2-5.9-2.7-6.699-8.2-8.1-11.6-3-1.4 2.101-1.4 2.7 0 5.5.899 1.7 2.6 3.4 3.8 3.801 4.6 1.399 12.5 7.3 14.8 11 4.1 6.699 1.2 15.699-6.3 19.199C529.6 242.2 524.3 243.3 523.5 242zm-451.2-1.1c-2.1-2.101-1.5-4.8 1.6-6.3 1.6-.9 3.1-2.1 3.4-2.8.2-.699.5-8.699.6-17.8.101-9.1.4-19.5.601-23.2.499-8.2-.801-12.6-4.101-13.4-1.3-.3-2.899-1.3-3.5-2.101-2.199-2.6.9-3.3 14.2-3.3 14.7 0 16.5 1 9.7 5.5-3.7 2.4-3.9 2.9-3.4 6 .4 2 .2 3.601-.399 4-.8.5-1 7.4-.9 21.3.2 20 .3 20.7 2.5 22.9 3.2 3.2 8.101 3 12.7-.4 2-1.6 3.9-3.6 4.2-4.5.399-1 1.3-1.8 2.1-1.8s1.4-.6 1.4-1.399c0-1.801 4.899-5.801 6.1-5 1.5.899 1 6-1.2 10.8-1.1 2.6-2.1 6.3-2.199 8.2-.2 4-1.2 4.399-8.2 3.699C100 240.6 78.8 240.6 76 241.4c-1.5.5-3 .2-3.7-.5z"/><path fill="#F5681E" d="M120.5 240.3c-2-1.5-2-1.5-.101-2.6 4.9-3 5.101-3.6 4.9-15.7-.1-6.6.2-12.399.9-13.6 1.5-3.2-.9-7.601-4.9-8.8-4.4-1.2-4.2-3.2.3-4.101 2-.3 5.4-1.8 7.601-3.1l4-2.601 2.5 2.4c2 1.9 2.399 2.9 1.899 5.8-.399 1.9-.899 9.7-1.2 17.2-.699 16.4.2 20.6 4.7 21.5 3.8.7 4.3 1.6 2 3.7-1.399 1.3-2.399 1.399-4.5.6-3.399-1.3-13.899-1.3-15.1-.1-.599.602-1.799.402-2.999-.598zm32.4.1c-2.399-1.3-3.3-2.8-5.399-8.9-.8-2.399-.9-17.8-.101-26.2.5-5.699.4-6.199-1.699-6.899-1.2-.5-2.5-.7-2.9-.601-1.3.301-.9-2.6.5-3.699.6-.601 2.6-2.2 4.3-3.601 2-1.6 3.4-3.8 3.8-6 .801-3.899 3.101-5.6 6.101-4.5 1.6.5 2.1 1.9 2.5 6l.5 5.3 6 .101c4.8.1 6.3-.3 7.7-1.9 1-1.1 1.699-2.5 1.8-3.2 0-2.699 2.399-6.3 4.1-6.3 2.2 0 3.8 2.601 3.2 5.101-.3 1-.3 2.899.1 4.3.5 2.1 1 2.3 4.801 1.899 3.399-.399 4.699-.1 6.1 1.5 1 1.101 1.5 2.2 1 2.5-5.4 3.2-8.6 4.601-9.5 4.101-.6-.4-1.4-.101-1.8.5-.9 1.5-.5 28 .5 30.399 1 2.301 4 2.2 6.399-.399 2-2.2 4.101-1.9 4.101.6 0 3.101-4.2 9.3-7.101 10.601-4.5 1.8-9.8.199-12.5-3.801-2.5-3.8-3.8-16.6-2.6-25.5.5-3.399.5-6.1-.1-6.699-.5-.5-.4-1.101.199-1.5.601-.4 1.101-1.4 1.101-2.2 0-2.3-12.8-2-14.601.399-1.699 2.101-1.899 22.5-.3 27.101 1.3 3.6 3.8 4.1 5.7 1.1 1.5-2.399 3.5-2.6 5.2-.5 1.1 1.3.899 2-.9 3.8-1.1 1.301-2.1 2.801-2.1 3.4 0 1.9-5.7 5.3-8.7 5.2-1.501-.103-4.001-.703-5.401-1.503zm47.6.6c-.4-.6-1-.8-1.5-.5-2.2 1.3-2-1.899.3-4.3 1.3-1.5 3-3.7 3.6-4.9 1.4-2.8 1.4-8 0-8.8-.699-.5-1-7.5-.8-21.2.2-18.6 0-20.6-1.5-21.5-1-.5-2-.699-2.3-.399-.4.3-1.2.1-2-.5-1.7-1.4.1-4.101 2.2-3.3.8.3 4.2-.4 7.6-1.601l6.3-2.3 1.801 2.3c1.6 1.9 1.699 3.4 1.3 10.4-.4 4.399-.8 16-1.101 25.6-.5 18.9.601 25.2 4.7 26.5 2.2.7 2.5 2.8.601 4.3-.9.801-3.2.801-8-.1-5.2-.9-7.2-.8-8.7.1-1.201.7-2.101.8-2.501.2z"/><path fill="#F5681E" d="M234 241.1c-.8-.601-2.3-1.101-3.3-1.101-2.4 0-6.801-5.3-9-10.899-1.9-4.7-2.601-16.7-1.101-20.601 3.4-9.3 8.101-14.7 14.2-16.399 4.1-1.101 12.2-.2 12.2 1.5 0 .699.899 1.8 2.1 2.399 3.601 2 7.7 14.9 6 19.2-.8 2.1-1.5 2.3-9.899 2.6-7.101.2-9.101 0-9.5-1.199-.7-1.7.1-2.6 2.4-2.6 2.8 0 7.4-4.399 6.3-6.1-.5-.8-.899-2.7-1-4.2-.199-3.3-3-6.7-5.399-6.7-1 0-2.9.9-4.3 2.101-2.7 2-2.7 2.199-2.7 12.399.1 16.2 2.1 20.8 9.7 22.5 3 .7 3.899.5 5.399-1.3 1-1.2 1.8-2.7 1.9-3.3 0-.7.899-1.4 2-1.7 1.5-.4 2.2.1 2.6 2 .7 2.7-1.5 6.4-5.8 9.6-3 2.2-10.6 3.3-12.8 1.8zm57.4-.4c-1.699-.7-4.1-2.1-5.5-3.2-3.899-3.2-9.699-12.7-10.5-17-.399-2.2-1.1-5.1-1.6-6.5-1-2.6-1.4-13.1-.6-14.7.3-.399 1.1-2.899 1.8-5.6.7-2.6 1.7-5 2.1-5.3.5-.3.9-1.4.9-2.5 0-1 .899-2.8 2-3.9 1.1-1.1 2-2.7 2-3.5 0-1.6 3.899-3.6 5.3-2.8.4.2.6-.1.5-.8-.2-.8 1.6-2 4.4-2.9 2.6-.8 5-1.8 5.399-2.2 1.1-1.199 4.9-.899 6.2.4.6.6 3.3 1.2 6 1.3 7.899.2 8 .7 3.2 13.8-2.101 5.601-2.9 6.7-4.5 6.5-1.601-.199-2.101-1.3-2.7-5.6-.601-5.7-3.7-10.2-6.9-10.2-2.5 0-7.3 4.8-10 9.9-1.8 3.6-2.199 6.2-2.5 15.5-.1 6.1 0 11.5.301 11.899.3.5.6 2.7.8 5 .3 4.4 3.2 11.7 4.7 11.7.5 0 2 1.2 3.3 2.8l2.399 2.7 4.5-2.399c4.101-2.101 7.601-6.2 9.8-11.301.801-2 2.101-2.199 4.801-.8 1.699.9 1.699 1.3.3 5.2-.8 2.4-1.9 4.7-2.4 5.2-.5.6-.899 2.5-.899 4.3 0 2.1-.601 3.6-1.9 4.2-3.001 1.701-17.201 2.201-20.701.801zm36.6-.2c-7.4-2.7-9.5-13-4-19.7 3.1-3.8 11.6-8.8 15-8.8 5.8 0 8.199-9.1 3.399-12.899-3.899-3.101-6.899-2.7-9.2 1.199-1.1 1.7-2.399 4.5-2.699 6-.5 1.9-1.301 2.7-2.4 2.5-1.9-.399-2.6-6.3-1.3-12.3.8-3.899.899-4 6.8-5.399 5.8-1.301 6.2-1.301 11.6 1.3 3.101 1.5 6.4 3.8 7.301 5.3 1.8 2.8 3.1 11.8 3.899 26.8.4 8.3.601 9.101 3.101 11.101 3.399 2.699 2.899 5.899-.7 4.5-1.2-.4-3.601-.5-5.3-.101-1.7.4-4.5.5-6.2.3l-3.101-.5.4-8.1c.5-11.1.4-13.8-.2-14.8-1.9-3.101-9.8 2.399-11.4 7.899-1.5 4.801 0 8.801 3.699 10.4 4.9 2.2 5.4 4 1.801 5.6-3.1 1.5-5.9 1.4-10.5-.3zm113.6 0c-1-.8-2.2-1.2-2.7-1-.399.3-1.7-.8-2.8-2.399-2.5-3.5-2.8-10.801-.6-15 1.6-3.2 9.5-8.5 14-9.5 7.3-1.601 8.199-2.4 8-7.101-.2-8.399-6.9-11.399-11.9-5.399C444.199 201.8 443 204 443 205c0 2.5-3.301 4.3-4.801 2.8s-1.6-6.5-.1-7.3c.6-.399.9-2.1.7-3.7-.3-3.399 0-3.699 7.8-6.1 5.3-1.7 6.5-1.5 15.4 3.2 3.699 1.899 5.3 7.899 5.8 22.5.5 14 1.7 19.5 4.5 19.7 6.3.6 7.7.3 8.899-2 1.9-3.4 1.4-29.801-.6-33-.4-.601-2-1-3.4-.9-2.3.3-2.699-.1-2.699-2.2 0-1.7.6-2.6 2-2.8 1.1-.2 3.399-1 5.199-1.8 1.7-.8 4.4-1.4 6.101-1.4 2.7 0 3 .4 3.6 4 .3 2.2 1.101 4 1.601 4s2.1-1.7 3.5-3.8c2.199-3.4 2.899-3.7 7.8-4l5.3-.3-.4 4.3c-.6 6.1-1.699 7.1-6.899 6.4-3.9-.5-4.4-.301-5.3 1.8-.5 1.3-1.4 2.7-2 3.1-.601.3-1 2.3-1 4.3-.101 2-.301 7.2-.601 11.5-.6 8.101.9 12.7 4 12.7 1.9 0 2.8 2.7 1.3 3.7-.699.4-4.3.6-8 .4-3.8-.101-8.1.199-9.8.899-2.2 1-3.2 1-4.3.101-.8-.7-1.7-.801-1.9-.4-.8 1.3-11.899.9-14.399-.5-2.2-1.2-2.3-1.9-2.3-11.7 0-9.399-.2-10.5-2-11.5-2.601-1.399-5.101-.1-8.5 4.4-4.301 5.6-2.601 13.6 3 14.6 4.199.7 4.399 3.5.399 4.9-4.201 1.5-7 1.3-9.3-.4zm-311.8-53.2c-5.6-.899-6.2-6.3-.8-8.199 5.2-1.801 10.899 1.399 9.399 5.3-.5 1.3-1.199 1.7-4.899 2.899-.5.2-2.2.2-3.7 0z"/><path fill="#020202" d="M688 319.4c-18.9-1.101-58.601-5.7-59.801-6.9-.399-.399 1.7-.7 23.301-3 20.699-2.2 41.5-5.899 41.5-7.3 0-.399-6.4-1.5-14.301-2.5-35.899-4.399-73.3-14.8-91.8-25.5l-5-2.899 20.3-.7c24.9-.8 47.5-2.2 67.301-4.101 92.699-9.1 168-31.3 179.1-52.6 5.6-10.9-5.7-21.2-29.8-27.3-20.9-5.3-45.3-7.6-82.8-7.6-44.101 0-70.5 3.3-92 11.601-11.7 4.5-19 11.199-19 17.6 0 11.7 22.5 26.1 52 33.1 5.8 1.4 12.3 3 14.5 3.5 3.5.9 2.8 1-5.5 1.101-37.9.399-73.601-8.7-89.101-22.7-6-5.4-7.899-8.8-7.899-14.2 0-5.6 2.1-9.3 8.199-14.1 13.301-10.4 34.4-17.601 69.301-23.4 14.1-2.399 31.699-3.7 57.1-4.2 30.8-.6 50.1.301 76.9 3.7 55.899 7.101 90.199 23.5 85.5 40.9-2.2 8.2-17.4 20.8-35.7 29.6-4.601 2.2-8.3 4.3-8.3 4.8s.8.601 1.8.301c.899-.301 3.8-1 6.3-1.5 13.3-2.9 30.6-9.7 38.6-15.101 2.4-1.7 4.601-3 4.9-3 .8 0 .4 12.4-.6 20.7-2 15.601-7.101 31.5-13.7 42.5l-3.4 5.7-9.7 3C839 307.3 807.4 313.4 772 317.1c-17.801 1.9-67.6 3.2-84 2.3zm-355.301-3.8c-2.099-.8-4.699-2.2-5.699-3.1-2.7-2.399-4.301-8-3.7-12.6 1.2-9.2 7.899-12.9 23.399-12.9H356v-3c0-4.699-2.601-9.899-5.5-11-1.5-.6-5.301-1-8.5-1-4.9 0-6.4.4-9 2.601l-3.101 2.7-2.5-2.4L325 272.6l2.1-2.3c3.7-3.801 10-5.601 17.8-5.101 7.601.601 12.2 2.601 15.5 7.101 1.9 2.6 2.101 4.3 2.4 23.3l.3 20.5-3.8-.301c-2.4-.199-3.7-.8-3.5-1.5.3-1.8-1.4-1.6-4.3.301-3.4 2.2-14 2.8-18.801 1zm19.401-8.4c2.8-2.5 3.2-3.5 3.3-8.3l.101-5.4-9.4-.3c-7.2-.2-9.9.101-11.8 1.3-5.101 3.4-5.4 11.3-.5 14 1.5.8 5.5 1.4 8.899 1.5 5.499 0 6.7-.4 9.4-2.8zm67.099 7.3c-3.899-2-5.899-3.899-8-7.3-2.5-4.399-2.699-5.5-2.699-16.3 0-11.1.1-11.7 3-16.4 4-6.5 9-9 17.5-9 11.899 0 18.8 7.2 19.8 20.601l.5 6.899h-34.601l.7 4.301c.4 2.3 1.4 5.199 2.2 6.5 4.2 6.499 15 8.3 21.8 3.699 3.5-2.399 3.8-2.399 6.2-.899 3.2 2.199 2.7 3.3-2.9 6.8-7 4.299-16.299 4.699-23.5 1.099zM441 283.301c-1.4-7.801-5.4-11.4-12.5-11.5-7-.2-11.7 4-13 11.5l-.7 3.699h26.899l-.699-3.699zm73.5 32.999c-6.601-1.6-11.2-9.1-10.2-16.499 1.2-9 6.1-11.9 21.7-12.7l10.5-.601-.2-3.5c-.101-1.899-.5-4.5-.8-5.699-1.601-6.7-19.4-7.301-23.7-.9-.4.7-1.7.1-3.3-1.4l-2.601-2.5 3-2.699c4-3.601 10.2-5.101 17.8-4.5 6.9.5 11.5 2.699 14.7 7 1.9 2.6 2.101 4.3 2.4 23.3L544.1 316h-4c-3.2 0-3.9-.3-3.5-1.5.8-1.899.5-1.899-4.7.5-4.201 1.9-12.4 2.5-17.4 1.3zm18.5-9c2.6-2.399 3.1-3.6 3.3-8.3l.2-5.5-9-.3c-10.101-.2-13.301.8-15.4 5.2-1.7 3.7-.4 8.7 2.9 10.3 1.399.7 5.3 1.3 8.699 1.3 5.401 0 6.701-.4 9.301-2.7zM375 291v-25h3.5c3.1 0 3.5.301 3.5 2.7 0 2.4.1 2.5 1.8 1 4.8-4.399 13.5-5.899 19.6-3.3 4.7 2 5.3 3.4 2.3 6.3-2.399 2.4-2.6 2.5-4.8.9-3.7-2.5-10.2-2.101-13.8 1-4.3 3.6-5.1 7.7-5.1 25.7V316h-7v-25zm81.1 0l-.1-25h4c3.3 0 4 .301 4 2 0 2.5.399 2.5 3.899-.1 1.8-1.3 4.9-2.2 8.7-2.6 7.7-.601 13.9 2.3 17.1 8.199C495.8 277.3 496 278.699 496 296.8V316h-6.8l-.399-18.199c-.2-15.5-.601-18.7-2.101-20.9-4.699-7-17.3-6.4-21.199 1.1-1.2 2.301-1.5 6.7-1.5 20.5V316h-7.9v-25z"/></svg><svg id="mail" data-name="Layer 1" width="64" height="48" viewBox="0 0 64 48" y="91.512" xmlns="http://www.w3.org/2000/svg"><defs><style>.gcls-1{fill:#fff}</style></defs><title>mail</title><path class="gcls-1" d="M0 0v8l32 16L64 8V0H0zm0 16v32h64V16L32 32z"/></svg><svg width="64" height="64" viewBox="0 0 128 128" id="parking" x="200.925" y="64" xmlns="http://www.w3.org/2000/svg"><path fill="#fff" d="M23.521 11.512h44.93c13.359 0 23.601 2.977 30.727 8.93 7.171 5.906 10.757 14.344 10.758 25.313-.001 11.016-3.587 19.5-10.758 25.453-7.126 5.906-17.367 8.859-30.727 8.859h-17.86v36.422h-27.07V11.512m27.07 19.617v29.32h14.977c5.25 0 9.305-1.266 12.164-3.797 2.859-2.578 4.289-6.211 4.289-10.898s-1.43-8.297-4.289-10.828-6.914-3.797-12.164-3.797H50.591"/></svg><svg id="star" data-name="Layer 1" width="64" height="64" viewBox="0 0 64 64" x="200.925" xmlns="http://www.w3.org/2000/svg"><defs><style>.icls-1{fill:#0067b1}</style></defs><title>star</title><path class="icls-1" d="M32 0l-8 24H0l20 16-8 24 20-16 20 16-8-24 20-16H40z"/></svg><svg width="64.425" height="64.003" viewBox="0 2.059 64.425 64.003" id="ticket" x="136.5" xmlns="http://www.w3.org/2000/svg"><g fill="#fff"><path d="M52.728 30.893L29.249 54.365c-.457.457-1.025.686-1.711.686-.686 0-1.254-.229-1.711-.686L12.086 40.61c-.477-.483-.726-1.051-.726-1.71s.242-1.229.726-1.712l23.472-23.465c.457-.458 1.025-.687 1.711-.687.686 0 1.253.229 1.711.687l13.754 13.748c.477.477.719 1.051.719 1.71a2.362 2.362 0 0 1-.725 1.712m10.293-7.602l-4.787-4.748c-1.417 1.417-3.142 2.122-5.166 2.122s-3.749-.711-5.166-2.122c-1.417-1.417-2.129-3.142-2.129-5.166 0-2.025.712-3.749 2.129-5.166l-4.748-4.749c-.934-.94-2.083-1.404-3.436-1.404s-2.501.463-3.435 1.404L1.833 37.875c-.941.94-1.411 2.083-1.411 3.442 0 1.352.47 2.501 1.411 3.435l4.748 4.788c1.417-1.417 3.141-2.129 5.166-2.129 2.024 0 3.749.712 5.166 2.129 1.418 1.417 2.123 3.141 2.123 5.166 0 2.025-.705 3.75-2.123 5.166L21.7 64.66c.935.933 2.084 1.403 3.436 1.403 1.352 0 2.501-.47 3.435-1.403l34.45-34.491c.941-.933 1.404-2.083 1.404-3.435 0-1.36-.464-2.503-1.404-3.443"/><path d="M37.27 17.177l12.003 12.004-21.728 21.722-12.004-11.997L37.27 17.177z"/></g></svg><svg id="twitter" data-name="Layer 1" width="51.78" height="42.06" viewBox="0 0 51.78 42.06" x="64" y="91.512" xmlns="http://www.w3.org/2000/svg"><defs><style>.kcls-1{fill:#fff}</style></defs><title>twitter</title><path class="kcls-1" d="M51.78 5a22.23 22.23 0 0 1-5.32 5.52v1.38a30.15 30.15 0 0 1-1.25 8.53 30.81 30.81 0 0 1-3.76 8.13 32.1 32.1 0 0 1-6.06 6.92 27 27 0 0 1-8.48 4.8 31 31 0 0 1-10.62 1.8A29.47 29.47 0 0 1 0 37.29a22.71 22.71 0 0 0 2.56.13 20.78 20.78 0 0 0 13.17-4.53 10.63 10.63 0 0 1-9.92-7.36 13.45 13.45 0 0 0 2 .16 11 11 0 0 0 2.79-.36 10.44 10.44 0 0 1-6.09-3.67 10.25 10.25 0 0 1-2.41-6.75v-.13a10.52 10.52 0 0 0 4.8 1.34 10.6 10.6 0 0 1-3.45-3.78 10.34 10.34 0 0 1-1.28-5.07 10.4 10.4 0 0 1 1.45-5.33 30.08 30.08 0 0 0 9.71 7.83A29.57 29.57 0 0 0 25.53 13a11.79 11.79 0 0 1-.26-2.43 10.23 10.23 0 0 1 3-7.48 10.64 10.64 0 0 1 15 0l.21.22A20.81 20.81 0 0 0 50.33.8a10.3 10.3 0 0 1-4.67 5.85A21.14 21.14 0 0 0 51.78 5z"/></svg><svg width="43.679" height="30.6" viewBox="0 90 873.586 612" id="youtube" x="115.78" y="91.512" xmlns="http://www.w3.org/2000/svg"><path fill="#fff" d="M856.08 185.76c-10.08-37.44-39.6-66.96-77.04-77.04C710.64 90 437.04 90 437.04 90s-273.6 0-342 18C58.32 118.08 28.08 148.32 18 185.76 0 254.16 0 396 0 396s0 142.56 18 210.24c10.08 37.439 39.6 66.96 77.04 77.04 69.12 18.72 342 18.72 342 18.72s273.6 0 342-18c37.439-10.08 66.96-39.6 77.04-77.04 18-68.4 18-210.24 18-210.24s.72-142.56-18-210.96z"/><path fill="red" d="M349.92 527.04L577.439 396 349.92 264.96z"/></svg></svg>