<?xml version="1.0" encoding="utf-8"?>
<!-- Generator: Adobe Illustrator 16.0.0, SVG Export Plug-In . SVG Version: 6.00 Build 0)  -->
<!DOCTYPE svg PUBLIC "-//W3C//DTD SVG 1.1//EN" "http://www.w3.org/Graphics/SVG/1.1/DTD/svg11.dtd">
<svg version="1.1" id="Layer_1" xmlns="http://www.w3.org/2000/svg" xmlns:xlink="http://www.w3.org/1999/xlink" x="0px" y="0px"
	 width="30.131px" height="64.985px" viewBox="0 -8.61 30.131 64.985" enable-background="new 0 -8.61 30.131 64.985"
	 xml:space="preserve">
<g>
	<g>
		<path fill="#ffffff" d="M29.649,9.761c0.715-4.621,0.634-9.292-0.24-13.886l-0.407-2.134c-0.221-1.164-1.239-2.005-2.423-2.005
			H3.552c-1.185,0-2.202,0.842-2.424,2.005L0.722-4.125C-0.153,0.468-0.233,5.14,0.482,9.761L5.76,43.846
			C6.104,47,4.7,50.073,2.088,51.878c-0.888,0.613-1.274,1.733-0.953,2.764c0.321,1.031,1.276,1.733,2.355,1.733h23.15
			c1.08,0,2.034-0.702,2.355-1.732c0.321-1.031-0.065-2.151-0.954-2.765c-2.612-1.804-4.016-4.878-3.672-8.032L29.649,9.761z
			 M21.129,51.44H9.002c1.378-2.444,1.987-5.303,1.656-8.2c-0.004-0.033-0.008-0.065-0.014-0.098L6.25,14.763h17.631l-4.394,28.38
			c-0.005,0.033-0.01,0.065-0.014,0.098C19.141,46.137,19.75,48.996,21.129,51.44z M5.854,9.828c-0.124,0-0.245,0.012-0.364,0.029
			L5.358,9.006C4.729,4.944,4.8,0.836,5.569-3.201L5.594-3.33h18.943l0.024,0.129c0.77,4.038,0.84,8.145,0.211,12.206l-0.127,0.823
			H5.854z"/>
	</g>
</g>
</svg>
