<?xml version="1.0" encoding="utf-8"?>
<!-- Generator: Adobe Illustrator 16.0.0, SVG Export Plug-In . SVG Version: 6.00 Build 0)  -->
<!DOCTYPE svg PUBLIC "-//W3C//DTD SVG 1.1//EN" "http://www.w3.org/Graphics/SVG/1.1/DTD/svg11.dtd">
<svg version="1.1" id="Layer_1" xmlns="http://www.w3.org/2000/svg" xmlns:xlink="http://www.w3.org/1999/xlink" x="0px" y="0px"
	 width="65.68px" height="65.512px" viewBox="0 0.685 65.68 65.512" enable-background="new 0 0.685 65.68 65.512"
	 xml:space="preserve">
<g>
	<g transform="translate(0.000000,424.000000) scale(0.100000,-0.100000)">
		<path fill="#ffffff" stroke="#FFFFFF" stroke-miterlimit="10" d="M153.184,4224.345c-47.529-9.878-80.571-41.958-84.287-81.797
			c-2.046-22.197,7.983-47.891,25.068-63.853l7.798-7.144H67.231c-40.093,0-46.035-1.221-50.303-9.736
			c-4.268-8.213-4.082-146.411,0-153.715c3.525-5.923,8.535-8.213,19.492-8.662l8.35-0.464l0.933-152.031
			c1.113-170.439,0-158.574,14.292-161.777c9.834-2.28,540.762-2.28,550.596,0c14.297,3.203,13.184-8.662,14.297,161.777
			l0.933,152.041l8.354,0.459c10.952,0.464,15.967,2.734,19.487,8.662c4.082,7.305,4.268,145.507,0,153.72
			c-4.268,8.506-10.21,9.731-50.308,9.731h-34.526l7.798,7.148c17.085,15.962,27.1,41.66,25.059,63.853
			c-3.34,37.09-33.037,68.267-75.557,79.668c-19.126,5.166-50.679,5.166-68.13,0c-26.729-8.066-41.948-18.706-62.749-44.248
			c-16.147-19.917-41.768-60.811-55.503-88.481c-1.855-4.111-3.896-7.3-4.448-7.3c-0.557,0-2.607,3.188-4.448,7.3
			c-13.74,27.671-39.37,68.564-55.508,88.481c-20.791,25.542-36.392,36.499-62.754,44.097
			C197.554,4226.484,168.594,4227.548,153.184,4224.345z M193.101,4192.421c10.391-1.372,23.755-7.305,31.929-13.989
			c11.689-9.736,28.027-31.772,46.221-62.031c9.458-15.811,18.56-31.475,20.229-34.517l2.793-5.771h-42.144
			c-46.211,0-79.263,2.583-99.502,7.607c-15.22,3.945-30.259,15.049-37.871,28.428c-4.448,7.749-5.01,10.645-5.01,24.019
			c0,13.384,0.552,16.279,5.01,23.877c9.849,17.334,30.815,30.562,52.539,33.14C176.572,4194.389,179.36,4194.248,193.101,4192.421z
			 M514.253,4190.751c18.013-4.561,33.037-15.508,41.772-30.869c4.268-7.446,4.824-10.493,4.824-23.716
			c0-13.374-0.557-16.27-5.005-24.019c-6.685-11.558-21.904-23.716-34.355-27.373c-19.668-5.781-37.31-7.295-92.07-8.213
			l-53.276-0.908l2.974,5.928c7.983,16.113,38.794,65.371,48.628,77.393c13.369,16.729,21.914,24.028,33.784,28.896
			C477.676,4194.555,495.127,4195.468,514.253,4190.751z M242.48,3984.893v-53.213h-93.755H54.98v53.213v53.208h93.745h93.755
			V3984.893z M389.131,3984.893v-53.213h-53.833H281.46v53.213v53.208h53.838h53.833V3984.893z M615.61,3984.893v-53.213h-93.745
			H428.11v53.213v53.208h93.755h93.745V3984.893z M242.109,3757.891l0.371-140.942h-78.896H84.687v140.342
			c0,77.227,0.552,140.942,1.299,141.392c0.747,0.605,36.011,0.913,78.34,0.757l77.227-0.464L242.109,3757.891z M388.755,3758.042
			l0.366-141.094h-53.823H281.46v140.342c0,77.227,0.552,140.942,1.299,141.392c0.742,0.605,24.683,0.913,53.276,0.757l52.158-0.464
			L388.755,3758.042z M585.532,3757.891l0.371-140.942h-78.901H428.11v140.342c0,77.227,0.566,140.942,1.299,141.392
			c0.752,0.605,36.016,0.913,78.35,0.757l77.217-0.464L585.532,3757.891z"/>
	</g>
</g>
</svg>
