<?xml version="1.0" encoding="utf-8"?>
<!-- Generator: Adobe Illustrator 16.0.0, SVG Export Plug-In . SVG Version: 6.00 Build 0)  -->
<!DOCTYPE svg PUBLIC "-//W3C//DTD SVG 1.1//EN" "http://www.w3.org/Graphics/SVG/1.1/DTD/svg11.dtd">
<svg version="1.1" id="Layer_1" xmlns="http://www.w3.org/2000/svg" xmlns:xlink="http://www.w3.org/1999/xlink" x="0px" y="0px"
	 width="1373px" height="266px" viewBox="0 0 1373 266" enable-background="new 0 0 1373 266" xml:space="preserve">
<path fill="#cccccc" d="M69.469,134.899c-3.141-0.994-2.647-1.158,2.48-0.662c8.1,0.994,9.753-0.164,10.416-7.271
	c0.166-3.143,1.819-8.928,3.638-13.063c3.472-7.77,4.298-16.037,1.818-17.523c-1.984-1.324-10.085,5.287-10.085,8.267
	c0,1.322-0.994,2.313-2.315,2.313c-1.321,0-2.811,1.322-3.472,2.977c-1.653,4.794-12.4,11.903-18.353,11.903
	c-7.109,0-12.729-4.793-13.227-11.406c-0.166-2.812,0.331-5.621,1.157-6.117c0.826-0.496,1.488,1.653,1.488,4.63
	c0,7.108,2.479,9.588,9.919,9.588s14.218-4.791,23.146-16.035c4.793-6.282,7.771-8.764,10.747-8.764
	c5.952,0,6.283,4.629,1.819,19.18c-2.313,7.109-3.966,13.228-3.637,13.557c1.488,1.486,11.244-5.126,12.566-8.432
	c1.157-2.812,1.486-2.977,1.486-0.662c0.167,2.812-3.472,7.111-9.093,10.58c-3.139,1.819-3.139,1.819,0.167,4.465
	c2.646,1.984,2.811,2.479,0.827,2.646c-1.488,0-3.473-0.825-4.629-1.983c-1.488-1.485-2.151-1.154-2.978,0.828
	C82.2,136.883,76.413,137.378,69.469,134.899L69.469,134.899z M140.726,132.583c-4.629-4.133-9.752-14.879-7.771-16.862
	c0.498-0.496,1.325,0.497,1.984,2.151c3.141,9.752,4.794,12.398,9.424,14.711c2.645,1.324,6.778,2.479,8.928,2.479
	c4.629,0,13.722-5.785,13.722-8.762c0-0.992,1.653-3.474,3.472-5.621c2.976-2.978,3.306-4.133,1.488-6.283
	c-2.811-3.472-6.117-3.139-8.597,0.827c-3.141,4.96-7.274,4.134-9.424-1.818c-1.984-5.953-2.48-42.158-0.496-43.315
	c0.662-0.496,1.157,9.093,1.157,21.161c0,25.131,1.323,28.768,8.1,22.486c2.978-2.811,5.291-3.638,8.101-2.811
	c3.472,0.826,3.968,0.496,3.307-2.314c-0.496-1.818,0-3.307,0.992-3.307c1.157,0,1.82,3.143,1.82,8.102
	c0,21.492,23.477,29.76,33.066,11.572c1.818-3.638,3.307-7.605,3.307-8.928c0-4.133-3.474-4.629-6.78-0.991
	c-1.819,1.983-4.629,3.472-6.283,3.472c-4.793,0-9.258-13.227-5.125-15.705c0.992-0.66,1.653,1.155,1.653,4.463
	c0,2.977,0.827,6.613,1.653,7.937c1.322,1.983,2.149,1.819,5.456-1.323c2.149-1.982,5.621-3.637,7.771-3.637
	c3.637,0,3.637,0.496,2.811,8.266l-0.99,8.432l4.794-3.473c6.446-4.629,6.944-5.455,6.944-14.053
	c0.166-3.967,0.827-6.943,1.653-6.447c1.982,1.156,1.653,10.25-0.498,14.383c-0.992,1.984-3.803,5.621-5.952,8.103
	c-3.803,3.968-4.133,9.259-0.496,7.108c0.827-0.495,1.818-0.166,2.48,0.826c0.66,0.994-0.827,1.652-3.307,1.652
	c-2.976,0-4.794-0.99-5.291-3.306c-1.157-4.134-1.488-4.134-7.44,0.825c-9.424,8.103-22.981,4.631-28.933-7.107l-3.637-7.275
	l-3.307,6.78C164.368,136.883,150.314,140.521,140.726,132.583z M272.824,134.073l-4.134-2.479l4.96,1.155
	c15.54,3.638,24.965,0.828,32.735-9.59c3.968-5.455,2.811-13.393-1.818-11.737c-2.313,0.825-2.479,0.659-0.661-1.323
	c2.479-2.646,7.439-0.331,8.268,4.134c0.991,4.629-7.44,15.539-14.55,19.179C290.019,137.378,278.61,137.71,272.824,134.073z
	 M373.179,135.063c-11.903-3.637-23.807-18.186-29.263-36.041c-3.639-11.904-3.969-14.219-1.82-12.73
	c0.826,0.496,2.479,5.127,3.474,10.416c1.983,9.754,10.579,24.472,18.187,31.248c5.62,4.959,16.697,7.771,25.129,6.447
	c4.96-0.662,6.448-0.498,4.631,0.659C390.537,137.048,379.627,137.048,373.179,135.063z M430.383,134.073
	c-9.92-4.961-13.723-22.486-7.109-33.396c3.803-6.282,16.203-14.551,25.296-17.029c3.473-0.826,7.605-1.982,9.093-2.479
	c2.313-0.827,2.149-0.496-0.329,1.652c-1.819,1.486-4.631,2.646-6.283,2.646c-5.29,0-19.343,8.434-24.47,14.549
	c-3.968,4.794-4.96,7.605-4.96,13.557c0,10.746,4.3,16.863,13.724,19.674c15.045,4.3,26.618-3.967,12.729-9.26
	c-10.417-3.967-10.087-19.672,0.827-27.938c3.139-2.314,6.941-3.968,8.595-3.638c3.308,0.662,5.787,9.754,3.639,13.228
	c-0.992,1.321-1.486,0-1.486-3.97c0-4.959-0.661-6.28-2.978-6.28c-4.63,0-10.416,4.959-12.896,11.076
	c-3.307,7.604-0.331,13.393,7.606,16.036c7.604,2.48,8.432,7.439,1.817,11.406C447.247,137.378,437.327,137.544,430.383,134.073
	L430.383,134.073z M503.955,133.411c-7.275-3.967-12.567-10.912-15.541-20.832c-1.158-3.968-1.819-7.273-1.486-7.273
	c0.329,0,2.479,4.134,4.793,9.424c4.133,8.764,9.754,15.376,16.863,19.84C513.544,137.71,510.733,136.883,503.955,133.411z
	 M518.834,135.063c3.14-0.658,6.282-1.982,7.272-2.975c0.993-0.992,2.646-1.323,3.638-0.992c2.148,0.826,9.261-6.285,12.566-12.566
	c1.322-2.646,1.485-4.134,0.165-5.457c-1.321-1.322-3.803-0.33-9.094,3.474c-9.754,6.942-14.879,6.778-21.823-0.66
	c-4.133-4.3-5.619-7.274-5.456-11.077l0.166-5.29l1.82,5.455c2.148,7.11,9.753,15.211,14.218,15.211c1.984,0,6.283-2.646,9.92-5.787
	c7.607-6.776,11.242-7.272,12.73-1.651c2.313,9.588-13.723,24.139-26.122,23.807l-5.456-0.166L518.834,135.063z M578.849,135.229
	c9.424-1.82,16.698-7.111,21.493-15.377c4.299-7.273,4.464-8.1,2.313-12.4c-1.323-2.645-2.479-5.619-2.479-6.777
	c0-0.991-2.812-4.629-6.117-7.936c-3.638-3.475-4.795-5.291-2.811-4.135c5.125,2.48,12.233,11.406,12.233,15.211
	c0,4.793,2.148,3.803,6.446-3.474c4.3-6.778,17.688-15.21,27.94-17.36c2.976-0.658,5.95-2.148,6.445-3.471
	c0.826-2.314,3.805-1.654,3.805,0.826c0,1.652-6.78,4.464-14.054,6.117c-7.439,1.652-20.501,10.416-23.146,15.705
	c-3.638,6.942-3.142,19.014,0.992,24.801c1.817,2.645,3.968,4.462,4.629,3.966c0.827-0.331,2.811,0.331,4.464,1.653
	c3.803,2.811,8.432,3.142,15.376,0.662c6.613-2.315,6.282-6.944-0.659-8.103c-5.622-0.992-9.094-6.446-9.094-14.384
	c0-3.967,1.652-7.109,6.283-12.069c6.281-6.446,10.25-8.432,10.25-4.96c0,0.994-0.994,1.653-2.314,1.653
	c-3.473,0-12.565,11.077-12.565,15.376c0,4.96,4.463,11.076,7.937,11.076c1.653,0,4.63,1.158,6.779,2.812l3.968,2.646l-0.827-16.697
	c-0.496-9.26-0.167-16.368,0.66-15.872c0.661,0.496,1.323,8.596,1.323,17.854c0,15.873,0.329,17.36,3.804,19.674
	c2.976,2.149,3.14,2.646,0.826,2.646c-1.488,0.166-3.804-0.993-5.29-2.313c-2.149-2.313-2.978-2.148-7.938,0.826
	c-2.976,1.819-7.936,3.307-10.913,3.307c-7.769,0-18.352-5.786-20.336-11.242c-0.826-2.479-1.982-5.621-2.479-6.943
	c-0.659-1.652-1.818-0.66-4.135,3.637c-4.463,8.599-13.722,14.55-22.151,14.386l-6.613-0.168L578.849,135.229L578.849,135.229z
	 M764.68,135.229c14.549-3.307,21.325-9.92,24.138-23.313l1.157-5.787l0.165,5.621c0.331,12.729-12.232,25.295-24.964,24.799
	l-5.456-0.33L764.68,135.229z M4.991,131.923c-2.314-4.465-0.661-7.439,5.952-11.077c3.141-1.653,6.117-4.464,6.613-6.117
	s1.323-2.646,1.82-2.313c1.819,1.982-1.82,7.938-6.284,10.25c-4.96,2.646-6.282,6.943-2.809,10.416
	c1.486,1.488,1.323,1.982-0.826,1.982C7.967,135.063,5.982,133.577,4.991,131.923L4.991,131.923z M20.862,133.245
	c0.496-0.826,4.794-1.486,9.424-1.321c9.754,0.166,8.928,0.825-2.48,1.981C23.508,134.237,20.366,134.073,20.862,133.245z
	 M95.261,133.079c0.496-0.658,5.787-1.321,11.904-1.154c13.061,0.165,11.903,0.992-2.48,1.818
	C99.063,134.073,94.765,133.907,95.261,133.079L95.261,133.079z M127.83,132.089c3.141-3.307,2.149-5.291-2.314-5.291
	c-2.976,0-8.1-4.133-8.1-6.613c0-1.984,12.069,4.629,13.722,7.607c1.488,2.645-1.157,7.271-4.298,7.271
	C126.012,135.063,126.343,133.741,127.83,132.089z M225.705,133.411c1.157-1.983,13.557-2.313,14.713-0.33
	c0.331,0.66-2.976,1.487-7.44,1.652C227.688,134.899,225.043,134.403,225.705,133.411z M254.308,133.245
	c2.976-3.141,2.479-6.117-1.158-7.272c-6.444-1.983-8.432-12.07-8.432-42.986c0-18.352,0.66-29.098,1.819-29.76
	c1.156-0.826,1.486,8.929,1.321,31.58l-0.329,32.735l6.282,5.125c6.613,5.621,7.44,11.076,1.653,12.068
	C252.819,135.229,252.488,134.899,254.308,133.245z"/>
<path fill="#cccccc" d="M401.121,133.577c7.771-1.983,8.928-3.143,8.928-9.094c0-2.811,0.659-5.953,1.485-6.779
	c0.826-0.992,2.646-4.793,3.969-8.764c2.313-6.447,2.313-7.109-0.496-8.598c-4.464-2.313-6.613-1.983-7.938,1.322
	c-3.636,8.268-9.422,15.211-16.035,18.685l-7.438,3.968l-3.637-3.803l-3.804-3.803l4.464,1.983c7.272,3.14,12.232,0.66,19.179-9.754
	c8.1-12.399,9.259-13.557,14.219-13.557c6.282,0,6.447,4.3,0.496,22.317l-5.289,16.533l-6.613,0.331
	C396.323,134.899,396.323,134.733,401.121,133.577z M461.961,133.245c-0.826-1.321,0.167-1.651,3.307-1.155
	c2.48,0.495,6.943,0.329,9.92-0.331c2.812-0.66,6.943-0.496,8.928,0.167c5.786,2.147,6.778-2.979,1.486-7.275
	c-2.313-1.983-4.793-5.786-5.289-8.597c-0.826-4.796-0.826-4.796,0.826-0.828c0.992,2.314,4.134,6.117,6.942,8.434
	c4.464,3.637,4.795,4.629,3.142,7.77c-1.818,3.307-3.307,3.637-15.045,3.637C468.242,135.063,462.621,134.403,461.961,133.245z
	 M550.412,132.253c-1.982-2.646-1.982-2.81,0.168-0.991c1.322,0.991,4.299,2.149,6.612,2.646l4.134,0.661l-4.301,0.331
	C554.546,134.899,551.569,133.741,550.412,132.253L550.412,132.253z M687.304,132.915c0.497-0.826,6.613-1.157,13.557-0.992
	c6.944,0.328,13.559,0,14.549-0.661c2.48-1.488,0.994-6.117-2.148-6.117c-4.793,0-7.272-6.944-6.943-19.84l0.33-12.399l0.827,13.228
	l0.993,13.227l6.283,3.308c4.96,2.646,6.116,4.133,5.786,7.438c-0.496,4.134-0.661,4.134-17.194,4.134
	C694.084,134.237,686.81,133.577,687.304,132.915z M736.573,133.245c-1.819-2.646-0.331-2.811,4.135-0.33
	c3.966,1.984,3.966,2.148,0.494,2.148C739.219,135.063,737.069,134.237,736.573,133.245z M49.299,132.253
	c1.984-0.328,5.291-0.328,7.439,0c1.984,0.33,0.331,0.662-3.802,0.662C48.803,132.915,47.149,132.583,49.299,132.253z
	 M262.408,126.962c-4.3-5.127-8.764-16.203-7.273-17.689c0.496-0.496,1.653,1.984,2.811,5.456c1.158,3.472,3.968,8.267,6.282,10.747
	c2.316,2.479,3.803,4.959,3.307,5.455C267.039,131.427,264.723,129.608,262.408,126.962z M671.598,125.641
	c-4.63-1.653-6.942-10.249-6.942-26.453c0-20.005-2.314-34.719-6.284-40.008c-1.485-2.151-5.951-5.127-9.753-6.613
	c-9.261-3.638-10.416-5.29-2.313-3.142c7.273,1.818,14.384,7.936,17.193,14.549c0.991,2.314,2.148,14.88,2.812,28.105
	c0.659,13.559,1.981,25.627,3.14,27.775c2.314,4.301,9.261,4.96,14.714,0.993c3.968-2.646,4.794-1.322,1.486,2.646
	C683.668,125.972,675.897,127.128,671.598,125.641L671.598,125.641z M288.199,121.837c-7.604-1.818-15.375-11.242-15.375-18.516
	c0.165-2.646,0.826-1.982,2.479,2.811c2.646,7.273,9.259,14.053,13.887,14.053c1.653,0,4.96-1.486,7.439-3.473
	c2.313-1.819,4.3-2.812,4.3-1.983c-0.167,1.488-5.953,8.929-6.943,8.597C293.821,123.161,291.176,122.665,288.199,121.837z
	 M566.945,119.192c-3.307-2.314-7.438-6.779-9.094-9.92c-3.637-6.779-6.445-7.109-8.762-0.993l-1.653,4.464l0.331-4.959
	c0.165-3.639,1.322-5.127,3.966-5.457c2.812-0.496,5.127,1.488,9.591,7.605c7.109,9.92,14.55,13.393,19.343,9.26
	c1.652-1.652,2.978-3.637,2.978-4.795c0-2.811-6.284-8.1-16.368-13.391c-4.959-2.647-10.746-7.109-13.061-10.088
	c-4.629-5.786-6.942-5.619-6.942,0.33c0,4.465-2.978,5.955-12.07,5.457l-6.941-0.166l8.267-0.991
	c7.272-0.827,8.268-1.488,8.764-5.128c0.33-2.313,1.321-4.959,2.147-6.116c0.992-0.992,0.992-2.313,0.166-2.646
	c-0.66-0.496-2.313-4.795-3.636-9.425c-1.653-6.282-3.474-9.093-6.117-10.085c-2.148-0.826-3.803-2.811-3.803-4.629
	c0-1.984-1.82-3.805-4.96-4.96c-2.646-0.826-4.96-1.983-4.96-2.479c0-0.498,2.148,0,4.96,0.826
	c5.619,1.982,12.896,10.086,15.209,16.698c1.82,5.125,4.631,6.282,4.631,1.984c0-5.621,7.109-14.386,14.382-17.527
	c4.134-1.817,7.771-2.81,8.268-2.313c0.66,0.496-1.818,2.148-5.456,3.638c-8.433,3.473-12.896,8.927-15.376,19.014
	c-1.983,7.272-1.818,8.597,0.495,11.242c1.488,1.653,2.647,3.472,2.647,4.133c0,1.984,7.604,7.604,18.846,14.22
	c12.399,7.273,15.541,13.393,9.425,18.354C577.03,124.483,574.053,124.317,566.945,119.192L566.945,119.192z M754.429,120.185
	c-2.977-1.652-7.274-6.117-9.589-9.92c-4.795-7.439-5.127-7.605-9.424-3.803c-3.308,2.977-4.134,0.662-0.994-2.479
	c3.805-3.803,7.606-1.983,13.558,6.282c3.307,4.629,7.937,9.094,10.25,9.92c8.598,3.307,14.054-4.96,7.771-11.904
	c-1.487-1.652-1.82-2.976-0.826-2.976c3.307,0,7.271,9.589,5.456,13.062C767.488,124.152,762.034,124.813,754.429,120.185z
	 M115.762,98.196c0-11.574,0.66-19.51,1.653-20.171c1.322-0.827,1.486,4.96,0.66,18.517c-0.66,10.748-1.323,19.841-1.653,20.171
	C116.092,117.042,115.762,108.776,115.762,98.196z M369.872,109.438c-1.487-3.141-3.142-8.927-3.638-12.896l-0.827-6.942
	l1.653,6.613c0.992,3.637,3.14,9.424,5.126,12.896c1.82,3.307,2.646,6.117,1.82,6.117
	C373.345,115.225,371.36,112.579,369.872,109.438z M688.297,104.478c0-6.281,0.331-8.762,0.66-5.29c0.33,3.308,0.33,8.597,0,11.573
	C688.628,113.571,688.297,110.927,688.297,104.478z M132.79,105.305c0-4.96,0.331-7.108,0.661-4.464c0.329,2.48,0.329,6.447,0,9.094
	C133.121,112.413,132.79,110.265,132.79,105.305z"/>
<path fill="#cccccc" d="M756.412,102.659c-10.25-5.455-17.193-10.912-18.685-15.209c-3.307-8.268-4.133-12.399-2.313-11.242
	c0.825,0.496,2.148,3.472,2.646,6.613c0.993,5.618,10.746,15.87,15.046,15.87c0.827,0,3.474,1.488,5.787,3.308
	C763.853,105.966,763.026,106.132,756.412,102.659z M785.346,99.353c-3.638-5.621-15.047-14.053-25.131-18.518
	c-2.646-0.99-4.629-2.646-4.629-3.471c0-1.654,15.539,6.612,25.296,13.392c4.464,3.142,10.415,12.399,8.926,13.888
	C789.313,105.14,787.328,102.825,785.346,99.353z M39.875,74.388c0-15.539,0.496-28.766,1.157-29.262
	c1.157-0.66,0.827,46.621-0.331,54.393C40.371,101.337,40.04,90.095,39.875,74.388z M253.48,92.905c0-5.455,0.331-7.438,0.661-4.464
	c0.329,2.978,0.329,7.439,0,9.919C253.812,100.841,253.48,98.36,253.48,92.905z M486.595,94.559c0-4.464,0.331-6.282,0.66-3.638
	c0.331,2.479,0.331,6.117,0,8.267C486.926,101.172,486.595,99.188,486.595,94.559z M279.106,97.37
	c-7.108-1.488-3.472-8.268,6.117-11.408c2.811-0.826,5.787-3.307,6.778-5.288c1.487-2.647,2.313-3.142,3.142-1.654
	c1.653,2.479-6.282,9.754-10.581,9.754c-3.803,0-5.125,1.487-3.967,4.3c0.66,1.982,3.967,2.313,15.707,1.982
	c13.227-0.496,15.045-0.827,16.366-3.803c1.156-3.141,1.321-3.141,1.321,0.33c0.167,1.983-0.496,3.968-1.321,4.463
	C311.016,97.204,283.074,98.36,279.106,97.37z M508.748,94.559c-1.323-3.14,1.651-4.793,3.307-1.819
	c0.661,1.323,4.631,2.646,8.764,3.142c7.109,0.497,6.942,0.661-1.819,0.825C512.055,97.038,509.41,96.376,508.748,94.559z
	 M175.28,82.159c0-4.793,0.496-8.268,1.157-7.604c1.156,1.157,0.827,14.384-0.498,15.706
	C175.611,90.591,175.28,86.954,175.28,82.159z M364.417,86.456c-0.496-1.323-0.66-4.133-0.329-6.283
	c0.496-2.809,0.826-2.148,1.485,2.479C366.4,88.938,365.904,90.425,364.417,86.456L364.417,86.456z M519.165,86.292
	c3.14-1.486,6.281-3.473,6.941-4.629c0.661-1.158,1.324-1.158,1.324-0.332c0,3.475-2.812,5.787-8.267,6.613l-5.786,0.993
	L519.165,86.292z M504.614,79.679c0-7.109,0.661-9.094,5.127-13.557c2.812-2.978,6.446-5.457,7.937-5.457
	c3.142,0,8.598,6.781,10.416,12.896c1.984,6.117-0.496,4.133-3.307-2.809c-2.646-6.78-5.619-8.928-9.754-7.275
	c-3.307,1.158-7.438,8.928-7.605,14.055c0,2.148-0.66,5.289-1.323,7.108C505.277,86.788,504.781,85.3,504.614,79.679z
	 M707.806,83.646c-0.165-2.479,1.157-5.456,2.646-6.612c2.151-1.819,2.48-1.819,1.488-0.168c-0.827,1.324-1.984,4.301-2.646,6.613
	l-1.324,4.464L707.806,83.646z M478.162,78.025c-0.495-11.903-4.793-19.013-15.045-24.138c-4.63-2.314-8.929-4.795-9.424-5.291
	c-2.313-2.314,12.068,2.811,16.202,5.621c5.786,4.133,9.919,15.376,9.093,24.8l-0.659,7.274L478.162,78.025z M575.212,81.331
	c-4.3-2.148-8.101-5.289-8.433-6.943c-1.983-7.77,6.117-15.208,13.723-12.398c1.817,0.826,5.456,4.959,7.771,9.424
	c5.291,9.754,7.771,10.746,10.085,4.629l1.653-4.629l-0.33,4.959c-0.329,4.134-0.992,4.961-4.463,4.961
	c-2.979,0-4.96-1.653-7.606-6.613c-5.125-9.094-6.777-10.746-11.406-10.746c-5.289,0-8.434,5.621-5.952,10.913
	c0.991,2.147,2.479,3.967,3.472,3.967c0.827,0,3.966,1.487,6.942,3.308C588.272,86.788,584.47,86.126,575.212,81.331z
	 M312.669,81.167c-0.331-7.109-5.291-18.188-9.591-21.66c-2.479-1.982-3.968-4.299-3.141-4.961
	c3.475-3.471,15.21,18.686,13.725,26.125C312.999,84.308,312.999,84.308,312.669,81.167z M341.105,75.546
	c0-4.961,0.33-7.109,0.661-4.465c0.329,2.479,0.329,6.447,0,9.094C341.436,82.655,341.105,80.505,341.105,75.546z M194.789,81.167
	c-1.819-1.653-1.653-12.566,0.331-15.541c0.827-1.322,1.653-1.984,1.984-1.653C198.261,65.626,195.946,82.325,194.789,81.167z
	 M255.465,74.719c2.313-8.267,4.133-11.077,10.746-17.192c7.936-7.439,19.344-10.25,27.278-6.613
	c2.646,1.156,1.984,1.322-3.307,1.156c-11.573-0.33-13.394,0.166-20.666,5.953c-6.448,5.125-13.062,15.21-13.227,20.336
	c0,0.991-0.661,2.314-1.653,2.977C253.812,81.829,254.142,78.853,255.465,74.719z M428.399,79.845
	c-1.488-1.654-1.488-5.787-0.331-15.047c0.827-6.944,1.984-13.061,2.48-13.723c0.661-0.496,4.794-1.322,9.26-1.984
	c9.589-1.156,9.422,0.168-0.498,2.48c-7.604,1.983-8.926,4.463-9.258,19.344c-0.166,5.785,0.496,8.266,2.811,9.424
	c2.479,1.486,2.479,1.652,0.165,1.818C431.54,82.159,429.39,81.167,428.399,79.845L428.399,79.845z M488.578,75.05
	c1.322-4.299,4.3-10.416,6.613-13.557c5.125-6.613,16.202-12.4,23.313-12.233c4.299,0.165,4.299,0.329-1.653,1.653
	c-11.573,2.809-25.792,15.705-25.792,23.475c0,1.158-1.157,3.638-2.479,5.458C486.595,82.655,486.595,81.993,488.578,75.05z
	 M614.395,79.349c-0.992-2.313-0.826-2.48,0.827-0.992c2.646,2.645,8.101-0.166,8.101-4.465c0-1.652,1.982-5.455,4.3-8.266
	c3.472-3.967,5.456-4.961,9.424-4.629c6.117,0.66,12.231,7.936,10.085,12.398c-1.157,2.479-1.322,2.314-1.983-1.652
	c-0.66-5.621-7.272-10.416-11.243-8.103c-1.484,0.827-4.629,5.127-7.107,9.591C622.165,81.993,616.379,84.804,614.395,79.349
	L614.395,79.349z M772.78,73.562c-3.307-5.951-6.116-8.926-8.597-9.258c-4.793-0.662-8.596,2.314-8.596,6.777
	c0,2.646-0.498,2.979-1.82,1.653c-2.811-2.81,2.314-10.086,7.606-11.405c5.289-1.322,8.763,1.485,12.729,10.578
	c1.652,3.805,3.804,6.944,4.631,6.944c0.991,0,1.653,0.826,1.653,1.651C780.386,84.308,777.408,81.663,772.78,73.562z
	 M783.031,78.521c0.33-2.149,0.165-8.763-0.331-14.88l-1.156-11.242h-5.456c-2.977,0-5.786-0.496-6.282-1.322
	c-0.331-0.662,2.149-0.992,5.786-0.662c3.472,0.332,6.943,1.324,7.439,2.314c1.652,2.646,3.969,24.305,2.977,26.949
	C784.519,83.481,782.203,82.655,783.031,78.521z M97.575,75.876c0-5.455-2.647-8.267-9.424-10.086
	c-8.101-2.15-5.952-6.943,4.464-10.086c4.96-1.486,10.747-3.638,12.896-4.793c5.787-3.142,4.298-0.826-2.149,2.977
	c-3.141,1.818-8.267,3.803-11.573,4.463c-7.109,1.323-7.606,4.961-0.994,6.447c2.647,0.496,5.622,1.982,6.613,2.976
	c2.647,3.308,3.968,10.581,1.984,11.74C98.237,80.34,97.575,78.853,97.575,75.876z M134.278,75.546c0-3.141,0.329-4.465,0.827-2.812
	c0.329,1.487,0.329,4.134,0,5.786C134.608,80.009,134.278,78.687,134.278,75.546z"/>
<path fill="#cccccc" d="M437.327,75.38c0.659-2.148,2.646-6.447,4.463-9.26c3.805-6.446,8.764-7.109,15.211-1.982
	c3.306,2.646,4.3,4.793,4.133,9.422l-0.165,6.117l-1.82-7.439c-1.818-6.613-2.479-7.438-7.108-7.936
	c-4.135-0.331-6.117,0.496-8.764,3.968c-1.817,2.479-3.472,5.456-3.472,6.613c0,1.155-0.827,2.646-1.82,3.306
	C436.666,78.853,436.5,78.025,437.327,75.38L437.327,75.38z M272.824,71.909c0-4.793,6.613-11.242,11.573-11.242
	c3.472,0,7.439,4.464,9.093,9.92c0.992,3.637,0.66,3.474-2.148-0.992c-1.82-2.977-4.3-5.621-5.621-6.117
	c-3.472-1.157-8.103,1.982-10.416,7.604C272.989,76.372,272.989,76.372,272.824,71.909z M686.313,73.562
	c-0.166-1.486-1.819-3.967-3.803-5.289c-2.977-2.15-3.143-2.646-0.994-2.646c3.142,0,6.944,5.787,5.621,8.763
	C686.809,75.546,686.313,75.215,686.313,73.562z M116.423,72.073c-0.496-0.992-0.166-2.646,0.827-3.637
	c1.324-1.322,1.82-0.826,1.82,1.818C119.067,74.223,118.242,74.884,116.423,72.073z M713.262,71.413
	c0.167-0.826,3.638-1.486,7.438-1.157c8.929,0.661,11.74-1.653,11.74-10.248c0.166-7.275,2.149-5.787,3.967,3.139
	c0.993,4.465,0.496,5.291-4.299,7.275C725.992,73.231,712.27,73.892,713.262,71.413z M175.28,69.098
	c0-1.983,0.827-3.474,1.653-3.474c0.992,0,1.653,0.994,1.653,2.313c0,1.321-0.662,2.978-1.653,3.474
	C176.106,71.909,175.28,70.917,175.28,69.098z M598.025,69.429c-0.659-0.496-1.154-3.307-0.992-6.115l0.166-5.127l1.487,5.621
	C600.342,69.263,600.011,71.577,598.025,69.429z M133.617,67.114c-0.496-1.488-3.968-2.646-9.093-2.977
	c-4.794-0.33-2.149-7.938,3.968-11.904c4.133-2.646,7.769-7.273,10.912-13.557c4.464-8.928,5.125-9.59,9.919-9.094
	c2.811,0.332,5.291,1.487,5.787,2.646c0.496,1.488-0.331,1.653-3.307,0.498c-5.621-2.15-9.258,0.495-10.581,7.271
	c-0.66,3.638-2.976,7.274-6.282,9.92c-2.811,2.313-6.117,4.961-7.109,5.953c-2.314,1.818-2.976,6.613-0.827,6.115
	c2.646-0.658,8.597,2.315,8.597,4.631C135.601,69.263,134.443,69.759,133.617,67.114z M364.747,58.187
	c0.33-5.457,2.313-12.896,4.134-16.533c4.133-7.936,12.067-15.707,16.202-15.707c5.29,0,10.415,7.44,11.406,16.864
	c0.992,7.108,1.819,8.929,4.464,9.259c2.646,0.33,3.968-1.486,7.44-10.746c7.272-20.006,7.272-23.313-0.827-22.32
	c-2.978,0.33-3.141,0.33-0.33-1.321c1.486-0.992,4.298-1.323,6.117-0.827c3.966,1.323,4.629,9.92,0.991,14.88
	c-1.157,1.82-3.472,7.109-4.959,11.903c-3.143,9.424-5.952,12.564-10.416,11.738c-2.314-0.495-3.143-2.646-3.968-11.075
	c-0.66-7.606-1.984-11.244-4.135-12.897c-9.424-6.943-20.17,4.135-24.634,25.297l-2.313,11.405L364.747,58.187L364.747,58.187z
	 M614.891,61.989c0.661-4.63,0.994-4.793,1.488-1.486c0.33,2.148,0,4.464-0.827,5.291C614.559,66.784,614.395,65.294,614.891,61.989
	z M201.732,64.964c0-0.33,2.976-2.15,6.613-4.133c6.778-3.475,8.597-2.479,3.966,2.148
	C210.164,65.294,201.732,66.784,201.732,64.964z M341.602,60.665c2.479-12.729,13.557-34.885,15.21-30.09
	c0.331,0.993-0.992,3.308-2.811,5.127c-1.984,1.983-3.473,4.961-3.473,6.612c0,1.819-0.662,3.638-1.487,4.134
	c-0.66,0.496-2.313,4.465-3.473,8.764C342.924,64.8,340.113,68.767,341.602,60.665z M672.095,63.477
	c-0.826-1.983-0.497-3.968,0.992-5.456c2.811-2.646,14.88-5.456,12.233-2.646c-0.827,0.994-3.474,1.983-5.786,2.314
	c-2.646,0.33-4.301,1.818-5.127,4.629C673.417,65.956,673.25,66.122,672.095,63.477z M703.342,58.847l-1.157-6.779l-7.604,0.826
	c-6.944,0.826-7.275,0.662-3.474-1.486c7.605-4.133,11.242-2.976,13.393,4.133l1.983,6.447l6.117-6.447
	c6.115-6.446,11.406-8.101,16.533-4.793c1.817,1.156,1.155,1.652-3.308,1.819c-3.142,0.165-6.779,0.496-7.771,0.496
	c-1.157,0.165-3.968,2.976-6.283,6.446c-2.313,3.307-4.959,6.117-5.786,6.117S703.836,62.484,703.342,58.847z M737.4,62.98
	c0-2.647,8.596-10.251,13.723-12.069c2.646-0.992,7.108-1.819,9.92-1.651c4.299,0.164,3.638,0.495-3.475,2.313
	c-5.786,1.321-10.746,3.967-14.549,7.605C739.88,62.153,737.4,63.808,737.4,62.98z M114.438,52.069
	c-1.984-1.982-6.613-4.793-10.417-6.283c-8.596-3.14-11.242-8.432-6.446-13.227c1.819-1.818,4.96-3.307,7.109-3.139
	c3.307,0.164,3.307,0.164-0.827,1.652c-8.928,3.307-7.44,12.068,2.314,13.393c12.729,1.982,19.509-9.26,8.267-13.393
	c-2.48-0.826-3.307-1.652-1.984-1.652c3.966-0.168,9.919,4.629,9.919,7.936s-4.959,8.432-7.936,8.432
	c-2.978,0-2.314,1.653,1.818,4.961c1.984,1.652,3.307,3.474,2.646,3.968C118.407,55.21,116.423,54.053,114.438,52.069
	L114.438,52.069z M596.043,54.218c-0.497-0.992-3.969-1.818-7.439-1.818c-3.474,0-6.944-0.66-7.439-1.652
	c-0.661-0.992,1.818-1.323,6.941-0.659c7.938,1.155,11.904,2.976,10.087,4.793C597.696,55.54,596.705,55.21,596.043,54.218z
	 M615.057,54.384c0-2.811,3.966-4.961,11.075-5.621c8.267-0.66,7.771,1.486-0.827,2.977c-3.307,0.66-7.109,1.819-8.1,2.811
	C615.718,55.54,615.057,55.54,615.057,54.384z M20.366,48.267c0-3.639,0.331-4.961,0.662-2.811c0.329,1.982,0.329,4.959,0,6.612
	C20.532,53.557,20.201,51.903,20.366,48.267z M175.775,48.101c1.984-2.314,4.794-7.273,6.282-11.076
	c2.48-6.283,3.307-6.943,8.267-6.943h5.621l0.827,11.242c0.496,6.116,0.331,11.076-0.331,11.076c-1.819,0-3.472-7.771-2.48-11.406
	c0.992-4.133-1.653-8.434-5.291-8.434c-2.811,0-6.778,5.954-6.778,10.416c-0.167,2.646-5.954,9.424-8.102,9.424
	C172.8,52.399,173.626,50.415,175.775,48.101z M19.043,37.52c-0.662-1.817-3.968-5.29-7.607-7.771
	c-4.462-2.977-6.446-5.455-6.446-8.103c0-2.147,0.827-3.967,1.653-4.133c0.992,0,11.904-0.167,24.303-0.167
	c19.673,0,22.979,0.331,24.469,2.813c1.322,2.147,0.496,3.801-4.3,7.936c-3.307,2.977-6.779,6.779-7.769,8.597
	c-1.82,3.142-1.82,3.142-1.984-0.331c0-2.479,2.149-5.125,6.446-8.1c11.077-7.273,7.938-8.928-16.203-8.928
	c-21.989,0-27.112,1.158-23.477,5.457c0.994,1.324,3.637,2.977,5.787,3.473c3.637,0.827,8.928,10.251,6.944,12.068
	C20.532,40.827,19.705,39.503,19.043,37.52z M223.391,37.024c-1.157-1.488-4.133-2.813-6.446-3.142
	c-3.141-0.329-4.631-1.653-4.96-4.134c-0.332-2.148,0.329-3.803,1.321-3.803s1.486,0.661,0.826,1.487
	c-0.993,1.817,1.984,4.133,6.283,4.299c3.803,0.33,6.613,3.308,5.787,5.786C225.705,39.008,224.878,38.843,223.391,37.024z
	 M225.871,22.64c4.629-1.652,10.086-3.803,12.069-4.793c4.464-2.479,10.087,0.33,10.087,4.961c0,3.473,0,3.473-2.976-0.168
	l-2.979-3.803l-9.92,3.638c-5.456,1.819-11.075,3.472-12.399,3.308C218.431,25.782,221.242,24.294,225.871,22.64z M362.102,23.467
	c2.149-2.646,10.747-6.778,17.36-8.433c7.438-1.652,3.472,1.486-5.456,4.299c-4.301,1.488-7.607,3.307-7.44,4.301
	c0.166,0.826-1.157,1.818-2.978,1.818C360.944,25.782,360.614,25.286,362.102,23.467L362.102,23.467z M394.176,16.854
	c-2.977-2.149-2.977-2.313,0.661-1.323c1.983,0.496,4.134,1.488,4.63,2.315C400.789,20.161,397.813,19.663,394.176,16.854
	L394.176,16.854z"/>
<path fill="#cccccc" d="M507.095,133.411c-7.109-4.465-10.912-9.094-15.54-19.344c-12.234-26.617,2.811-61.172,27.61-63.32
	c6.612-0.66,14.88,3.142,14.88,6.779c0,1.818,1.652,3.803,3.803,4.629c2.479,0.992,4.298,3.967,5.951,9.424
	c1.322,4.463,2.977,8.927,3.803,10.086c0.827,1.158,0.827,2.314-0.329,2.977c-0.826,0.495-1.653,2.811-1.653,4.96
	c0,2.147-0.66,4.463-1.652,4.959c-3.308,1.983-30.257,0.994-31.579-1.155c-2.313-3.638-0.827-4.962,5.786-5.457
	c6.281-0.33,9.92-3.307,8.434-6.943c-0.331-1.155,0-2.479,0.992-3.141c3.637-2.148-4.96-17.193-9.92-17.193
	c-1.488,0-5.125,2.479-8.102,5.455c-4.961,5.127-5.288,5.955-4.299,14.385c0.661,4.96,0.992,13.723,0.826,19.344
	c-0.165,9.424,0.331,10.746,5.456,16.037c6.944,7.439,12.069,7.605,21.823,0.659c5.291-3.804,7.771-4.793,9.094-3.472
	c1.322,1.319,1.157,2.811-0.166,5.455c-2.978,5.621-10.25,13.227-12.234,12.896c-0.991-0.166-3.307,0.498-5.125,1.323
	C518.667,136.222,511.891,136.387,507.095,133.411z M571.244,135.063c-0.497-0.658-4.464-1.322-9.094-1.322
	c-11.077,0-13.724-2.313-12.729-11.406c0.331-3.967,0.166-7.605-0.661-7.938c-1.818-1.322,1.653-10.746,4.134-10.746
	c0.993,0,3.307,2.646,4.959,5.787c1.654,3.141,5.954,7.605,9.59,10.086c5.29,3.637,7.274,4.299,10.746,2.977
	c11.244-3.969,8.599-12.565-6.446-21.161c-11.076-6.448-17.854-11.408-17.854-13.558c0-0.662-1.157-2.479-2.646-4.134
	c-2.313-2.647-2.479-3.968-0.495-11.243c2.479-10.086,6.612-15.046,16.531-19.674c8.103-3.968,12.234-4.464,13.89-1.982
	c0.495,0.992,3.802,1.652,7.271,1.652c7.937,0,9.92,2.148,8.928,9.92c-0.495,3.473-0.167,6.613,0.826,7.273
	c2.313,1.486-0.993,11.242-3.637,10.416c-0.992-0.33-3.803-4.133-6.282-8.598c-2.314-4.463-5.954-8.597-7.771-9.424
	c-7.604-2.81-15.706,4.631-13.723,12.399c0.659,2.647,14.55,11.077,18.353,11.077c2.313,0,15.047,13.062,15.047,15.376
	c0,1.157,1.155,3.968,2.479,6.612c2.149,4.301,1.982,5.127-2.313,12.399c-2.48,4.134-6.943,9.093-9.92,10.913
	C584.305,134.237,572.399,136.883,571.244,135.063z M756.412,135.063c-0.497-0.658-4.134-1.322-8.267-1.156
	c-9.92,0.498-12.07-2.148-12.896-15.707c-0.659-8.596-0.165-11.738,1.652-13.227c2.646-2.148,2.979-1.818,10.913,9.424
	c6.446,8.928,18.846,11.408,22.65,4.135c2.313-4.135-0.827-10.912-6.448-13.724c-18.682-9.754-24.303-14.384-25.956-21.657
	c-0.496-2.812-1.818-6.117-2.646-7.111c-2.314-2.809,1.817-11.405,8.432-17.688c5.456-5.126,22.815-10.417,25.626-7.604
	c0.994,0.992,4.134,1.651,7.109,1.651c5.29,0,5.458,0.331,5.785,7.109c0.827,15.707,0.827,20.17,0.168,21.327
	c-0.993,1.983-6.282-3.969-8.598-9.754c-4.464-11.075-13.557-13.393-19.179-4.961c-2.314,3.475-2.314,4.465,0,9.095
	c1.486,2.811,4.299,5.62,6.283,6.282c7.604,2.313,20.666,12.069,24.469,18.188c6.778,11.075,1.983,25.955-10.416,31.741
	C766.498,135.396,757.735,137.214,756.412,135.063z M10.447,133.245c-3.472-3.473-2.48-7.936,2.645-10.416
	c2.646-1.486,5.125-3.471,5.621-4.629c0.331-1.154,0.827-14.382,0.992-29.428c0.167-15.045,0.661-32.24,0.994-38.357
	c0.825-13.557-1.324-20.83-6.78-22.153c-2.149-0.496-4.793-2.147-5.787-3.474c-3.635-4.299,1.488-5.455,23.477-5.455
	c24.303,0,27.279,1.652,16.037,9.093c-6.117,3.969-6.448,4.795-5.622,9.92c0.662,3.307,0.331,5.953-0.66,6.612
	c-1.322,0.826-1.653,12.234-1.488,35.216c0.331,33.065,0.496,34.224,4.133,37.86c5.291,5.291,13.393,4.959,20.997-0.662
	c3.307-2.645,6.448-5.95,6.944-7.438c0.66-1.653,2.149-2.978,3.472-2.978c1.323,0,2.314-0.991,2.314-2.313
	c0-2.979,8.1-9.591,10.085-8.268c2.48,1.486,1.653,9.921-1.984,17.855c-1.818,4.299-3.472,10.416-3.635,13.559
	c-0.331,6.613-1.984,7.271-13.557,6.115c-12.403-1.156-47.453-1.156-52.082,0.166C14.083,134.899,11.604,134.403,10.447,133.245z"/>
<path fill="#cccccc" d="M90.135,132.253c-3.306-2.479-3.306-2.479-0.167-4.299c8.102-4.959,8.434-5.951,8.102-25.957
	c-0.166-10.91,0.331-20.498,1.488-22.483c2.48-5.291-1.488-12.567-8.101-14.55c-7.274-1.983-6.944-5.29,0.496-6.779
	c3.307-0.496,8.928-2.977,12.566-5.125l6.613-4.301l4.133,3.968c3.307,3.142,3.966,4.795,3.14,9.589
	c-0.66,3.143-1.486,16.037-1.984,28.438c-1.156,27.113,0.331,34.059,7.771,35.546c6.282,1.157,7.109,2.646,3.307,6.116
	c-2.313,2.15-3.966,2.313-7.44,0.992c-5.62-2.147-22.979-2.147-24.965-0.164C94.103,134.237,92.12,133.907,90.135,132.253
	L90.135,132.253z M143.702,132.419c-3.966-2.149-5.456-4.629-8.926-14.715c-1.322-3.967-1.488-29.429-0.167-43.316
	c0.827-9.422,0.662-10.248-2.809-11.405c-1.984-0.827-4.133-1.157-4.795-0.993c-2.149,0.497-1.488-4.299,0.827-6.115
	c0.992-0.993,4.299-3.639,7.109-5.955c3.307-2.645,5.621-6.281,6.283-9.92c1.324-6.444,5.126-9.258,10.086-7.438
	c2.646,0.827,3.472,3.142,4.133,9.92l0.827,8.763l9.92,0.168c7.936,0.164,10.416-0.496,12.73-3.143
	c1.653-1.818,2.809-4.133,2.976-5.29c0-4.463,3.966-10.416,6.779-10.416c3.637,0,6.282,4.302,5.291,8.435
	c-0.496,1.652-0.496,4.793,0.165,7.108c0.827,3.472,1.653,3.804,7.938,3.14c5.62-0.66,7.769-0.164,10.085,2.479
	c1.653,1.819,2.479,3.638,1.653,4.133c-8.928,5.291-14.219,7.607-15.707,6.781c-0.992-0.662-2.314-0.168-2.976,0.826
	c-1.488,2.479-0.827,46.292,0.827,50.258c1.653,3.805,6.613,3.638,10.58-0.659c3.307-3.638,6.78-3.142,6.78,0.992
	c0,5.127-6.944,15.376-11.74,17.525c-7.44,2.978-16.202,0.33-20.666-6.283c-4.133-6.282-6.283-27.444-4.299-42.159
	c0.827-5.619,0.827-10.085-0.165-11.075c-0.827-0.826-0.662-1.82,0.329-2.479c0.993-0.662,1.82-2.314,1.82-3.639
	c0-3.803-21.162-3.307-24.14,0.659c-2.809,3.476-3.14,37.199-0.496,44.808c2.149,5.951,6.283,6.777,9.424,1.817
	c2.48-3.967,5.787-4.299,8.597-0.825c1.819,2.147,1.486,3.307-1.488,6.281c-1.819,2.151-3.472,4.631-3.472,5.621
	c0,3.143-9.424,8.764-14.383,8.598C150.149,134.733,146.017,133.741,143.702,132.419L143.702,132.419z M222.398,133.411
	c-0.661-0.992-1.653-1.321-2.48-0.826c-3.637,2.148-3.307-3.141,0.496-7.108c2.149-2.479,4.96-6.117,5.952-8.103
	c2.314-4.629,2.314-13.227,0-14.549c-1.156-0.826-1.653-12.399-1.323-35.051c0.331-30.75,0-34.057-2.48-35.545
	c-1.653-0.827-3.307-1.156-3.803-0.66c-0.661,0.496-1.984,0.166-3.307-0.826c-2.811-2.313,0.166-6.779,3.637-5.455
	c1.323,0.496,6.944-0.662,12.565-2.647l10.416-3.804l2.979,3.804c2.645,3.142,2.809,5.621,2.147,17.194
	c-0.661,7.272-1.321,26.453-1.819,42.324c-0.826,31.248,0.993,41.662,7.771,43.813c3.638,1.155,4.134,4.629,0.994,7.108
	c-1.488,1.324-5.291,1.324-13.227-0.166c-8.597-1.487-11.904-1.321-14.383,0.166C224.548,134.237,223.06,134.403,222.398,133.411z"
	/>
<path fill="#cccccc" d="M277.784,133.577c-1.322-0.994-3.803-1.82-5.456-1.82c-3.968,0-11.243-8.764-14.88-18.02
	c-3.141-7.771-4.3-27.611-1.819-34.061c5.621-15.375,13.394-24.303,23.477-27.111c6.779-1.82,20.171-0.331,20.171,2.479
	c0,1.156,1.486,2.977,3.473,3.967c5.952,3.307,12.729,24.635,9.92,31.744c-1.323,3.471-2.48,3.802-16.366,4.298
	c-11.74,0.331-15.047,0-15.706-1.981c-1.157-2.812,0.165-4.299,3.968-4.299c4.629,0,12.234-7.273,10.416-10.086
	c-0.827-1.322-1.486-4.464-1.653-6.943c-0.328-5.455-4.96-11.076-8.927-11.076c-1.652,0-4.794,1.486-7.107,3.474
	c-4.465,3.308-4.465,3.635-4.465,20.499c0.165,26.783,3.473,34.389,16.036,37.199c4.96,1.156,6.446,0.826,8.928-2.149
	c1.652-1.983,2.976-4.464,3.141-5.456c0-1.156,1.486-2.313,3.307-2.811c2.48-0.661,3.639,0.165,4.3,3.307
	c1.156,4.464-2.479,10.581-9.59,15.872C293.986,134.237,281.421,136.056,277.784,133.577L277.784,133.577z M372.683,132.915
	c-2.809-1.157-6.778-3.474-9.093-5.291c-6.446-5.291-16.035-20.996-17.359-28.105c-0.66-3.638-1.817-8.432-2.646-10.746
	c-1.653-4.299-2.314-21.658-0.992-24.304c0.496-0.66,1.819-4.793,2.977-9.259c1.157-4.299,2.812-8.268,3.473-8.764
	c0.825-0.494,1.487-2.313,1.487-4.133c0-1.652,1.486-4.63,3.308-6.447c1.817-1.818,3.306-4.465,3.306-5.787
	c0-2.646,6.446-5.951,8.763-4.629c0.661,0.33,0.992-0.166,0.827-1.322c-0.331-1.322,2.646-3.307,7.274-4.795
	c4.299-1.322,8.267-2.977,8.926-3.637c1.818-1.982,8.102-1.486,10.251,0.66c0.991,0.992,5.455,1.984,9.919,2.149
	c13.06,0.329,13.228,1.157,5.291,22.815c-3.474,9.26-4.795,11.076-7.438,10.746c-2.647-0.33-3.475-2.15-4.466-9.259
	c-0.993-9.424-6.116-16.864-11.406-16.864c-4.134,0-12.069,7.938-16.533,16.368c-2.977,5.952-3.636,10.25-4.133,25.626
	c-0.165,10.085,0,19.014,0.497,19.672c0.495,0.827,0.991,4.465,1.322,8.268c0.496,7.273,5.29,19.345,7.771,19.345
	c0.826,0,3.307,1.983,5.456,4.629l3.966,4.463l7.438-3.966c6.78-3.475,12.567-10.25,16.202-18.684
	c1.325-3.308,3.475-3.637,7.938-1.323c2.81,1.487,2.81,2.149,0.496,8.598c-1.322,3.968-3.142,7.771-3.969,8.599
	c-0.825,0.99-1.485,4.133-1.485,7.107c0,3.473-0.993,5.952-3.142,6.944C401.946,134.403,378.47,135.229,372.683,132.915
	L372.683,132.915z M433.193,132.583c-12.233-4.463-15.706-21.492-6.612-32.568c5.126-6.283,19.179-14.549,24.8-14.549
	c9.589,0,13.556-15.045,5.619-21.326c-6.446-5.127-11.405-4.464-15.21,1.982c-1.818,2.811-3.967,7.438-4.462,9.92
	c-0.827,3.141-2.151,4.463-3.969,4.133c-3.142-0.66-4.299-10.416-2.148-20.336c1.321-6.445,1.485-6.613,11.242-8.926
	c9.589-2.15,10.25-2.15,19.178,2.148c5.127,2.479,10.581,6.282,12.07,8.764c2.977,4.629,5.125,19.508,6.446,44.309
	c0.661,13.722,0.993,15.046,5.127,18.353c5.619,4.462,4.792,9.753-1.157,7.44c-1.983-0.662-5.953-0.827-8.763-0.168
	c-2.811,0.662-7.439,0.826-10.251,0.496l-5.127-0.826l0.662-13.393c0.826-18.352,0.661-22.814-0.331-24.469
	c-3.142-5.127-16.202,3.967-18.848,13.061c-2.479,7.938,0,14.551,6.114,17.193c8.103,3.637,8.93,6.612,2.979,9.258
	C445.428,135.56,440.799,135.396,433.193,132.583L433.193,132.583z M621.008,132.583c-1.653-1.321-3.637-1.982-4.464-1.652
	c-0.659,0.496-2.812-1.322-4.629-3.967c-4.135-5.785-4.631-17.856-0.992-24.799c2.646-5.291,15.706-14.054,23.146-15.707
	c12.068-2.646,13.556-3.967,13.227-11.739c-0.33-13.886-11.407-18.847-19.674-8.927c-2.316,2.81-4.3,6.447-4.3,8.1
	c0,4.134-5.457,7.109-7.938,4.63c-2.479-2.479-2.646-10.747-0.165-12.069c0.992-0.658,1.488-3.472,1.157-6.117
	c-0.496-5.618,0-6.114,12.896-10.084c8.763-2.812,10.747-2.479,25.461,5.289c6.116,3.142,8.764,13.062,9.589,37.199
	c0.827,23.146,2.812,32.24,7.44,32.57c10.415,0.992,12.729,0.496,14.712-3.307c3.142-5.621,2.315-49.271-0.991-54.56
	c-0.661-0.993-3.307-1.653-5.621-1.487c-3.803,0.496-4.463-0.166-4.463-3.638c0-2.811,0.992-4.299,3.307-4.629
	c1.819-0.331,5.62-1.653,8.597-2.978c2.811-1.321,7.273-2.313,10.087-2.313c4.464,0,4.96,0.661,5.951,6.613
	c0.496,3.637,1.819,6.612,2.646,6.612s3.473-2.811,5.786-6.282c3.636-5.621,4.793-6.117,12.896-6.613l8.762-0.496l-0.661,7.109
	c-0.992,10.086-2.809,11.737-11.406,10.582c-6.447-0.827-7.273-0.498-8.762,2.976c-0.827,2.149-2.315,4.465-3.307,5.125
	c-0.994,0.496-1.653,3.803-1.653,7.109c-0.167,3.307-0.498,11.902-0.994,19.013c-0.992,13.394,1.488,20.997,6.613,20.997
	c3.142,0,4.629,4.464,2.148,6.117c-1.155,0.66-7.108,0.99-13.227,0.66c-6.282-0.166-13.393,0.33-16.202,1.486
	c-3.637,1.653-5.291,1.653-7.109,0.168c-1.321-1.158-2.811-1.324-3.141-0.662c-1.323,2.148-19.673,1.488-23.807-0.826
	c-3.638-1.983-3.803-3.143-3.803-19.344c0-15.539-0.331-17.358-3.307-19.014c-4.301-2.313-8.434-0.165-14.054,7.275
	c-7.11,9.258-4.301,22.484,4.96,24.138c6.941,1.157,7.272,5.786,0.66,8.101C629.438,135.726,624.811,135.396,621.008,132.583
	L621.008,132.583z M105.511,44.628c-9.259-1.485-10.25-10.416-1.323-13.555c8.597-2.979,18.019,2.313,15.54,8.762
	c-0.827,2.149-1.982,2.812-8.1,4.793C110.802,44.96,107.991,44.96,105.511,44.628z"/>
<path fill="#020202" d="M1028.38,263.029c-31.247-1.819-96.886-9.424-98.869-11.407c-0.659-0.659,2.812-1.157,38.522-4.961
	c34.223-3.637,68.612-9.752,68.612-12.067c0-0.66-10.581-2.479-23.644-4.134c-59.354-7.272-121.188-24.469-151.772-42.159
	l-8.267-4.793l33.562-1.156c41.167-1.323,78.531-3.638,111.269-6.78c153.26-15.046,277.755-51.748,296.105-86.964
	c9.258-18.021-9.424-35.05-49.27-45.135c-34.554-8.763-74.895-12.563-136.893-12.563c-72.912,0-116.558,5.455-152.104,19.18
	c-19.345,7.438-31.412,18.515-31.412,29.098c0,19.344,37.198,43.15,85.971,54.725c9.59,2.314,20.336,4.959,23.973,5.785
	c5.787,1.488,4.63,1.654-9.093,1.82c-62.66,0.66-121.685-14.383-147.312-37.529c-9.919-8.928-13.06-14.549-13.06-23.477
	c0-9.26,3.473-15.376,13.556-23.313c21.991-17.193,56.874-29.1,114.575-38.687c23.313-3.967,52.408-6.117,94.403-6.944
	c50.921-0.992,82.83,0.497,127.138,6.117c92.418,11.74,149.126,38.854,141.356,67.62c-3.638,13.558-28.768,34.39-59.021,48.938
	c-7.607,3.637-13.723,7.108-13.723,7.936s1.321,0.994,2.976,0.498c1.486-0.498,6.283-1.654,10.416-2.48
	c21.989-4.795,50.591-16.037,63.817-24.967c3.968-2.811,7.605-4.959,8.101-4.959c1.323,0,0.662,20.5-0.991,34.223
	c-3.307,25.793-11.74,52.08-22.649,70.267l-5.621,9.424l-16.037,4.959c-44.97,13.885-97.214,23.97-155.74,30.087
	C1137.826,262.368,1055.494,264.518,1028.38,263.029z M440.963,256.747c-3.472-1.323-7.771-3.639-9.423-5.127
	c-4.465-3.966-7.11-13.226-6.117-20.83c1.983-15.211,13.06-21.328,38.686-21.328h15.378v-4.959c0-7.771-4.301-16.366-9.094-18.188
	c-2.479-0.992-8.764-1.652-14.053-1.652c-8.103,0-10.581,0.66-14.88,4.301l-5.127,4.463l-4.134-3.967l-3.967-3.805l3.473-3.804
	c6.117-6.284,16.532-9.26,29.43-8.435c12.565,0.994,20.17,4.302,25.626,11.74c3.141,4.299,3.474,7.109,3.968,38.521l0.496,33.893
	l-6.283-0.498c-3.968-0.328-6.117-1.321-5.786-2.479c0.496-2.977-2.313-2.646-7.108,0.498
	C466.425,258.73,448.9,259.723,440.963,256.747z M473.037,242.859c4.63-4.134,5.29-5.787,5.456-13.723l0.167-8.929l-15.541-0.496
	c-11.903-0.33-16.367,0.168-19.509,2.149c-8.434,5.621-8.928,18.683-0.827,23.146c2.48,1.321,9.095,2.313,14.713,2.479
	C466.589,247.488,468.574,246.827,473.037,242.859L473.037,242.859z M583.973,254.928c-6.446-3.308-9.753-6.446-13.227-12.068
	c-4.134-7.272-4.463-9.093-4.463-26.948c0-18.353,0.165-19.344,4.961-27.115c6.612-10.745,14.879-14.879,28.933-14.879
	c19.672,0,31.082,11.904,32.735,34.06l0.825,11.406h-57.206l1.157,7.11c0.662,3.803,2.315,8.597,3.638,10.746
	c6.944,10.745,24.801,13.724,36.042,6.116c5.786-3.967,6.282-3.967,10.25-1.486c5.291,3.636,4.465,5.455-4.794,11.242
	C611.252,260.219,595.878,260.88,583.973,254.928L583.973,254.928z M620.016,203.347c-2.314-12.896-8.928-18.848-20.666-19.014
	c-11.573-0.33-19.344,6.613-21.492,19.014l-1.158,6.115h44.474L620.016,203.347z M741.533,257.904
	c-10.912-2.646-18.517-15.045-16.862-27.278c1.982-14.879,10.085-19.674,35.876-20.996l17.358-0.993l-0.33-5.787
	c-0.167-3.14-0.826-7.438-1.322-9.422c-2.646-11.076-32.073-12.07-39.184-1.488c-0.661,1.158-2.811,0.166-5.456-2.313l-4.3-4.133
	l4.96-4.463c6.613-5.953,16.863-8.434,29.428-7.439c11.408,0.826,19.015,4.463,24.305,11.572c3.142,4.299,3.474,7.109,3.968,38.522
	l0.498,33.724h-6.613c-5.291,0-6.447-0.495-5.786-2.479c1.322-3.14,0.826-3.14-7.771,0.827
	C763.355,258.896,749.8,259.888,741.533,257.904L741.533,257.904z M772.119,243.024c4.3-3.967,5.125-5.952,5.456-13.723l0.33-9.094
	l-14.879-0.496c-16.7-0.33-21.991,1.324-25.461,8.598c-2.811,6.117-0.661,14.384,4.794,17.029c2.313,1.157,8.764,2.148,14.383,2.148
	C765.671,247.488,767.82,246.827,772.119,243.024z M510.898,216.075v-41.332h5.787c5.125,0,5.786,0.498,5.786,4.465
	c0,3.968,0.165,4.134,2.976,1.652c7.937-7.271,22.319-9.752,32.404-5.455c7.771,3.307,8.763,5.621,3.803,10.416
	c-3.966,3.967-4.298,4.133-7.936,1.486c-6.117-4.133-16.863-3.473-22.815,1.654c-7.108,5.951-8.432,12.729-8.432,42.488v25.957
	h-11.573V216.075z M644.98,216.075l-0.165-41.332h6.613c5.456,0,6.613,0.498,6.613,3.308c0,4.133,0.658,4.133,6.445-0.166
	c2.977-2.147,8.102-3.638,14.383-4.298c12.73-0.993,22.981,3.803,28.271,13.556c3.474,6.283,3.805,8.597,3.805,38.522v31.743
	h-11.242l-0.659-30.089c-0.33-25.625-0.993-30.916-3.475-34.554c-7.769-11.573-28.602-10.581-35.048,1.819
	c-1.983,3.804-2.479,11.076-2.479,33.893v28.931h-13.062L644.98,216.075L644.98,216.075L644.98,216.075z"/>
</svg>
