<?xml version="1.0" encoding="utf-8"?>
<!-- Generator: Adobe Illustrator 16.0.0, SVG Export Plug-In . SVG Version: 6.00 Build 0)  -->
<!DOCTYPE svg PUBLIC "-//W3C//DTD SVG 1.1//EN" "http://www.w3.org/Graphics/SVG/1.1/DTD/svg11.dtd">
<svg version="1.1"
	 id="svg5433" xmlns:dc="http://purl.org/dc/elements/1.1/" xmlns:cc="http://web.resource.org/cc/" xmlns:rdf="http://www.w3.org/1999/02/22-rdf-syntax-ns#" xmlns:svg="http://www.w3.org/2000/svg" xmlns:sodipodi="http://sodipodi.sourceforge.net/DTD/sodipodi-0.dtd" xmlns:inkscape="http://www.inkscape.org/namespaces/inkscape" sodipodi:docname="Parking icon.svg" sodipodi:docbase="/Users/bdesham/Documents/Commons images" inkscape:version="0.44.1" sodipodi:version="0.32"
	 xmlns="http://www.w3.org/2000/svg" xmlns:xlink="http://www.w3.org/1999/xlink" x="0px" y="0px" width="64px" height="64px"
	 viewBox="0 0 128 128" enable-background="new 0 0 128 128" xml:space="preserve">
<sodipodi:namedview  height="128px" showgrid="false" grid_units="cm" gridspacingy="0.5cm" gridspacingx="0.5cm" inkscape:cy="64" inkscape:cx="64" inkscape:zoom="4.765625" objecttolerance="10" guidetolerance="10" gridtolerance="10000" borderopacity="1.0" bordercolor="#666666" pagecolor="#ffffff" id="base" width="128px" inkscape:grid-points="true" inkscape:current-layer="layer1" inkscape:pageshadow="2" inkscape:pageopacity="0.0" inkscape:document-units="cm" inkscape:window-y="22" inkscape:window-x="0" inkscape:window-height="782" inkscape:window-width="1068" inkscape:grid-bbox="false">
	</sodipodi:namedview>
<g id="layer1" inkscape:label="Layer 1" inkscape:groupmode="layer">
	
	<path id="text1871" fill="#ffffff" d="M23.521,11.512h44.93c13.359,0,23.601,2.977,30.727,8.93
		c7.171,5.906,10.757,14.344,10.758,25.313c-0.001,11.016-3.587,19.5-10.758,25.453c-7.126,5.906-17.367,8.859-30.727,8.859h-17.86
		v36.422h-27.07V11.512 M50.591,31.129v29.32h14.977c5.25,0,9.305-1.266,12.164-3.797c2.859-2.578,4.289-6.211,4.289-10.898
		s-1.43-8.297-4.289-10.828s-6.914-3.797-12.164-3.797H50.591"/>
</g>
</svg>
