<?xml version="1.0" encoding="utf-8"?>
<!-- Generator: Adobe Illustrator 16.0.0, SVG Export Plug-In . SVG Version: 6.00 Build 0)  -->
<!DOCTYPE svg PUBLIC "-//W3C//DTD SVG 1.1//EN" "http://www.w3.org/Graphics/SVG/1.1/DTD/svg11.dtd">
<svg version="1.1" id="Layer_1" xmlns="http://www.w3.org/2000/svg" xmlns:xlink="http://www.w3.org/1999/xlink" x="0px" y="0px"
	 width="64.425px" height="64.003px" viewBox="0 2.059 64.425 64.003" enable-background="new 0 2.059 64.425 64.003"
	 xml:space="preserve">
<g>
	<path fill="#ffffff" d="M52.728,30.893L29.249,54.365c-0.457,0.457-1.025,0.686-1.711,0.686c-0.686,0-1.254-0.229-1.711-0.686
		L12.086,40.61c-0.477-0.483-0.726-1.051-0.726-1.71s0.242-1.229,0.726-1.712l23.472-23.465c0.457-0.458,1.025-0.687,1.711-0.687
		c0.686,0,1.253,0.229,1.711,0.687l13.754,13.748c0.477,0.477,0.719,1.051,0.719,1.71C53.447,29.841,53.211,30.41,52.728,30.893
		 M63.021,23.291l-4.787-4.748c-1.417,1.417-3.142,2.122-5.166,2.122s-3.749-0.711-5.166-2.122
		c-1.417-1.417-2.129-3.142-2.129-5.166c0-2.025,0.712-3.749,2.129-5.166l-4.748-4.749c-0.934-0.94-2.083-1.404-3.436-1.404
		s-2.501,0.463-3.435,1.404L1.833,37.875c-0.941,0.94-1.411,2.083-1.411,3.442c0,1.352,0.47,2.501,1.411,3.435l4.748,4.788
		c1.417-1.417,3.141-2.129,5.166-2.129c2.024,0,3.749,0.712,5.166,2.129c1.418,1.417,2.123,3.141,2.123,5.166
		c0,2.025-0.705,3.75-2.123,5.166l4.787,4.788c0.935,0.933,2.084,1.403,3.436,1.403c1.352,0,2.501-0.47,3.435-1.403l34.45-34.491
		c0.941-0.933,1.404-2.083,1.404-3.435C64.425,25.374,63.961,24.231,63.021,23.291"/>
	<path fill="#ffffff" d="M37.27,17.177l12.003,12.004L27.545,50.903L15.541,38.906L37.27,17.177z"/>
</g>
</svg>
